{"glyphs":{"0":{"ha":917,"x_min":0,"x_max":0,"o":"m 458 -24 b 54 461 213 -24 54 166 b 458 946 54 757 212 946 b 862 461 704 946 862 757 b 458 -24 862 166 704 -24 m 458 196 b 609 460 555 196 609 290 b 458 726 609 630 555 726 b 307 461 361 726 307 631 b 458 196 307 291 361 196 "},"1":{"ha":524,"x_min":0,"x_max":0,"o":"m 427 924 l 427 0 l 178 0 l 178 714 l 41 714 l 41 924 "},"2":{"ha":785,"x_min":0,"x_max":0,"o":"m 724 219 l 724 0 l 37 0 l 37 56 b 460 645 409 495 460 565 b 380 728 460 695 427 728 b 296 638 328 728 296 693 l 296 620 l 52 620 l 52 637 b 377 947 52 824 175 947 b 708 653 573 947 708 827 b 468 219 708 537 665 448 "},"3":{"ha":788,"x_min":0,"x_max":0,"o":"m 519 584 b 736 301 651 551 736 444 b 387 -21 736 113 590 -21 b 47 299 189 -21 52 108 l 284 299 b 388 191 287 234 327 191 b 495 305 451 191 495 237 b 378 414 495 372 450 414 l 230 414 l 230 466 l 380 713 l 70 713 l 70 924 l 704 924 l 704 881 l 518 584 "},"4":{"ha":814,"x_min":0,"x_max":0,"o":"m 780 166 l 696 166 l 696 0 l 459 0 l 459 166 l 16 166 l 16 211 l 312 924 l 557 924 l 328 373 l 476 373 l 530 576 l 696 576 l 696 373 l 780 373 "},"5":{"ha":783,"x_min":0,"x_max":0,"o":"m 388 608 b 737 300 594 608 737 481 b 391 -21 737 112 593 -21 b 48 299 190 -21 48 111 l 285 299 b 391 191 285 236 329 191 b 496 300 452 191 496 237 b 382 412 496 366 450 412 l 95 412 l 71 442 l 123 924 l 670 924 l 670 713 l 313 713 l 302 608 l 388 608 "},"6":{"ha":810,"x_min":0,"x_max":0,"o":"m 469 623 b 783 321 654 623 783 499 b 416 -21 783 118 633 -21 b 49 319 198 -21 49 118 b 154 637 49 414 77 508 l 324 924 l 591 924 b 408 618 530 822 469 720 b 469 623 428 621 448 623 m 416 191 b 545 321 491 191 545 243 b 416 452 545 399 491 452 b 287 321 341 452 287 399 b 416 191 287 243 341 191 "},"7":{"ha":764,"x_min":0,"x_max":0,"o":"m 743 924 l 743 888 l 393 0 l 133 0 l 415 707 l 34 707 l 34 924 "},"8":{"ha":836,"x_min":0,"x_max":0,"o":"m 661 489 b 784 273 743 436 784 365 b 418 -21 784 98 636 -21 b 53 273 200 -21 53 97 b 176 489 53 366 93 437 b 78 679 111 542 78 605 b 419 947 78 838 215 947 b 758 679 622 947 758 839 b 661 489 758 604 725 541 m 419 764 b 313 671 356 764 313 725 b 419 579 313 618 356 579 b 524 671 481 579 524 618 b 419 764 524 725 481 764 m 419 171 b 542 281 493 171 542 216 b 419 390 542 345 493 390 b 295 281 344 390 295 345 b 419 171 295 216 344 171 "},"9":{"ha":810,"x_min":0,"x_max":0,"o":"m 394 947 b 762 606 612 947 762 808 b 656 288 762 512 733 418 l 485 0 l 219 0 b 403 307 280 102 342 205 b 342 303 383 304 363 303 b 28 605 157 303 28 427 b 394 947 28 808 177 947 m 395 472 b 530 605 474 472 530 526 b 395 737 530 683 474 737 b 259 605 315 737 259 683 b 395 472 259 526 315 472 "},"A":{"ha":1033,"x_min":0,"x_max":0,"o":"m 685 158 l 341 158 l 287 0 l 0 0 l 382 972 l 643 972 l 1034 0 l 739 0 m 512 669 l 406 368 l 620 368 "},"Á":{"ha":1033,"x_min":0,"x_max":0,"o":"m 725 1091 b 653 1158 682 1091 653 1118 b 725 1225 653 1198 682 1225 b 798 1158 769 1225 798 1198 b 725 1091 798 1118 769 1091 m 362 1158 b 295 1095 362 1121 335 1095 l 241 1095 l 241 1221 l 295 1221 b 362 1158 335 1221 362 1196 m 464 1095 l 377 1095 l 377 1221 l 463 1221 l 463 1187 l 418 1187 l 418 1174 l 459 1174 l 459 1142 l 418 1142 l 418 1129 l 464 1129 m 517 1095 l 474 1095 l 493 1221 l 535 1221 l 560 1160 l 587 1221 l 628 1221 l 647 1095 l 605 1095 l 597 1159 l 568 1095 l 553 1095 l 524 1159 m 725 1186 b 698 1158 709 1186 698 1175 b 725 1130 698 1141 709 1130 b 753 1158 742 1130 753 1141 b 725 1186 753 1175 742 1186 m 292 1133 b 319 1158 309 1133 319 1142 b 292 1183 319 1174 309 1183 l 283 1183 l 283 1133 m 685 158 l 341 158 l 287 0 l 0 0 l 382 972 l 643 972 l 1034 0 l 739 0 m 512 669 l 406 368 l 620 368 "},"Ă":{"ha":1033,"x_min":0,"x_max":0,"o":"m 725 1091 b 652 1158 681 1091 652 1118 b 725 1225 652 1198 681 1225 b 797 1158 768 1225 797 1198 b 725 1091 797 1118 768 1091 m 362 1158 b 295 1095 362 1121 335 1095 l 241 1095 l 241 1221 l 295 1221 b 362 1158 335 1221 362 1196 m 464 1095 l 376 1095 l 376 1221 l 463 1221 l 463 1187 l 418 1187 l 418 1174 l 458 1174 l 458 1142 l 418 1142 l 418 1129 l 464 1129 m 516 1095 l 474 1095 l 493 1221 l 534 1221 l 560 1160 l 586 1221 l 628 1221 l 646 1095 l 604 1095 l 597 1159 l 567 1095 l 553 1095 l 523 1159 m 725 1186 b 697 1158 708 1186 697 1175 b 725 1130 697 1141 708 1130 b 752 1158 741 1130 752 1141 b 725 1186 752 1175 741 1186 m 292 1133 b 319 1158 309 1133 319 1142 b 292 1183 319 1174 309 1183 l 283 1183 l 283 1133 m 685 158 l 341 158 l 287 0 l 0 0 l 382 972 l 643 972 l 1034 0 l 739 0 m 512 669 l 406 368 l 620 368 "},"Â":{"ha":1033,"x_min":0,"x_max":0,"o":"m 725 1091 b 652 1158 681 1091 652 1118 b 725 1225 652 1198 681 1225 b 797 1158 768 1225 797 1198 b 725 1091 797 1118 768 1091 m 362 1158 b 295 1095 362 1121 335 1095 l 241 1095 l 241 1221 l 295 1221 b 362 1158 335 1221 362 1196 m 464 1095 l 376 1095 l 376 1221 l 463 1221 l 463 1187 l 418 1187 l 418 1174 l 458 1174 l 458 1142 l 418 1142 l 418 1129 l 464 1129 m 516 1095 l 474 1095 l 493 1221 l 534 1221 l 560 1160 l 586 1221 l 628 1221 l 646 1095 l 604 1095 l 597 1159 l 567 1095 l 553 1095 l 523 1159 m 725 1186 b 697 1158 708 1186 697 1175 b 725 1130 697 1141 708 1130 b 752 1158 741 1130 752 1141 b 725 1186 752 1175 741 1186 m 292 1133 b 319 1158 309 1133 319 1142 b 292 1183 319 1174 309 1183 l 283 1183 l 283 1133 m 685 158 l 341 158 l 287 0 l 0 0 l 382 972 l 643 972 l 1034 0 l 739 0 m 512 669 l 406 368 l 620 368 "},"Ä":{"ha":1033,"x_min":0,"x_max":0,"o":"m 718 1091 b 646 1158 675 1091 646 1118 b 718 1225 646 1198 675 1225 b 791 1158 762 1225 791 1198 b 718 1091 791 1118 762 1091 m 355 1158 b 288 1095 355 1121 328 1095 l 234 1095 l 234 1221 l 288 1221 b 355 1158 328 1221 355 1196 m 457 1095 l 369 1095 l 369 1221 l 456 1221 l 456 1187 l 411 1187 l 411 1174 l 452 1174 l 452 1142 l 411 1142 l 411 1129 l 457 1129 m 510 1095 l 467 1095 l 486 1221 l 527 1221 l 553 1160 l 580 1221 l 621 1221 l 640 1095 l 598 1095 l 590 1159 l 561 1095 l 546 1095 l 517 1159 m 718 1186 b 691 1158 702 1186 691 1175 b 718 1130 691 1141 702 1130 b 746 1158 735 1130 746 1141 b 718 1186 746 1175 735 1186 m 285 1133 b 312 1158 302 1133 312 1142 b 285 1183 312 1174 302 1183 l 276 1183 l 276 1133 m 1034 0 l 739 0 l 685 158 l 341 158 l 287 0 l 0 0 l 382 972 l 643 972 m 620 368 l 512 669 l 406 368 "},"À":{"ha":1033,"x_min":0,"x_max":0,"o":"m 723 1091 b 651 1158 680 1091 651 1118 b 723 1225 651 1198 680 1225 b 796 1158 767 1225 796 1198 b 723 1091 796 1118 767 1091 m 360 1158 b 293 1095 360 1121 333 1095 l 239 1095 l 239 1221 l 293 1221 b 360 1158 333 1221 360 1196 m 462 1095 l 375 1095 l 375 1221 l 461 1221 l 461 1187 l 416 1187 l 416 1174 l 457 1174 l 457 1142 l 416 1142 l 416 1129 l 462 1129 m 515 1095 l 472 1095 l 491 1221 l 533 1221 l 558 1160 l 585 1221 l 626 1221 l 645 1095 l 603 1095 l 595 1159 l 566 1095 l 551 1095 l 522 1159 m 723 1186 b 696 1158 707 1186 696 1175 b 723 1130 696 1141 707 1130 b 751 1158 740 1130 751 1141 b 723 1186 751 1175 740 1186 m 290 1133 b 317 1158 307 1133 317 1142 b 290 1183 317 1174 307 1183 l 281 1183 l 281 1133 m 1034 0 l 739 0 l 685 158 l 341 158 l 287 0 l 0 0 l 382 972 l 643 972 m 620 368 l 512 669 l 406 368 "},"Ā":{"ha":1033,"x_min":0,"x_max":0,"o":"m 724 1091 b 651 1158 680 1091 651 1118 b 724 1225 651 1198 680 1225 b 796 1158 767 1225 796 1198 b 724 1091 796 1118 767 1091 m 361 1158 b 294 1095 361 1121 334 1095 l 240 1095 l 240 1221 l 294 1221 b 361 1158 334 1221 361 1196 m 463 1095 l 375 1095 l 375 1221 l 462 1221 l 462 1187 l 417 1187 l 417 1174 l 457 1174 l 457 1142 l 417 1142 l 417 1129 l 463 1129 m 515 1095 l 473 1095 l 492 1221 l 533 1221 l 559 1160 l 585 1221 l 627 1221 l 645 1095 l 603 1095 l 596 1159 l 566 1095 l 552 1095 l 522 1159 m 724 1186 b 696 1158 707 1186 696 1175 b 724 1130 696 1141 707 1130 b 751 1158 740 1130 751 1141 b 724 1186 751 1175 740 1186 m 291 1133 b 318 1158 308 1133 318 1142 b 291 1183 318 1174 308 1183 l 282 1183 l 282 1133 m 1034 0 l 739 0 l 685 158 l 341 158 l 287 0 l 0 0 l 382 972 l 643 972 m 620 368 l 512 669 l 406 368 "},"Ą":{"ha":1032,"x_min":0,"x_max":0,"o":"m 731 1091 b 659 1158 688 1091 659 1118 b 731 1225 659 1198 688 1225 b 804 1158 775 1225 804 1198 b 731 1091 804 1118 775 1091 m 369 1158 b 302 1095 369 1121 341 1095 l 247 1095 l 247 1221 l 302 1221 b 369 1158 341 1221 369 1196 m 471 1095 l 383 1095 l 383 1221 l 470 1221 l 470 1187 l 424 1187 l 424 1174 l 465 1174 l 465 1142 l 424 1142 l 424 1129 l 470 1129 m 523 1095 l 480 1095 l 499 1221 l 541 1221 l 567 1160 l 593 1221 l 635 1221 l 653 1095 l 611 1095 l 603 1159 l 574 1095 l 559 1095 l 530 1159 m 731 1186 b 704 1158 715 1186 704 1175 b 731 1130 704 1141 715 1130 b 759 1158 748 1130 759 1141 b 731 1186 759 1175 748 1186 m 299 1133 b 326 1158 315 1133 326 1142 b 299 1183 326 1174 315 1183 l 290 1183 l 290 1133 m 1034 0 l 739 0 l 685 158 l 341 158 l 287 0 l 0 0 l 382 972 l 643 972 m 620 368 l 512 669 l 406 368 "},"Å":{"ha":1033,"x_min":0,"x_max":0,"o":"m 725 1091 b 652 1158 681 1091 652 1118 b 725 1225 652 1198 681 1225 b 797 1158 768 1225 797 1198 b 725 1091 797 1118 768 1091 m 362 1158 b 295 1095 362 1121 335 1095 l 240 1095 l 240 1221 l 295 1221 b 362 1158 335 1221 362 1196 m 464 1095 l 376 1095 l 376 1221 l 463 1221 l 463 1187 l 418 1187 l 418 1174 l 458 1174 l 458 1142 l 418 1142 l 418 1129 l 464 1129 m 516 1095 l 474 1095 l 492 1221 l 534 1221 l 560 1160 l 586 1221 l 628 1221 l 646 1095 l 604 1095 l 597 1159 l 567 1095 l 553 1095 l 523 1159 m 725 1186 b 697 1158 708 1186 697 1175 b 725 1130 697 1141 708 1130 b 752 1158 741 1130 752 1141 b 725 1186 752 1175 741 1186 m 292 1133 b 319 1158 308 1133 319 1142 b 292 1183 319 1174 308 1183 l 283 1183 l 283 1133 m 1034 0 l 739 0 l 685 158 l 341 158 l 287 0 l 0 0 l 382 972 l 643 972 m 620 368 l 512 669 l 406 368 "},"Ã":{"ha":1033,"x_min":0,"x_max":0,"o":"m 724 1091 b 652 1158 681 1091 652 1118 b 724 1225 652 1198 681 1225 b 797 1158 768 1225 797 1198 b 724 1091 797 1118 768 1091 m 362 1158 b 294 1095 362 1121 334 1095 l 240 1095 l 240 1221 l 294 1221 b 362 1158 334 1221 362 1196 m 463 1095 l 376 1095 l 376 1221 l 462 1221 l 462 1187 l 417 1187 l 417 1174 l 458 1174 l 458 1142 l 417 1142 l 417 1129 l 463 1129 m 516 1095 l 473 1095 l 492 1221 l 534 1221 l 560 1160 l 586 1221 l 627 1221 l 646 1095 l 604 1095 l 596 1159 l 567 1095 l 552 1095 l 523 1159 m 724 1186 b 697 1158 708 1186 697 1175 b 724 1130 697 1141 708 1130 b 752 1158 741 1130 752 1141 b 724 1186 752 1175 741 1186 m 292 1133 b 318 1158 308 1133 318 1142 b 292 1183 318 1174 308 1183 l 283 1183 l 283 1133 m 1034 0 l 739 0 l 685 158 l 341 158 l 287 0 l 0 0 l 382 972 l 643 972 m 620 368 l 512 669 l 406 368 "},"Æ":{"ha":794,"x_min":0,"x_max":0,"o":"m 398 738 b 277 868 325 738 277 790 b 398 998 277 946 325 998 b 518 868 470 998 518 946 b 398 738 518 790 470 738 m 398 918 b 347 868 367 918 347 898 b 398 819 347 839 367 819 b 448 868 428 819 448 839 b 398 918 448 898 428 918 m 284 694 l 511 728 l 511 652 l 396 639 l 511 586 l 511 560 l 397 507 l 511 494 l 511 418 l 284 452 l 284 526 l 393 573 l 284 620 m 450 400 l 511 400 l 511 243 l 284 243 l 284 399 l 345 399 l 345 318 l 370 318 l 370 390 l 426 390 l 426 318 l 450 318 m 398 218 b 511 98 464 218 511 169 l 511 0 l 284 0 l 284 98 b 398 218 284 169 330 218 m 398 140 b 352 92 370 140 352 122 l 352 76 l 443 76 l 443 92 b 398 140 443 122 426 140 "},"Ǽ":{"ha":794,"x_min":0,"x_max":0,"o":"m 398 738 b 277 868 325 738 277 790 b 398 998 277 946 325 998 b 518 868 470 998 518 946 b 398 738 518 790 470 738 m 398 918 b 347 868 367 918 347 898 b 398 819 347 839 367 819 b 448 868 428 819 448 839 b 398 918 448 898 428 918 m 284 694 l 511 728 l 511 652 l 396 639 l 511 586 l 511 560 l 397 507 l 511 494 l 511 418 l 284 452 l 284 526 l 393 573 l 284 620 m 450 400 l 511 400 l 511 243 l 284 243 l 284 399 l 345 399 l 345 318 l 370 318 l 370 390 l 426 390 l 426 318 l 450 318 m 398 218 b 511 98 464 218 511 169 l 511 0 l 284 0 l 284 98 b 398 218 284 169 330 218 m 398 140 b 352 92 370 140 352 122 l 352 76 l 443 76 l 443 92 b 398 140 443 122 426 140 "},"B":{"ha":904,"x_min":0,"x_max":0,"o":"m 708 513 b 858 277 800 470 858 383 b 542 0 858 119 722 0 l 94 0 l 94 972 l 533 972 b 831 723 706 972 831 867 b 708 513 831 637 783 558 m 577 679 b 487 764 577 729 543 764 l 351 764 l 351 594 l 487 594 b 577 679 543 594 577 629 m 497 220 b 593 309 555 220 593 256 b 497 397 593 360 555 397 l 351 397 l 351 220 l 497 220 "},"C":{"ha":1089,"x_min":0,"x_max":0,"o":"m 560 -25 b 43 485 264 -25 43 194 b 560 997 43 778 264 997 b 1052 582 815 997 1012 829 l 781 582 b 561 747 747 682 663 747 b 322 485 423 747 322 636 b 561 226 322 335 423 226 b 781 405 669 226 754 297 l 1055 405 b 560 -25 1018 149 819 -25 "},"Ć":{"ha":1089,"x_min":0,"x_max":0,"o":"m 769 1225 b 841 1158 812 1225 841 1198 b 769 1091 841 1118 812 1091 b 696 1158 725 1091 696 1118 b 769 1225 696 1198 725 1225 m 339 1221 b 406 1158 379 1221 406 1196 b 339 1095 406 1121 379 1095 l 284 1095 l 284 1221 l 339 1221 m 462 1129 l 508 1129 l 508 1095 l 420 1095 l 420 1221 l 507 1221 l 507 1187 l 462 1187 l 462 1174 l 502 1174 l 502 1142 l 462 1142 m 672 1221 l 690 1095 l 648 1095 l 641 1159 l 611 1095 l 597 1095 l 567 1159 l 560 1095 l 518 1095 l 536 1221 l 578 1221 l 604 1160 l 630 1221 m 769 1130 b 796 1158 785 1130 796 1141 b 769 1186 796 1175 785 1186 b 741 1158 752 1186 741 1175 b 769 1130 741 1141 752 1130 m 336 1133 b 363 1158 352 1133 363 1142 b 336 1183 363 1174 352 1183 l 327 1183 l 327 1133 l 336 1133 m 560 -25 b 43 485 264 -25 43 194 b 560 997 43 778 264 997 b 1052 582 815 997 1012 829 l 781 582 b 561 747 747 682 663 747 b 322 485 423 747 322 636 b 561 226 322 335 423 226 b 781 405 669 226 754 297 l 1055 405 b 560 -25 1018 149 819 -25 "},"Č":{"ha":1089,"x_min":0,"x_max":0,"o":"m 760 1225 b 833 1158 804 1225 833 1198 b 760 1091 833 1118 804 1091 b 688 1158 717 1091 688 1118 b 760 1225 688 1198 717 1225 m 330 1221 b 397 1158 370 1221 397 1196 b 330 1095 397 1121 370 1095 l 276 1095 l 276 1221 l 330 1221 m 453 1129 l 499 1129 l 499 1095 l 411 1095 l 411 1221 l 498 1221 l 498 1187 l 453 1187 l 453 1174 l 493 1174 l 493 1142 l 453 1142 m 663 1221 l 682 1095 l 640 1095 l 632 1159 l 603 1095 l 588 1095 l 559 1159 l 551 1095 l 509 1095 l 528 1221 l 569 1221 l 595 1160 l 621 1221 m 760 1130 b 788 1158 777 1130 788 1141 b 760 1186 788 1175 777 1186 b 732 1158 744 1186 732 1175 b 760 1130 732 1141 744 1130 m 327 1133 b 354 1158 344 1133 354 1142 b 327 1183 354 1174 344 1183 l 318 1183 l 318 1133 l 327 1133 m 560 -25 b 43 485 264 -25 43 194 b 560 997 43 778 264 997 b 1052 582 815 997 1012 829 l 781 582 b 561 747 747 682 663 747 b 322 485 423 747 322 636 b 561 226 322 335 423 226 b 781 405 669 226 754 297 l 1055 405 b 560 -25 1018 149 819 -25 "},"Ç":{"ha":1089,"x_min":0,"x_max":0,"o":"m 776 1225 b 849 1158 820 1225 849 1198 b 776 1091 849 1118 820 1091 b 704 1158 733 1091 704 1118 b 776 1225 704 1198 733 1225 m 346 1221 b 414 1158 386 1221 414 1196 b 346 1095 414 1121 386 1095 l 292 1095 l 292 1221 l 346 1221 m 469 1129 l 515 1129 l 515 1095 l 428 1095 l 428 1221 l 514 1221 l 514 1187 l 469 1187 l 469 1174 l 510 1174 l 510 1142 l 469 1142 m 679 1221 l 698 1095 l 656 1095 l 648 1159 l 619 1095 l 604 1095 l 575 1159 l 568 1095 l 525 1095 l 544 1221 l 586 1221 l 612 1160 l 638 1221 m 776 1130 b 804 1158 793 1130 804 1141 b 776 1186 804 1175 793 1186 b 749 1158 760 1186 749 1175 b 776 1130 749 1141 760 1130 m 344 1133 b 370 1158 360 1133 370 1142 b 344 1183 370 1174 360 1183 l 335 1183 l 335 1133 l 344 1133 m 560 -25 b 43 485 264 -25 43 194 b 560 997 43 778 264 997 b 1052 582 815 997 1012 829 l 781 582 b 561 747 747 682 663 747 b 322 485 423 747 322 636 b 561 226 322 335 423 226 b 781 405 669 226 754 297 l 1055 405 b 560 -25 1018 149 819 -25 "},"Ĉ":{"ha":1089,"x_min":0,"x_max":0,"o":"m 768 1225 b 841 1158 812 1225 841 1198 b 768 1091 841 1118 812 1091 b 696 1158 725 1091 696 1118 b 768 1225 696 1198 725 1225 m 338 1221 b 406 1158 378 1221 406 1196 b 338 1095 406 1121 378 1095 l 284 1095 l 284 1221 l 338 1221 m 461 1129 l 507 1129 l 507 1095 l 420 1095 l 420 1221 l 506 1221 l 506 1187 l 461 1187 l 461 1174 l 502 1174 l 502 1142 l 461 1142 m 671 1221 l 690 1095 l 648 1095 l 640 1159 l 611 1095 l 596 1095 l 567 1159 l 560 1095 l 517 1095 l 536 1221 l 578 1221 l 604 1160 l 630 1221 m 768 1130 b 796 1158 785 1130 796 1141 b 768 1186 796 1175 785 1186 b 741 1158 752 1186 741 1175 b 768 1130 741 1141 752 1130 m 336 1133 b 362 1158 352 1133 362 1142 b 336 1183 362 1174 352 1183 l 327 1183 l 327 1133 l 336 1133 m 560 -25 b 43 485 264 -25 43 194 b 560 997 43 778 264 997 b 1052 582 815 997 1012 829 l 781 582 b 561 747 747 682 663 747 b 322 485 423 747 322 636 b 561 226 322 335 423 226 b 781 405 669 226 754 297 l 1055 405 b 560 -25 1018 149 819 -25 "},"Ċ":{"ha":1089,"x_min":0,"x_max":0,"o":"m 769 1225 b 841 1158 812 1225 841 1198 b 769 1091 841 1118 812 1091 b 696 1158 725 1091 696 1118 b 769 1225 696 1198 725 1225 m 339 1221 b 406 1158 379 1221 406 1196 b 339 1095 406 1121 379 1095 l 285 1095 l 285 1221 l 339 1221 m 462 1129 l 508 1129 l 508 1095 l 420 1095 l 420 1221 l 507 1221 l 507 1187 l 462 1187 l 462 1174 l 502 1174 l 502 1142 l 462 1142 m 672 1221 l 690 1095 l 648 1095 l 641 1159 l 611 1095 l 597 1095 l 567 1159 l 560 1095 l 518 1095 l 537 1221 l 578 1221 l 604 1160 l 630 1221 m 769 1130 b 796 1158 785 1130 796 1141 b 769 1186 796 1175 785 1186 b 741 1158 752 1186 741 1175 b 769 1130 741 1141 752 1130 m 336 1133 b 363 1158 353 1133 363 1142 b 336 1183 363 1174 353 1183 l 327 1183 l 327 1133 l 336 1133 m 560 -25 b 43 485 264 -25 43 194 b 560 997 43 778 264 997 b 1052 582 815 997 1012 829 l 781 582 b 561 747 747 682 663 747 b 322 485 423 747 322 636 b 561 226 322 335 423 226 b 781 405 669 226 754 297 l 1055 405 b 560 -25 1018 149 819 -25 "},"D":{"ha":1035,"x_min":0,"x_max":0,"o":"m 487 972 b 989 487 782 972 989 771 b 487 0 989 203 781 0 l 94 0 l 94 972 l 487 972 m 475 245 b 715 487 619 245 715 343 b 475 727 715 631 619 727 l 363 727 l 363 245 l 475 245 "},"Ð":{"ha":1035,"x_min":0,"x_max":0,"o":"m 604 1091 b 531 1158 560 1091 531 1118 b 604 1225 531 1198 560 1225 b 676 1158 647 1225 676 1198 b 604 1091 676 1118 647 1091 m 241 1158 b 174 1095 241 1121 214 1095 l 119 1095 l 119 1221 l 174 1221 b 241 1158 214 1221 241 1196 m 343 1095 l 255 1095 l 255 1221 l 342 1221 l 342 1187 l 297 1187 l 297 1174 l 337 1174 l 337 1142 l 297 1142 l 297 1129 l 343 1129 m 395 1095 l 353 1095 l 371 1221 l 413 1221 l 439 1160 l 465 1221 l 507 1221 l 525 1095 l 483 1095 l 476 1159 l 446 1095 l 432 1095 l 402 1159 m 604 1186 b 576 1158 587 1186 576 1175 b 604 1130 576 1141 587 1130 b 631 1158 620 1130 631 1141 b 604 1186 631 1175 620 1186 m 171 1133 b 198 1158 187 1133 198 1142 b 171 1183 198 1174 187 1183 l 162 1183 l 162 1133 m 487 972 b 989 487 782 972 989 771 b 487 0 989 203 781 0 l 94 0 l 94 972 l 487 972 m 475 245 b 715 487 619 245 715 343 b 475 727 715 631 619 727 l 363 727 l 363 245 l 475 245 "},"Ď":{"ha":1035,"x_min":0,"x_max":0,"o":"m 607 1091 b 534 1158 563 1091 534 1118 b 607 1225 534 1198 563 1225 b 679 1158 650 1225 679 1198 b 607 1091 679 1118 650 1091 m 244 1158 b 177 1095 244 1121 217 1095 l 122 1095 l 122 1221 l 177 1221 b 244 1158 217 1221 244 1196 m 346 1095 l 258 1095 l 258 1221 l 345 1221 l 345 1187 l 300 1187 l 300 1174 l 340 1174 l 340 1142 l 300 1142 l 300 1129 l 346 1129 m 398 1095 l 356 1095 l 374 1221 l 416 1221 l 442 1160 l 468 1221 l 510 1221 l 528 1095 l 486 1095 l 479 1159 l 449 1095 l 435 1095 l 405 1159 m 607 1186 b 579 1158 590 1186 579 1175 b 607 1130 579 1141 590 1130 b 634 1158 623 1130 634 1141 b 607 1186 634 1175 623 1186 m 174 1133 b 201 1158 190 1133 201 1142 b 174 1183 201 1174 190 1183 l 165 1183 l 165 1133 m 487 972 b 989 487 782 972 989 771 b 487 0 989 203 781 0 l 94 0 l 94 972 l 487 972 m 475 245 b 715 487 619 245 715 343 b 475 727 715 631 619 727 l 363 727 l 363 245 l 475 245 "},"Đ":{"ha":1035,"x_min":0,"x_max":0,"o":"m 604 1091 b 531 1158 560 1091 531 1118 b 604 1225 531 1198 560 1225 b 676 1158 647 1225 676 1198 b 604 1091 676 1118 647 1091 m 241 1158 b 174 1095 241 1121 214 1095 l 119 1095 l 119 1221 l 174 1221 b 241 1158 214 1221 241 1196 m 343 1095 l 255 1095 l 255 1221 l 342 1221 l 342 1187 l 297 1187 l 297 1174 l 337 1174 l 337 1142 l 297 1142 l 297 1129 l 343 1129 m 395 1095 l 353 1095 l 371 1221 l 413 1221 l 439 1160 l 465 1221 l 507 1221 l 525 1095 l 483 1095 l 476 1159 l 446 1095 l 432 1095 l 402 1159 m 604 1186 b 576 1158 587 1186 576 1175 b 604 1130 576 1141 587 1130 b 631 1158 620 1130 631 1141 b 604 1186 631 1175 620 1186 m 171 1133 b 198 1158 187 1133 198 1142 b 171 1183 198 1174 187 1183 l 162 1183 l 162 1133 m 487 972 b 989 487 782 972 989 771 b 487 0 989 203 781 0 l 94 0 l 94 972 l 487 972 m 475 245 b 715 487 619 245 715 343 b 475 727 715 631 619 727 l 363 727 l 363 245 l 475 245 "},"E":{"ha":788,"x_min":0,"x_max":0,"o":"m 728 232 l 728 0 l 94 0 l 94 972 l 716 972 l 716 741 l 361 741 l 361 598 l 680 598 l 680 378 l 361 378 l 361 232 "},"É":{"ha":788,"x_min":0,"x_max":0,"o":"m 621 1091 b 549 1158 578 1091 549 1118 b 621 1225 549 1198 578 1225 b 694 1158 665 1225 694 1198 b 621 1091 694 1118 665 1091 m 258 1158 b 191 1095 258 1121 231 1095 l 137 1095 l 137 1221 l 191 1221 b 258 1158 231 1221 258 1196 m 360 1095 l 272 1095 l 272 1221 l 359 1221 l 359 1187 l 314 1187 l 314 1174 l 355 1174 l 355 1142 l 314 1142 l 314 1129 l 360 1129 m 413 1095 l 370 1095 l 389 1221 l 431 1221 l 456 1160 l 483 1221 l 524 1221 l 543 1095 l 501 1095 l 493 1159 l 464 1095 l 449 1095 l 420 1159 m 621 1186 b 594 1158 605 1186 594 1175 b 621 1130 594 1141 605 1130 b 649 1158 638 1130 649 1141 b 621 1186 649 1175 638 1186 m 188 1133 b 215 1158 205 1133 215 1142 b 188 1183 215 1174 205 1183 l 179 1183 l 179 1133 m 728 232 l 728 0 l 94 0 l 94 972 l 716 972 l 716 741 l 361 741 l 361 598 l 680 598 l 680 378 l 361 378 l 361 232 "},"Ĕ":{"ha":788,"x_min":0,"x_max":0,"o":"m 621 1091 b 548 1158 577 1091 548 1118 b 621 1225 548 1198 577 1225 b 693 1158 664 1225 693 1198 b 621 1091 693 1118 664 1091 m 258 1158 b 191 1095 258 1121 231 1095 l 137 1095 l 137 1221 l 191 1221 b 258 1158 231 1221 258 1196 m 360 1095 l 272 1095 l 272 1221 l 359 1221 l 359 1187 l 314 1187 l 314 1174 l 354 1174 l 354 1142 l 314 1142 l 314 1129 l 360 1129 m 412 1095 l 370 1095 l 389 1221 l 430 1221 l 456 1160 l 482 1221 l 524 1221 l 542 1095 l 500 1095 l 493 1159 l 463 1095 l 449 1095 l 419 1159 m 621 1186 b 593 1158 604 1186 593 1175 b 621 1130 593 1141 604 1130 b 648 1158 637 1130 648 1141 b 621 1186 648 1175 637 1186 m 188 1133 b 215 1158 205 1133 215 1142 b 188 1183 215 1174 205 1183 l 179 1183 l 179 1133 m 728 232 l 728 0 l 94 0 l 94 972 l 716 972 l 716 741 l 361 741 l 361 598 l 680 598 l 680 378 l 361 378 l 361 232 "},"Ě":{"ha":788,"x_min":0,"x_max":0,"o":"m 613 1091 b 540 1158 569 1091 540 1118 b 613 1225 540 1198 569 1225 b 685 1158 656 1225 685 1198 b 613 1091 685 1118 656 1091 m 250 1158 b 183 1095 250 1121 223 1095 l 128 1095 l 128 1221 l 183 1221 b 250 1158 223 1221 250 1196 m 352 1095 l 264 1095 l 264 1221 l 351 1221 l 351 1187 l 306 1187 l 306 1174 l 346 1174 l 346 1142 l 306 1142 l 306 1129 l 352 1129 m 404 1095 l 362 1095 l 380 1221 l 422 1221 l 448 1160 l 474 1221 l 516 1221 l 534 1095 l 492 1095 l 485 1159 l 455 1095 l 441 1095 l 411 1159 m 613 1186 b 585 1158 596 1186 585 1175 b 613 1130 585 1141 596 1130 b 640 1158 629 1130 640 1141 b 613 1186 640 1175 629 1186 m 180 1133 b 207 1158 196 1133 207 1142 b 180 1183 207 1174 196 1183 l 171 1183 l 171 1133 m 728 232 l 728 0 l 94 0 l 94 972 l 716 972 l 716 741 l 361 741 l 361 598 l 680 598 l 680 378 l 361 378 l 361 232 "},"Ê":{"ha":788,"x_min":0,"x_max":0,"o":"m 621 1091 b 548 1158 577 1091 548 1118 b 621 1225 548 1198 577 1225 b 693 1158 664 1225 693 1198 b 621 1091 693 1118 664 1091 m 258 1158 b 191 1095 258 1121 231 1095 l 137 1095 l 137 1221 l 191 1221 b 258 1158 231 1221 258 1196 m 360 1095 l 272 1095 l 272 1221 l 359 1221 l 359 1187 l 314 1187 l 314 1174 l 354 1174 l 354 1142 l 314 1142 l 314 1129 l 360 1129 m 412 1095 l 370 1095 l 389 1221 l 430 1221 l 456 1160 l 482 1221 l 524 1221 l 542 1095 l 500 1095 l 493 1159 l 463 1095 l 449 1095 l 419 1159 m 621 1186 b 593 1158 604 1186 593 1175 b 621 1130 593 1141 604 1130 b 648 1158 637 1130 648 1141 b 621 1186 648 1175 637 1186 m 188 1133 b 215 1158 205 1133 215 1142 b 188 1183 215 1174 205 1183 l 179 1183 l 179 1133 m 728 232 l 728 0 l 94 0 l 94 972 l 716 972 l 716 741 l 361 741 l 361 598 l 680 598 l 680 378 l 361 378 l 361 232 "},"Ë":{"ha":788,"x_min":0,"x_max":0,"o":"m 614 1091 b 542 1158 571 1091 542 1118 b 614 1225 542 1198 571 1225 b 687 1158 658 1225 687 1198 b 614 1091 687 1118 658 1091 m 251 1158 b 184 1095 251 1121 224 1095 l 130 1095 l 130 1221 l 184 1221 b 251 1158 224 1221 251 1196 m 353 1095 l 265 1095 l 265 1221 l 352 1221 l 352 1187 l 307 1187 l 307 1174 l 348 1174 l 348 1142 l 307 1142 l 307 1129 l 353 1129 m 406 1095 l 363 1095 l 382 1221 l 423 1221 l 449 1160 l 475 1221 l 517 1221 l 536 1095 l 494 1095 l 486 1159 l 457 1095 l 442 1095 l 413 1159 m 614 1186 b 587 1158 598 1186 587 1175 b 614 1130 587 1141 598 1130 b 642 1158 631 1130 642 1141 b 614 1186 642 1175 631 1186 m 181 1133 b 208 1158 198 1133 208 1142 b 181 1183 208 1174 198 1183 l 172 1183 l 172 1133 m 728 232 l 728 0 l 94 0 l 94 972 l 716 972 l 716 741 l 361 741 l 361 598 l 680 598 l 680 378 l 361 378 l 361 232 "},"Ė":{"ha":788,"x_min":0,"x_max":0,"o":"m 621 1225 b 694 1158 665 1225 694 1198 b 621 1091 694 1118 665 1091 b 549 1158 578 1091 549 1118 b 621 1225 549 1198 578 1225 m 192 1221 b 259 1158 231 1221 259 1196 b 192 1095 259 1121 231 1095 l 137 1095 l 137 1221 l 192 1221 m 314 1129 l 361 1129 l 361 1095 l 273 1095 l 273 1221 l 360 1221 l 360 1187 l 314 1187 l 314 1174 l 355 1174 l 355 1142 l 314 1142 m 525 1221 l 543 1095 l 501 1095 l 494 1159 l 464 1095 l 449 1095 l 420 1159 l 413 1095 l 370 1095 l 389 1221 l 431 1221 l 457 1160 l 483 1221 m 621 1130 b 649 1158 638 1130 649 1141 b 621 1186 649 1175 638 1186 b 594 1158 605 1186 594 1175 b 621 1130 594 1141 605 1130 m 189 1133 b 216 1158 205 1133 216 1142 b 189 1183 216 1174 205 1183 l 180 1183 l 180 1133 l 189 1133 m 728 232 l 728 0 l 94 0 l 94 972 l 716 972 l 716 741 l 361 741 l 361 598 l 680 598 l 680 378 l 361 378 l 361 232 "},"È":{"ha":788,"x_min":0,"x_max":0,"o":"m 619 1091 b 547 1158 576 1091 547 1118 b 619 1225 547 1198 576 1225 b 692 1158 663 1225 692 1198 b 619 1091 692 1118 663 1091 m 256 1158 b 189 1095 256 1121 229 1095 l 135 1095 l 135 1221 l 189 1221 b 256 1158 229 1221 256 1196 m 358 1095 l 270 1095 l 270 1221 l 357 1221 l 357 1187 l 312 1187 l 312 1174 l 353 1174 l 353 1142 l 312 1142 l 312 1129 l 358 1129 m 411 1095 l 368 1095 l 387 1221 l 429 1221 l 454 1160 l 481 1221 l 522 1221 l 541 1095 l 499 1095 l 491 1159 l 462 1095 l 447 1095 l 418 1159 m 619 1186 b 592 1158 603 1186 592 1175 b 619 1130 592 1141 603 1130 b 647 1158 636 1130 647 1141 b 619 1186 647 1175 636 1186 m 186 1133 b 213 1158 203 1133 213 1142 b 186 1183 213 1174 203 1183 l 177 1183 l 177 1133 m 728 232 l 728 0 l 94 0 l 94 972 l 716 972 l 716 741 l 361 741 l 361 598 l 680 598 l 680 378 l 361 378 l 361 232 "},"Ē":{"ha":788,"x_min":0,"x_max":0,"o":"m 620 1091 b 547 1158 576 1091 547 1118 b 620 1225 547 1198 576 1225 b 692 1158 663 1225 692 1198 b 620 1091 692 1118 663 1091 m 257 1158 b 190 1095 257 1121 230 1095 l 136 1095 l 136 1221 l 190 1221 b 257 1158 230 1221 257 1196 m 359 1095 l 271 1095 l 271 1221 l 358 1221 l 358 1187 l 313 1187 l 313 1174 l 353 1174 l 353 1142 l 313 1142 l 313 1129 l 359 1129 m 411 1095 l 369 1095 l 387 1221 l 429 1221 l 455 1160 l 481 1221 l 523 1221 l 541 1095 l 499 1095 l 492 1159 l 462 1095 l 448 1095 l 418 1159 m 620 1186 b 592 1158 603 1186 592 1175 b 620 1130 592 1141 603 1130 b 647 1158 636 1130 647 1141 b 620 1186 647 1175 636 1186 m 187 1133 b 214 1158 204 1133 214 1142 b 187 1183 214 1174 204 1183 l 178 1183 l 178 1133 m 728 232 l 728 0 l 94 0 l 94 972 l 716 972 l 716 741 l 361 741 l 361 598 l 680 598 l 680 378 l 361 378 l 361 232 "},"Ę":{"ha":788,"x_min":0,"x_max":0,"o":"m 620 1091 b 547 1158 576 1091 547 1118 b 620 1225 547 1198 576 1225 b 692 1158 663 1225 692 1198 b 620 1091 692 1118 663 1091 m 257 1158 b 190 1095 257 1121 230 1095 l 136 1095 l 136 1221 l 190 1221 b 257 1158 230 1221 257 1196 m 359 1095 l 271 1095 l 271 1221 l 358 1221 l 358 1187 l 313 1187 l 313 1174 l 353 1174 l 353 1142 l 313 1142 l 313 1129 l 359 1129 m 411 1095 l 369 1095 l 387 1221 l 429 1221 l 455 1160 l 481 1221 l 523 1221 l 541 1095 l 499 1095 l 492 1159 l 462 1095 l 448 1095 l 418 1159 m 620 1186 b 592 1158 603 1186 592 1175 b 620 1130 592 1141 603 1130 b 647 1158 636 1130 647 1141 b 620 1186 647 1175 636 1186 m 187 1133 b 214 1158 204 1133 214 1142 b 187 1183 214 1174 204 1183 l 178 1183 l 178 1133 m 728 232 l 728 0 l 94 0 l 94 972 l 716 972 l 716 741 l 361 741 l 361 598 l 680 598 l 680 378 l 361 378 l 361 232 "},"F":{"ha":761,"x_min":0,"x_max":0,"o":"m 364 730 l 364 575 l 677 575 l 677 341 l 364 341 l 364 0 l 94 0 l 94 972 l 713 972 l 713 730 "},"G":{"ha":1115,"x_min":0,"x_max":0,"o":"m 1074 520 b 562 -25 1074 201 866 -25 b 44 485 264 -25 44 190 b 559 997 44 781 260 997 b 1064 611 814 997 1023 837 l 783 611 b 562 746 748 693 661 746 b 318 485 416 746 318 641 b 562 226 318 332 415 226 b 782 351 664 226 752 276 l 541 351 l 541 520 "},"Ğ":{"ha":1115,"x_min":0,"x_max":0,"o":"m 779 1091 b 707 1158 736 1091 707 1118 b 779 1225 707 1198 736 1225 b 852 1158 823 1225 852 1198 b 779 1091 852 1118 823 1091 m 417 1158 b 349 1095 417 1121 389 1095 l 295 1095 l 295 1221 l 349 1221 b 417 1158 389 1221 417 1196 m 518 1095 l 431 1095 l 431 1221 l 518 1221 l 518 1187 l 472 1187 l 472 1174 l 513 1174 l 513 1142 l 472 1142 l 472 1129 l 518 1129 m 571 1095 l 528 1095 l 547 1221 l 589 1221 l 615 1160 l 641 1221 l 682 1221 l 701 1095 l 659 1095 l 651 1159 l 622 1095 l 607 1095 l 578 1159 m 779 1186 b 752 1158 763 1186 752 1175 b 779 1130 752 1141 763 1130 b 807 1158 796 1130 807 1141 b 779 1186 807 1175 796 1186 m 347 1133 b 373 1158 363 1133 373 1142 b 347 1183 373 1174 363 1183 l 338 1183 l 338 1133 m 1074 520 b 562 -25 1074 201 866 -25 b 44 485 264 -25 44 190 b 559 997 44 781 260 997 b 1064 611 814 997 1023 837 l 783 611 b 562 746 748 693 661 746 b 318 485 416 746 318 641 b 562 226 318 332 415 226 b 782 351 664 226 752 276 l 541 351 l 541 520 "},"Ĝ":{"ha":1115,"x_min":0,"x_max":0,"o":"m 779 1091 b 707 1158 736 1091 707 1118 b 779 1225 707 1198 736 1225 b 852 1158 823 1225 852 1198 b 779 1091 852 1118 823 1091 m 417 1158 b 349 1095 417 1121 389 1095 l 295 1095 l 295 1221 l 349 1221 b 417 1158 389 1221 417 1196 m 518 1095 l 431 1095 l 431 1221 l 518 1221 l 518 1187 l 472 1187 l 472 1174 l 513 1174 l 513 1142 l 472 1142 l 472 1129 l 518 1129 m 571 1095 l 528 1095 l 547 1221 l 589 1221 l 615 1160 l 641 1221 l 682 1221 l 701 1095 l 659 1095 l 651 1159 l 622 1095 l 607 1095 l 578 1159 m 779 1186 b 752 1158 763 1186 752 1175 b 779 1130 752 1141 763 1130 b 807 1158 796 1130 807 1141 b 779 1186 807 1175 796 1186 m 347 1133 b 373 1158 363 1133 373 1142 b 347 1183 373 1174 363 1183 l 338 1183 l 338 1133 m 1074 520 b 562 -25 1074 201 866 -25 b 44 485 264 -25 44 190 b 559 997 44 781 260 997 b 1064 611 814 997 1023 837 l 783 611 b 562 746 748 693 661 746 b 318 485 416 746 318 641 b 562 226 318 332 415 226 b 782 351 664 226 752 276 l 541 351 l 541 520 "},"Ġ":{"ha":1115,"x_min":0,"x_max":0,"o":"m 780 1091 b 707 1158 736 1091 707 1118 b 780 1225 707 1198 736 1225 b 852 1158 823 1225 852 1198 b 780 1091 852 1118 823 1091 m 417 1158 b 350 1095 417 1121 390 1095 l 296 1095 l 296 1221 l 350 1221 b 417 1158 390 1221 417 1196 m 519 1095 l 431 1095 l 431 1221 l 518 1221 l 518 1187 l 473 1187 l 473 1174 l 513 1174 l 513 1142 l 473 1142 l 473 1129 l 519 1129 m 571 1095 l 529 1095 l 548 1221 l 589 1221 l 615 1160 l 641 1221 l 683 1221 l 702 1095 l 659 1095 l 652 1159 l 622 1095 l 608 1095 l 579 1159 m 780 1186 b 752 1158 763 1186 752 1175 b 780 1130 752 1141 763 1130 b 808 1158 796 1130 808 1141 b 780 1186 808 1175 796 1186 m 347 1133 b 374 1158 364 1133 374 1142 b 347 1183 374 1174 364 1183 l 338 1183 l 338 1133 m 1074 520 b 562 -25 1074 201 866 -25 b 44 485 264 -25 44 190 b 559 997 44 781 260 997 b 1064 611 814 997 1023 837 l 783 611 b 562 746 748 693 661 746 b 318 485 416 746 318 641 b 562 226 318 332 415 226 b 782 351 664 226 752 276 l 541 351 l 541 520 "},"H":{"ha":1019,"x_min":0,"x_max":0,"o":"m 926 972 l 926 0 l 656 0 l 656 373 l 364 373 l 364 0 l 94 0 l 94 972 l 364 972 l 364 621 l 656 621 l 656 972 "},"Ħ":{"ha":1019,"x_min":0,"x_max":0,"o":"m 723 1091 b 651 1158 680 1091 651 1118 b 723 1225 651 1198 680 1225 b 796 1158 767 1225 796 1198 b 723 1091 796 1118 767 1091 m 361 1158 b 294 1095 361 1121 333 1095 l 239 1095 l 239 1221 l 294 1221 b 361 1158 333 1221 361 1196 m 463 1095 l 375 1095 l 375 1221 l 462 1221 l 462 1187 l 416 1187 l 416 1174 l 457 1174 l 457 1142 l 416 1142 l 416 1129 l 463 1129 m 515 1095 l 472 1095 l 491 1221 l 533 1221 l 559 1160 l 585 1221 l 627 1221 l 645 1095 l 603 1095 l 596 1159 l 566 1095 l 551 1095 l 522 1159 m 723 1186 b 696 1158 707 1186 696 1175 b 723 1130 696 1141 707 1130 b 751 1158 740 1130 751 1141 b 723 1186 751 1175 740 1186 m 291 1133 b 318 1158 307 1133 318 1142 b 291 1183 318 1174 307 1183 l 282 1183 l 282 1133 m 926 972 l 926 0 l 656 0 l 656 373 l 364 373 l 364 0 l 94 0 l 94 972 l 364 972 l 364 621 l 656 621 l 656 972 "},"Ĥ":{"ha":1019,"x_min":0,"x_max":0,"o":"m 723 1091 b 651 1158 680 1091 651 1118 b 723 1225 651 1198 680 1225 b 796 1158 767 1225 796 1198 b 723 1091 796 1118 767 1091 m 361 1158 b 294 1095 361 1121 333 1095 l 239 1095 l 239 1221 l 294 1221 b 361 1158 333 1221 361 1196 m 463 1095 l 375 1095 l 375 1221 l 462 1221 l 462 1187 l 416 1187 l 416 1174 l 457 1174 l 457 1142 l 416 1142 l 416 1129 l 463 1129 m 515 1095 l 472 1095 l 491 1221 l 533 1221 l 559 1160 l 585 1221 l 627 1221 l 645 1095 l 603 1095 l 596 1159 l 566 1095 l 551 1095 l 522 1159 m 723 1186 b 696 1158 707 1186 696 1175 b 723 1130 696 1141 707 1130 b 751 1158 740 1130 751 1141 b 723 1186 751 1175 740 1186 m 291 1133 b 318 1158 307 1133 318 1142 b 291 1183 318 1174 307 1183 l 282 1183 l 282 1133 m 926 972 l 926 0 l 656 0 l 656 373 l 364 373 l 364 0 l 94 0 l 94 972 l 364 972 l 364 621 l 656 621 l 656 972 "},"I":{"ha":460,"x_min":0,"x_max":0,"o":"m 94 972 l 365 972 l 365 0 l 94 0 "},"Ĳ":{"ha":794,"x_min":0,"x_max":0,"o":"m 398 738 b 277 868 325 738 277 790 b 398 998 277 946 325 998 b 518 868 470 998 518 946 b 398 738 518 790 470 738 m 398 918 b 347 868 367 918 347 898 b 398 819 347 839 367 819 b 448 868 428 819 448 839 b 398 918 448 898 428 918 m 284 694 l 511 728 l 511 652 l 396 639 l 511 586 l 511 560 l 397 507 l 511 494 l 511 418 l 284 452 l 284 526 l 393 573 l 284 620 m 450 400 l 511 400 l 511 243 l 284 243 l 284 399 l 345 399 l 345 318 l 370 318 l 370 390 l 426 390 l 426 318 l 450 318 m 398 218 b 511 98 464 218 511 169 l 511 0 l 284 0 l 284 98 b 398 218 284 169 330 218 m 398 140 b 352 92 370 140 352 122 l 352 76 l 443 76 l 443 92 b 398 140 443 122 426 140 "},"Í":{"ha":460,"x_min":0,"x_max":0,"o":"m 438 1225 b 510 1158 481 1225 510 1198 b 438 1091 510 1118 481 1091 b 365 1158 394 1091 365 1118 b 438 1225 365 1198 394 1225 m 8 1221 b 75 1158 48 1221 75 1196 b 8 1095 75 1121 48 1095 l -47 1095 l -47 1221 l 8 1221 m 177 1095 l 89 1095 l 89 1221 l 176 1221 l 176 1187 l 131 1187 l 131 1174 l 171 1174 l 171 1142 l 131 1142 l 131 1129 l 177 1129 m 229 1095 l 187 1095 l 205 1221 l 247 1221 l 273 1160 l 299 1221 l 341 1221 l 359 1095 l 317 1095 l 310 1159 l 280 1095 l 266 1095 l 236 1159 m 438 1130 b 465 1158 454 1130 465 1141 b 438 1186 465 1175 454 1186 b 410 1158 421 1186 410 1175 b 438 1130 410 1141 421 1130 m 5 1133 b 32 1158 21 1133 32 1142 b 5 1183 32 1174 21 1183 l -4 1183 l -4 1133 l 5 1133 m 94 972 l 365 972 l 365 0 l 94 0 "},"Ĭ":{"ha":460,"x_min":0,"x_max":0,"o":"m 435 1225 b 507 1158 478 1225 507 1198 b 435 1091 507 1118 478 1091 b 362 1158 391 1091 362 1118 b 435 1225 362 1198 391 1225 m 5 1221 b 72 1158 45 1221 72 1196 b 5 1095 72 1121 45 1095 l -49 1095 l -49 1221 l 5 1221 m 174 1095 l 86 1095 l 86 1221 l 173 1221 l 173 1187 l 128 1187 l 128 1174 l 168 1174 l 168 1142 l 128 1142 l 128 1129 l 174 1129 m 226 1095 l 184 1095 l 202 1221 l 244 1221 l 270 1160 l 296 1221 l 338 1221 l 356 1095 l 314 1095 l 307 1159 l 277 1095 l 263 1095 l 233 1159 m 435 1130 b 462 1158 451 1130 462 1141 b 435 1186 462 1175 451 1186 b 407 1158 418 1186 407 1175 b 435 1130 407 1141 418 1130 m 2 1133 b 29 1158 18 1133 29 1142 b 2 1183 29 1174 18 1183 l -7 1183 l -7 1133 l 2 1133 m 94 972 l 365 972 l 365 0 l 94 0 "},"Î":{"ha":460,"x_min":0,"x_max":0,"o":"m 443 1225 b 516 1158 487 1225 516 1198 b 443 1091 516 1118 487 1091 b 371 1158 400 1091 371 1118 b 443 1225 371 1198 400 1225 m 13 1221 b 80 1158 53 1221 80 1196 b 13 1095 80 1121 53 1095 l -41 1095 l -41 1221 l 13 1221 m 182 1095 l 94 1095 l 94 1221 l 181 1221 l 181 1187 l 136 1187 l 136 1174 l 177 1174 l 177 1142 l 136 1142 l 136 1129 l 182 1129 m 234 1095 l 192 1095 l 211 1221 l 252 1221 l 278 1160 l 304 1221 l 346 1221 l 365 1095 l 323 1095 l 315 1159 l 286 1095 l 271 1095 l 242 1159 m 443 1130 b 471 1158 460 1130 471 1141 b 443 1186 471 1175 460 1186 b 416 1158 427 1186 416 1175 b 443 1130 416 1141 427 1130 m 10 1133 b 37 1158 27 1133 37 1142 b 10 1183 37 1174 27 1183 l 1 1183 l 1 1133 l 10 1133 m 94 972 l 365 972 l 365 0 l 94 0 "},"Ï":{"ha":460,"x_min":0,"x_max":0,"o":"m 443 1225 b 515 1158 486 1225 515 1198 b 443 1091 515 1118 486 1091 b 370 1158 399 1091 370 1118 b 443 1225 370 1198 399 1225 m 13 1221 b 80 1158 53 1221 80 1196 b 13 1095 80 1121 53 1095 l -42 1095 l -42 1221 l 13 1221 m 182 1095 l 94 1095 l 94 1221 l 181 1221 l 181 1187 l 136 1187 l 136 1174 l 176 1174 l 176 1142 l 136 1142 l 136 1129 l 182 1129 m 234 1095 l 192 1095 l 210 1221 l 252 1221 l 278 1160 l 304 1221 l 346 1221 l 364 1095 l 322 1095 l 315 1159 l 285 1095 l 271 1095 l 241 1159 m 443 1130 b 470 1158 459 1130 470 1141 b 443 1186 470 1175 459 1186 b 415 1158 426 1186 415 1175 b 443 1130 415 1141 426 1130 m 10 1133 b 37 1158 26 1133 37 1142 b 10 1183 37 1174 26 1183 l 1 1183 l 1 1133 l 10 1133 m 94 972 l 365 972 l 365 0 l 94 0 "},"İ":{"ha":460,"x_min":0,"x_max":0,"o":"m 444 1225 b 516 1158 487 1225 516 1198 b 444 1091 516 1118 487 1091 b 371 1158 400 1091 371 1118 b 444 1225 371 1198 400 1225 m 14 1221 b 81 1158 54 1221 81 1196 b 14 1095 81 1121 54 1095 l -41 1095 l -41 1221 l 14 1221 m 137 1129 l 183 1129 l 183 1095 l 95 1095 l 95 1221 l 182 1221 l 182 1187 l 137 1187 l 137 1174 l 177 1174 l 177 1142 l 137 1142 m 347 1221 l 365 1095 l 323 1095 l 316 1159 l 286 1095 l 272 1095 l 242 1159 l 235 1095 l 193 1095 l 211 1221 l 253 1221 l 279 1160 l 305 1221 m 444 1130 b 471 1158 460 1130 471 1141 b 444 1186 471 1175 460 1186 b 416 1158 427 1186 416 1175 b 444 1130 416 1141 427 1130 m 11 1133 b 38 1158 27 1133 38 1142 b 11 1183 38 1174 27 1183 l 2 1183 l 2 1133 l 11 1133 m 94 972 l 365 972 l 365 0 l 94 0 "},"Ì":{"ha":460,"x_min":0,"x_max":0,"o":"m 444 1225 b 517 1158 488 1225 517 1198 b 444 1091 517 1118 488 1091 b 372 1158 401 1091 372 1118 b 444 1225 372 1198 401 1225 m 15 1221 b 82 1158 54 1221 82 1196 b 15 1095 82 1121 54 1095 l -40 1095 l -40 1221 l 15 1221 m 183 1095 l 96 1095 l 96 1221 l 183 1221 l 183 1187 l 137 1187 l 137 1174 l 178 1174 l 178 1142 l 137 1142 l 137 1129 l 183 1129 m 347 1221 l 366 1095 l 324 1095 l 316 1159 l 287 1095 l 272 1095 l 243 1159 l 236 1095 l 193 1095 l 212 1221 l 254 1221 l 280 1160 l 306 1221 m 444 1130 b 472 1158 461 1130 472 1141 b 444 1186 472 1175 461 1186 b 417 1158 428 1186 417 1175 b 444 1130 417 1141 428 1130 m 12 1133 b 38 1158 28 1133 38 1142 b 12 1183 38 1174 28 1183 l 3 1183 l 3 1133 l 12 1133 m 94 972 l 365 972 l 365 0 l 94 0 "},"Ī":{"ha":460,"x_min":0,"x_max":0,"o":"m 442 1225 b 515 1158 486 1225 515 1198 b 442 1091 515 1118 486 1091 b 370 1158 399 1091 370 1118 b 442 1225 370 1198 399 1225 m 12 1221 b 80 1158 52 1221 80 1196 b 12 1095 80 1121 52 1095 l -42 1095 l -42 1221 l 12 1221 m 181 1095 l 94 1095 l 94 1221 l 180 1221 l 180 1187 l 135 1187 l 135 1174 l 176 1174 l 176 1142 l 135 1142 l 135 1129 l 181 1129 m 234 1095 l 191 1095 l 210 1221 l 252 1221 l 278 1160 l 304 1221 l 345 1221 l 364 1095 l 322 1095 l 314 1159 l 285 1095 l 270 1095 l 241 1159 m 442 1130 b 470 1158 459 1130 470 1141 b 442 1186 470 1175 459 1186 b 415 1158 426 1186 415 1175 b 442 1130 415 1141 426 1130 m 10 1133 b 36 1158 26 1133 36 1142 b 10 1183 36 1174 26 1183 l 0 1183 l 0 1133 l 10 1133 m 94 972 l 365 972 l 365 0 l 94 0 "},"Į":{"ha":460,"x_min":0,"x_max":0,"o":"m 444 1225 b 516 1158 487 1225 516 1198 b 444 1091 516 1118 487 1091 b 371 1158 400 1091 371 1118 b 444 1225 371 1198 400 1225 m 14 1221 b 81 1158 54 1221 81 1196 b 14 1095 81 1121 54 1095 l -41 1095 l -41 1221 l 14 1221 m 137 1129 l 183 1129 l 183 1095 l 95 1095 l 95 1221 l 182 1221 l 182 1187 l 137 1187 l 137 1174 l 177 1174 l 177 1142 l 137 1142 m 347 1221 l 365 1095 l 323 1095 l 316 1159 l 286 1095 l 272 1095 l 242 1159 l 235 1095 l 193 1095 l 211 1221 l 253 1221 l 279 1160 l 305 1221 m 444 1130 b 471 1158 460 1130 471 1141 b 444 1186 471 1175 460 1186 b 416 1158 427 1186 416 1175 b 444 1130 416 1141 427 1130 m 11 1133 b 38 1158 27 1133 38 1142 b 11 1183 38 1174 27 1183 l 2 1183 l 2 1133 l 11 1133 m 94 972 l 365 972 l 365 0 l 94 0 "},"Ĩ":{"ha":460,"x_min":0,"x_max":0,"o":"m 443 1225 b 516 1158 487 1225 516 1198 b 443 1091 516 1118 487 1091 b 371 1158 400 1091 371 1118 b 443 1225 371 1198 400 1225 m 13 1221 b 80 1158 53 1221 80 1196 b 13 1095 80 1121 53 1095 l -41 1095 l -41 1221 l 13 1221 m 182 1095 l 94 1095 l 94 1221 l 181 1221 l 181 1187 l 136 1187 l 136 1174 l 177 1174 l 177 1142 l 136 1142 l 136 1129 l 182 1129 m 234 1095 l 192 1095 l 211 1221 l 252 1221 l 278 1160 l 304 1221 l 346 1221 l 365 1095 l 323 1095 l 315 1159 l 286 1095 l 271 1095 l 242 1159 m 443 1130 b 471 1158 460 1130 471 1141 b 443 1186 471 1175 460 1186 b 416 1158 427 1186 416 1175 b 443 1130 416 1141 427 1130 m 10 1133 b 37 1158 27 1133 37 1142 b 10 1183 37 1174 27 1183 l 1 1183 l 1 1133 l 10 1133 m 94 972 l 365 972 l 365 0 l 94 0 "},"J":{"ha":864,"x_min":0,"x_max":0,"o":"m 402 -25 b 22 333 178 -25 22 122 l 22 372 l 291 372 l 291 347 b 402 225 291 273 335 225 b 509 347 465 225 509 272 l 509 972 l 779 972 l 779 333 b 402 -25 779 123 627 -25 "},"Ĵ":{"ha":864,"x_min":0,"x_max":0,"o":"m 853 1225 b 925 1158 896 1225 925 1198 b 853 1091 925 1118 896 1091 b 780 1158 809 1091 780 1118 b 853 1225 780 1198 809 1225 m 490 1158 b 423 1095 490 1121 463 1095 l 368 1095 l 368 1221 l 423 1221 b 490 1158 463 1221 490 1196 m 592 1095 l 504 1095 l 504 1221 l 591 1221 l 591 1187 l 546 1187 l 546 1174 l 586 1174 l 586 1142 l 546 1142 l 546 1129 l 592 1129 m 644 1095 l 602 1095 l 620 1221 l 662 1221 l 688 1160 l 714 1221 l 756 1221 l 774 1095 l 732 1095 l 725 1159 l 695 1095 l 681 1095 l 651 1159 m 853 1130 b 880 1158 869 1130 880 1141 b 853 1186 880 1175 869 1186 b 825 1158 836 1186 825 1175 b 853 1130 825 1141 836 1130 m 420 1133 b 447 1158 436 1133 447 1142 b 420 1183 447 1174 436 1183 l 411 1183 l 411 1133 m 509 972 l 779 972 l 779 333 b 402 -25 779 123 627 -25 b 22 333 178 -25 22 122 l 22 372 l 291 372 l 291 347 b 402 225 291 273 335 225 b 509 347 465 225 509 272 "},"K":{"ha":940,"x_min":0,"x_max":0,"o":"m 641 0 l 362 430 l 362 0 l 94 0 l 94 972 l 362 972 l 362 562 l 619 972 l 929 972 l 618 501 l 958 0 "},"L":{"ha":738,"x_min":0,"x_max":0,"o":"m 711 245 l 711 0 l 94 0 l 94 972 l 365 972 l 365 245 "},"Ĺ":{"ha":738,"x_min":0,"x_max":0,"o":"m 446 1091 b 373 1158 402 1091 373 1118 b 446 1225 373 1198 402 1225 b 518 1158 489 1225 518 1198 b 446 1091 518 1118 489 1091 m 16 1221 b 83 1158 56 1221 83 1196 b 16 1095 83 1121 56 1095 l -38 1095 l -38 1221 l 16 1221 m 185 1095 l 97 1095 l 97 1221 l 184 1221 l 184 1187 l 139 1187 l 139 1174 l 179 1174 l 179 1142 l 139 1142 l 139 1129 l 185 1129 m 237 1095 l 195 1095 l 213 1221 l 255 1221 l 281 1160 l 307 1221 l 349 1221 l 367 1095 l 325 1095 l 318 1159 l 288 1095 l 274 1095 l 244 1159 m 446 1186 b 418 1158 429 1186 418 1175 b 446 1130 418 1141 429 1130 b 473 1158 462 1130 473 1141 b 446 1186 473 1175 462 1186 m 13 1133 b 40 1158 30 1133 40 1142 b 13 1183 40 1174 30 1183 l 4 1183 l 4 1133 l 13 1133 m 711 245 l 711 0 l 94 0 l 94 972 l 365 972 l 365 245 "},"Ľ":{"ha":738,"x_min":0,"x_max":0,"o":"m 446 1091 b 373 1158 402 1091 373 1118 b 446 1225 373 1198 402 1225 b 518 1158 489 1225 518 1198 b 446 1091 518 1118 489 1091 m 16 1221 b 83 1158 56 1221 83 1196 b 16 1095 83 1121 56 1095 l -38 1095 l -38 1221 l 16 1221 m 185 1095 l 97 1095 l 97 1221 l 184 1221 l 184 1187 l 139 1187 l 139 1174 l 179 1174 l 179 1142 l 139 1142 l 139 1129 l 185 1129 m 237 1095 l 195 1095 l 213 1221 l 255 1221 l 281 1160 l 307 1221 l 349 1221 l 367 1095 l 325 1095 l 318 1159 l 288 1095 l 274 1095 l 244 1159 m 446 1186 b 418 1158 429 1186 418 1175 b 446 1130 418 1141 429 1130 b 473 1158 462 1130 473 1141 b 446 1186 473 1175 462 1186 m 13 1133 b 40 1158 30 1133 40 1142 b 13 1183 40 1174 30 1183 l 4 1183 l 4 1133 l 13 1133 m 711 245 l 711 0 l 94 0 l 94 972 l 365 972 l 365 245 "},"Ŀ":{"ha":738,"x_min":0,"x_max":0,"o":"m 446 1091 b 373 1158 402 1091 373 1118 b 446 1225 373 1198 402 1225 b 518 1158 489 1225 518 1198 b 446 1091 518 1118 489 1091 m 16 1221 b 83 1158 56 1221 83 1196 b 16 1095 83 1121 56 1095 l -38 1095 l -38 1221 l 16 1221 m 185 1095 l 97 1095 l 97 1221 l 184 1221 l 184 1187 l 139 1187 l 139 1174 l 179 1174 l 179 1142 l 139 1142 l 139 1129 l 185 1129 m 237 1095 l 195 1095 l 213 1221 l 255 1221 l 281 1160 l 307 1221 l 349 1221 l 367 1095 l 325 1095 l 318 1159 l 288 1095 l 274 1095 l 244 1159 m 446 1186 b 418 1158 429 1186 418 1175 b 446 1130 418 1141 429 1130 b 473 1158 462 1130 473 1141 b 446 1186 473 1175 462 1186 m 13 1133 b 40 1158 30 1133 40 1142 b 13 1183 40 1174 30 1183 l 4 1183 l 4 1133 l 13 1133 m 711 245 l 711 0 l 94 0 l 94 972 l 365 972 l 365 245 "},"Ł":{"ha":738,"x_min":0,"x_max":0,"o":"m 446 1091 b 373 1158 402 1091 373 1118 b 446 1225 373 1198 402 1225 b 518 1158 489 1225 518 1198 b 446 1091 518 1118 489 1091 m 16 1221 b 83 1158 56 1221 83 1196 b 16 1095 83 1121 56 1095 l -38 1095 l -38 1221 l 16 1221 m 185 1095 l 97 1095 l 97 1221 l 184 1221 l 184 1187 l 139 1187 l 139 1174 l 179 1174 l 179 1142 l 139 1142 l 139 1129 l 185 1129 m 237 1095 l 195 1095 l 213 1221 l 255 1221 l 281 1160 l 307 1221 l 349 1221 l 367 1095 l 325 1095 l 318 1159 l 288 1095 l 274 1095 l 244 1159 m 446 1186 b 418 1158 429 1186 418 1175 b 446 1130 418 1141 429 1130 b 473 1158 462 1130 473 1141 b 446 1186 473 1175 462 1186 m 13 1133 b 40 1158 30 1133 40 1142 b 13 1183 40 1174 30 1183 l 4 1183 l 4 1133 l 13 1133 m 711 245 l 711 0 l 94 0 l 94 972 l 365 972 l 365 245 "},"M":{"ha":1364,"x_min":0,"x_max":0,"o":"m 1055 0 l 980 560 l 722 -2 l 643 -2 l 385 560 l 310 0 l 39 0 l 186 972 l 453 972 l 682 443 l 912 972 l 1180 972 l 1326 0 "},"N":{"ha":1056,"x_min":0,"x_max":0,"o":"m 961 972 l 961 0 l 740 0 l 354 528 l 354 0 l 94 0 l 94 972 l 328 972 l 702 462 l 702 972 "},"Ń":{"ha":1056,"x_min":0,"x_max":0,"o":"m 744 1091 b 672 1158 701 1091 672 1118 b 744 1225 672 1198 701 1225 b 817 1158 788 1225 817 1198 b 744 1091 817 1118 788 1091 m 381 1158 b 314 1095 381 1121 354 1095 l 260 1095 l 260 1221 l 314 1221 b 381 1158 354 1221 381 1196 m 483 1095 l 395 1095 l 395 1221 l 482 1221 l 482 1187 l 437 1187 l 437 1174 l 478 1174 l 478 1142 l 437 1142 l 437 1129 l 483 1129 m 536 1095 l 493 1095 l 512 1221 l 553 1221 l 579 1160 l 606 1221 l 647 1221 l 666 1095 l 624 1095 l 616 1159 l 587 1095 l 572 1095 l 543 1159 m 744 1186 b 717 1158 728 1186 717 1175 b 744 1130 717 1141 728 1130 b 772 1158 761 1130 772 1141 b 744 1186 772 1175 761 1186 m 311 1133 b 338 1158 328 1133 338 1142 b 311 1183 338 1174 328 1183 l 302 1183 l 302 1133 m 961 972 l 961 0 l 740 0 l 354 528 l 354 0 l 94 0 l 94 972 l 328 972 l 702 462 l 702 972 "},"Ň":{"ha":1056,"x_min":0,"x_max":0,"o":"m 736 1091 b 663 1158 692 1091 663 1118 b 736 1225 663 1198 692 1225 b 808 1158 779 1225 808 1198 b 736 1091 808 1118 779 1091 m 373 1158 b 306 1095 373 1121 346 1095 l 251 1095 l 251 1221 l 306 1221 b 373 1158 346 1221 373 1196 m 475 1095 l 387 1095 l 387 1221 l 474 1221 l 474 1187 l 429 1187 l 429 1174 l 469 1174 l 469 1142 l 429 1142 l 429 1129 l 475 1129 m 527 1095 l 485 1095 l 503 1221 l 545 1221 l 571 1160 l 597 1221 l 639 1221 l 657 1095 l 615 1095 l 608 1159 l 578 1095 l 564 1095 l 534 1159 m 736 1186 b 708 1158 719 1186 708 1175 b 736 1130 708 1141 719 1130 b 763 1158 752 1130 763 1141 b 736 1186 763 1175 752 1186 m 303 1133 b 330 1158 319 1133 330 1142 b 303 1183 330 1174 319 1183 l 294 1183 l 294 1133 m 961 972 l 961 0 l 740 0 l 354 528 l 354 0 l 94 0 l 94 972 l 328 972 l 702 462 l 702 972 "},"Ŋ":{"ha":1056,"x_min":0,"x_max":0,"o":"m 736 1091 b 663 1158 692 1091 663 1118 b 736 1225 663 1198 692 1225 b 808 1158 779 1225 808 1198 b 736 1091 808 1118 779 1091 m 373 1158 b 306 1095 373 1121 346 1095 l 251 1095 l 251 1221 l 306 1221 b 373 1158 346 1221 373 1196 m 475 1095 l 387 1095 l 387 1221 l 474 1221 l 474 1187 l 429 1187 l 429 1174 l 469 1174 l 469 1142 l 429 1142 l 429 1129 l 475 1129 m 527 1095 l 485 1095 l 503 1221 l 545 1221 l 571 1160 l 597 1221 l 639 1221 l 657 1095 l 615 1095 l 608 1159 l 578 1095 l 564 1095 l 534 1159 m 736 1186 b 708 1158 719 1186 708 1175 b 736 1130 708 1141 719 1130 b 763 1158 752 1130 763 1141 b 736 1186 763 1175 752 1186 m 303 1133 b 330 1158 319 1133 330 1142 b 303 1183 330 1174 319 1183 l 294 1183 l 294 1133 m 961 972 l 961 0 l 740 0 l 354 528 l 354 0 l 94 0 l 94 972 l 328 972 l 702 462 l 702 972 "},"Ñ":{"ha":1056,"x_min":0,"x_max":0,"o":"m 743 1091 b 671 1158 700 1091 671 1118 b 743 1225 671 1198 700 1225 b 816 1158 787 1225 816 1198 b 743 1091 816 1118 787 1091 m 380 1158 b 313 1095 380 1121 353 1095 l 259 1095 l 259 1221 l 313 1221 b 380 1158 353 1221 380 1196 m 482 1095 l 395 1095 l 395 1221 l 481 1221 l 481 1187 l 436 1187 l 436 1174 l 477 1174 l 477 1142 l 436 1142 l 436 1129 l 482 1129 m 535 1095 l 492 1095 l 511 1221 l 553 1221 l 579 1160 l 605 1221 l 646 1221 l 665 1095 l 623 1095 l 615 1159 l 586 1095 l 571 1095 l 542 1159 m 743 1186 b 716 1158 727 1186 716 1175 b 743 1130 716 1141 727 1130 b 771 1158 760 1130 771 1141 b 743 1186 771 1175 760 1186 m 311 1133 b 337 1158 327 1133 337 1142 b 311 1183 337 1174 327 1183 l 301 1183 l 301 1133 m 961 972 l 961 0 l 740 0 l 354 528 l 354 0 l 94 0 l 94 972 l 328 972 l 702 462 l 702 972 "},"O":{"ha":1156,"x_min":0,"x_max":0,"o":"m 579 -25 b 43 486 266 -25 43 189 b 579 997 43 783 266 997 b 1113 486 890 997 1113 784 b 579 -25 1113 188 890 -25 m 579 225 b 834 486 727 225 834 334 b 579 748 834 638 727 748 b 322 486 431 748 322 637 b 579 225 322 335 431 225 "},"Ó":{"ha":1156,"x_min":0,"x_max":0,"o":"m 792 1225 b 865 1158 836 1225 865 1198 b 792 1091 865 1118 836 1091 b 720 1158 749 1091 720 1118 b 792 1225 720 1198 749 1225 m 363 1221 b 430 1158 402 1221 430 1196 b 363 1095 430 1121 402 1095 l 308 1095 l 308 1221 l 363 1221 m 485 1129 l 531 1129 l 531 1095 l 444 1095 l 444 1221 l 531 1221 l 531 1187 l 485 1187 l 485 1174 l 526 1174 l 526 1142 l 485 1142 m 695 1221 l 714 1095 l 672 1095 l 664 1159 l 635 1095 l 620 1095 l 591 1159 l 584 1095 l 541 1095 l 560 1221 l 602 1221 l 628 1160 l 654 1221 m 792 1130 b 820 1158 809 1130 820 1141 b 792 1186 820 1175 809 1186 b 765 1158 776 1186 765 1175 b 792 1130 765 1141 776 1130 m 360 1133 b 386 1158 376 1133 386 1142 b 360 1183 386 1174 376 1183 l 351 1183 l 351 1133 l 360 1133 m 579 -25 b 43 486 266 -25 43 189 b 579 997 43 783 266 997 b 1113 486 890 997 1113 784 b 579 -25 1113 188 890 -25 m 579 225 b 834 486 727 225 834 334 b 579 748 834 638 727 748 b 322 486 431 748 322 637 b 579 225 322 335 431 225 "},"Ŏ":{"ha":1156,"x_min":0,"x_max":0,"o":"m 792 1225 b 865 1158 836 1225 865 1198 b 792 1091 865 1118 836 1091 b 720 1158 749 1091 720 1118 b 792 1225 720 1198 749 1225 m 362 1221 b 429 1158 402 1221 429 1196 b 362 1095 429 1121 402 1095 l 308 1095 l 308 1221 l 362 1221 m 485 1129 l 531 1129 l 531 1095 l 443 1095 l 443 1221 l 530 1221 l 530 1187 l 485 1187 l 485 1174 l 526 1174 l 526 1142 l 485 1142 m 695 1221 l 714 1095 l 672 1095 l 664 1159 l 635 1095 l 620 1095 l 591 1159 l 584 1095 l 541 1095 l 560 1221 l 601 1221 l 627 1160 l 653 1221 m 792 1130 b 820 1158 809 1130 820 1141 b 792 1186 820 1175 809 1186 b 765 1158 776 1186 765 1175 b 792 1130 765 1141 776 1130 m 359 1133 b 386 1158 376 1133 386 1142 b 359 1183 386 1174 376 1183 l 350 1183 l 350 1133 l 359 1133 m 579 -25 b 43 486 266 -25 43 189 b 579 997 43 783 266 997 b 1113 486 890 997 1113 784 b 579 -25 1113 188 890 -25 m 579 225 b 834 486 727 225 834 334 b 579 748 834 638 727 748 b 322 486 431 748 322 637 b 579 225 322 335 431 225 "},"Ô":{"ha":1156,"x_min":0,"x_max":0,"o":"m 792 1225 b 865 1158 836 1225 865 1198 b 792 1091 865 1118 836 1091 b 720 1158 749 1091 720 1118 b 792 1225 720 1198 749 1225 m 362 1221 b 429 1158 402 1221 429 1196 b 362 1095 429 1121 402 1095 l 308 1095 l 308 1221 l 362 1221 m 485 1129 l 531 1129 l 531 1095 l 443 1095 l 443 1221 l 530 1221 l 530 1187 l 485 1187 l 485 1174 l 526 1174 l 526 1142 l 485 1142 m 695 1221 l 714 1095 l 672 1095 l 664 1159 l 635 1095 l 620 1095 l 591 1159 l 584 1095 l 541 1095 l 560 1221 l 601 1221 l 627 1160 l 653 1221 m 792 1130 b 820 1158 809 1130 820 1141 b 792 1186 820 1175 809 1186 b 765 1158 776 1186 765 1175 b 792 1130 765 1141 776 1130 m 359 1133 b 386 1158 376 1133 386 1142 b 359 1183 386 1174 376 1183 l 350 1183 l 350 1133 l 359 1133 m 579 -25 b 43 486 266 -25 43 189 b 579 997 43 783 266 997 b 1113 486 890 997 1113 784 b 579 -25 1113 188 890 -25 m 579 225 b 834 486 727 225 834 334 b 579 748 834 638 727 748 b 322 486 431 748 322 637 b 579 225 322 335 431 225 "},"Ö":{"ha":1156,"x_min":0,"x_max":0,"o":"m 785 1091 b 713 1158 742 1091 713 1118 b 785 1225 713 1198 742 1225 b 858 1158 829 1225 858 1198 b 785 1091 858 1118 829 1091 m 422 1158 b 355 1095 422 1121 395 1095 l 301 1095 l 301 1221 l 355 1221 b 422 1158 395 1221 422 1196 m 524 1095 l 437 1095 l 437 1221 l 523 1221 l 523 1187 l 478 1187 l 478 1174 l 519 1174 l 519 1142 l 478 1142 l 478 1129 l 524 1129 m 577 1095 l 534 1095 l 553 1221 l 595 1221 l 621 1160 l 647 1221 l 688 1221 l 707 1095 l 665 1095 l 657 1159 l 628 1095 l 613 1095 l 584 1159 m 785 1186 b 758 1158 769 1186 758 1175 b 785 1130 758 1141 769 1130 b 813 1158 802 1130 813 1141 b 785 1186 813 1175 802 1186 m 353 1133 b 379 1158 369 1133 379 1142 b 353 1183 379 1174 369 1183 l 343 1183 l 343 1133 m 579 997 b 1113 486 890 997 1113 784 b 579 -25 1113 188 890 -25 b 43 486 266 -25 43 189 b 579 997 43 783 266 997 m 579 225 b 834 486 727 225 834 334 b 579 748 834 638 727 748 b 322 486 431 748 322 637 b 579 225 322 335 431 225 "},"Ò":{"ha":1156,"x_min":0,"x_max":0,"o":"m 790 1225 b 863 1158 834 1225 863 1198 b 790 1091 863 1118 834 1091 b 718 1158 747 1091 718 1118 b 790 1225 718 1198 747 1225 m 361 1221 b 428 1158 400 1221 428 1196 b 361 1095 428 1121 400 1095 l 306 1095 l 306 1221 l 361 1221 m 483 1129 l 529 1129 l 529 1095 l 442 1095 l 442 1221 l 529 1221 l 529 1187 l 483 1187 l 483 1174 l 524 1174 l 524 1142 l 483 1142 m 693 1221 l 712 1095 l 670 1095 l 662 1159 l 633 1095 l 618 1095 l 589 1159 l 582 1095 l 539 1095 l 558 1221 l 600 1221 l 626 1160 l 652 1221 m 790 1130 b 818 1158 807 1130 818 1141 b 790 1186 818 1175 807 1186 b 763 1158 774 1186 763 1175 b 790 1130 763 1141 774 1130 m 358 1133 b 384 1158 374 1133 384 1142 b 358 1183 384 1174 374 1183 l 349 1183 l 349 1133 l 358 1133 m 579 -25 b 43 486 266 -25 43 189 b 579 997 43 783 266 997 b 1113 486 890 997 1113 784 b 579 -25 1113 188 890 -25 m 579 225 b 834 486 727 225 834 334 b 579 748 834 638 727 748 b 322 486 431 748 322 637 b 579 225 322 335 431 225 "},"Ő":{"ha":1156,"x_min":0,"x_max":0,"o":"m 790 1225 b 863 1158 834 1225 863 1198 b 790 1091 863 1118 834 1091 b 718 1158 747 1091 718 1118 b 790 1225 718 1198 747 1225 m 361 1221 b 428 1158 400 1221 428 1196 b 361 1095 428 1121 400 1095 l 306 1095 l 306 1221 l 361 1221 m 483 1129 l 529 1129 l 529 1095 l 442 1095 l 442 1221 l 529 1221 l 529 1187 l 483 1187 l 483 1174 l 524 1174 l 524 1142 l 483 1142 m 693 1221 l 712 1095 l 670 1095 l 662 1159 l 633 1095 l 618 1095 l 589 1159 l 582 1095 l 539 1095 l 558 1221 l 600 1221 l 626 1160 l 652 1221 m 790 1130 b 818 1158 807 1130 818 1141 b 790 1186 818 1175 807 1186 b 763 1158 774 1186 763 1175 b 790 1130 763 1141 774 1130 m 358 1133 b 384 1158 374 1133 384 1142 b 358 1183 384 1174 374 1183 l 349 1183 l 349 1133 l 358 1133 m 579 -25 b 43 486 266 -25 43 189 b 579 997 43 783 266 997 b 1113 486 890 997 1113 784 b 579 -25 1113 188 890 -25 m 579 225 b 834 486 727 225 834 334 b 579 748 834 638 727 748 b 322 486 431 748 322 637 b 579 225 322 335 431 225 "},"Ō":{"ha":1156,"x_min":0,"x_max":0,"o":"m 791 1225 b 864 1158 835 1225 864 1198 b 791 1091 864 1118 835 1091 b 719 1158 748 1091 719 1118 b 791 1225 719 1198 748 1225 m 361 1221 b 428 1158 401 1221 428 1196 b 361 1095 428 1121 401 1095 l 307 1095 l 307 1221 l 361 1221 m 484 1129 l 530 1129 l 530 1095 l 442 1095 l 442 1221 l 529 1221 l 529 1187 l 484 1187 l 484 1174 l 524 1174 l 524 1142 l 484 1142 m 694 1221 l 713 1095 l 671 1095 l 663 1159 l 634 1095 l 619 1095 l 590 1159 l 582 1095 l 540 1095 l 559 1221 l 600 1221 l 626 1160 l 652 1221 m 791 1130 b 819 1158 808 1130 819 1141 b 791 1186 819 1175 808 1186 b 763 1158 775 1186 763 1175 b 791 1130 763 1141 775 1130 m 358 1133 b 385 1158 375 1133 385 1142 b 358 1183 385 1174 375 1183 l 349 1183 l 349 1133 l 358 1133 m 579 -25 b 43 486 266 -25 43 189 b 579 997 43 783 266 997 b 1113 486 890 997 1113 784 b 579 -25 1113 188 890 -25 m 579 225 b 834 486 727 225 834 334 b 579 748 834 638 727 748 b 322 486 431 748 322 637 b 579 225 322 335 431 225 "},"Ø":{"ha":1156,"x_min":0,"x_max":0,"o":"m 790 1225 b 863 1158 834 1225 863 1198 b 790 1091 863 1118 834 1091 b 718 1158 747 1091 718 1118 b 790 1225 718 1198 747 1225 m 361 1221 b 428 1158 400 1221 428 1196 b 361 1095 428 1121 400 1095 l 306 1095 l 306 1221 l 361 1221 m 483 1129 l 529 1129 l 529 1095 l 442 1095 l 442 1221 l 529 1221 l 529 1187 l 483 1187 l 483 1174 l 524 1174 l 524 1142 l 483 1142 m 693 1221 l 712 1095 l 670 1095 l 662 1159 l 633 1095 l 618 1095 l 589 1159 l 582 1095 l 539 1095 l 558 1221 l 600 1221 l 626 1160 l 652 1221 m 790 1130 b 818 1158 807 1130 818 1141 b 790 1186 818 1175 807 1186 b 763 1158 774 1186 763 1175 b 790 1130 763 1141 774 1130 m 358 1133 b 384 1158 374 1133 384 1142 b 358 1183 384 1174 374 1183 l 349 1183 l 349 1133 l 358 1133 m 579 -25 b 43 486 266 -25 43 189 b 579 997 43 783 266 997 b 1113 486 890 997 1113 784 b 579 -25 1113 188 890 -25 m 579 225 b 834 486 727 225 834 334 b 579 748 834 638 727 748 b 322 486 431 748 322 637 b 579 225 322 335 431 225 "},"Ǿ":{"ha":1156,"x_min":0,"x_max":0,"o":"m 790 1091 b 718 1158 747 1091 718 1118 b 790 1225 718 1198 747 1225 b 793 1225 791 1225 792 1225 b 795 1225 794 1225 795 1225 b 868 1158 839 1225 868 1198 b 795 1091 868 1118 839 1091 b 793 1091 795 1091 794 1091 b 790 1091 792 1091 791 1091 m 306 1221 l 366 1221 b 433 1158 405 1221 433 1196 b 366 1095 433 1121 405 1095 l 306 1095 m 442 1221 l 534 1221 l 534 1187 l 488 1187 l 488 1174 l 529 1174 l 529 1142 l 488 1142 l 488 1129 l 534 1129 l 534 1095 l 442 1095 m 558 1221 l 605 1221 l 628 1166 l 652 1221 l 698 1221 l 717 1095 l 670 1095 l 663 1150 l 638 1095 l 618 1095 l 593 1150 l 587 1095 l 539 1095 m 818 1158 b 793 1186 818 1174 808 1185 b 768 1158 778 1185 768 1174 b 793 1130 768 1142 778 1131 b 818 1158 808 1131 818 1142 m 354 1183 l 354 1133 l 358 1133 b 384 1158 374 1133 384 1142 b 358 1183 384 1174 374 1183 m 579 997 b 1113 486 890 997 1113 784 b 579 -25 1113 188 890 -25 b 43 486 266 -25 43 189 b 579 997 43 783 266 997 m 579 225 b 834 486 727 225 834 334 b 579 748 834 638 727 748 b 322 486 431 748 322 637 b 579 225 322 335 431 225 "},"Õ":{"ha":1156,"x_min":0,"x_max":0,"o":"m 792 1225 b 864 1158 835 1225 864 1198 b 792 1091 864 1118 835 1091 b 719 1158 748 1091 719 1118 b 792 1225 719 1198 748 1225 m 362 1221 b 429 1158 402 1221 429 1196 b 362 1095 429 1121 402 1095 l 307 1095 l 307 1221 l 362 1221 m 485 1129 l 531 1129 l 531 1095 l 443 1095 l 443 1221 l 530 1221 l 530 1187 l 485 1187 l 485 1174 l 525 1174 l 525 1142 l 485 1142 m 695 1221 l 713 1095 l 671 1095 l 664 1159 l 634 1095 l 620 1095 l 590 1159 l 583 1095 l 541 1095 l 559 1221 l 601 1221 l 627 1160 l 653 1221 m 792 1130 b 819 1158 808 1130 819 1141 b 792 1186 819 1175 808 1186 b 764 1158 775 1186 764 1175 b 792 1130 764 1141 775 1130 m 359 1133 b 386 1158 375 1133 386 1142 b 359 1183 386 1174 375 1183 l 350 1183 l 350 1133 l 359 1133 m 579 -25 b 43 486 266 -25 43 189 b 579 997 43 783 266 997 b 1113 486 890 997 1113 784 b 579 -25 1113 188 890 -25 m 579 225 b 834 486 727 225 834 334 b 579 748 834 638 727 748 b 322 486 431 748 322 637 b 579 225 322 335 431 225 "},"Œ":{"ha":794,"x_min":0,"x_max":0,"o":"m 398 738 b 277 868 325 738 277 790 b 398 998 277 946 325 998 b 518 868 470 998 518 946 b 398 738 518 790 470 738 m 398 918 b 347 868 367 918 347 898 b 398 819 347 839 367 819 b 448 868 428 819 448 839 b 398 918 448 898 428 918 m 284 694 l 511 728 l 511 652 l 396 639 l 511 586 l 511 560 l 397 507 l 511 494 l 511 418 l 284 452 l 284 526 l 393 573 l 284 620 m 450 400 l 511 400 l 511 243 l 284 243 l 284 399 l 345 399 l 345 318 l 370 318 l 370 390 l 426 390 l 426 318 l 450 318 m 398 218 b 511 98 464 218 511 169 l 511 0 l 284 0 l 284 98 b 398 218 284 169 330 218 m 398 140 b 352 92 370 140 352 122 l 352 76 l 443 76 l 443 92 b 398 140 443 122 426 140 "},"P":{"ha":896,"x_min":0,"x_max":0,"o":"m 508 972 b 868 621 715 972 868 825 b 508 269 868 417 715 269 l 362 269 l 362 0 l 94 0 l 94 972 l 508 972 m 476 502 b 593 620 546 502 593 551 b 476 738 593 689 546 738 l 362 738 l 362 502 l 476 502 "},"Þ":{"ha":794,"x_min":0,"x_max":0,"o":"m 398 738 b 277 868 325 738 277 790 b 398 998 277 946 325 998 b 518 868 470 998 518 946 b 398 738 518 790 470 738 m 398 918 b 347 868 367 918 347 898 b 398 819 347 839 367 819 b 448 868 428 819 448 839 b 398 918 448 898 428 918 m 284 694 l 511 728 l 511 652 l 396 639 l 511 586 l 511 560 l 397 507 l 511 494 l 511 418 l 284 452 l 284 526 l 393 573 l 284 620 m 450 400 l 511 400 l 511 243 l 284 243 l 284 399 l 345 399 l 345 318 l 370 318 l 370 390 l 426 390 l 426 318 l 450 318 m 398 218 b 511 98 464 218 511 169 l 511 0 l 284 0 l 284 98 b 398 218 284 169 330 218 m 398 140 b 352 92 370 140 352 122 l 352 76 l 443 76 l 443 92 b 398 140 443 122 426 140 "},"Q":{"ha":1157,"x_min":0,"x_max":0,"o":"m 872 -132 l 763 3 b 579 -25 706 -15 644 -25 b 43 486 266 -25 43 189 b 579 997 43 783 266 997 b 1113 486 890 997 1113 784 b 955 112 1113 333 1054 203 l 1157 -132 m 322 486 b 579 225 322 335 431 225 b 834 486 727 225 834 334 b 579 748 834 638 727 748 b 322 486 431 748 322 637 "},"R":{"ha":939,"x_min":0,"x_max":0,"o":"m 459 297 l 362 297 l 362 0 l 94 0 l 94 972 l 515 972 b 877 628 725 972 877 831 b 723 354 877 509 819 411 l 916 0 l 617 0 m 362 523 l 484 523 b 602 629 559 523 602 568 b 484 734 602 690 559 734 l 362 734 "},"Ŕ":{"ha":939,"x_min":0,"x_max":0,"o":"m 646 1091 b 574 1158 603 1091 574 1118 b 646 1225 574 1198 603 1225 b 719 1158 690 1225 719 1198 b 646 1091 719 1118 690 1091 m 283 1158 b 216 1095 283 1121 256 1095 l 162 1095 l 162 1221 l 216 1221 b 283 1158 256 1221 283 1196 m 385 1095 l 298 1095 l 298 1221 l 384 1221 l 384 1187 l 339 1187 l 339 1174 l 380 1174 l 380 1142 l 339 1142 l 339 1129 l 385 1129 m 438 1095 l 395 1095 l 414 1221 l 456 1221 l 482 1160 l 508 1221 l 549 1221 l 568 1095 l 526 1095 l 518 1159 l 489 1095 l 474 1095 l 445 1159 m 646 1186 b 619 1158 630 1186 619 1175 b 646 1130 619 1141 630 1130 b 674 1158 663 1130 674 1141 b 646 1186 674 1175 663 1186 m 214 1133 b 240 1158 230 1133 240 1142 b 214 1183 240 1174 230 1183 l 204 1183 l 204 1133 m 459 297 l 362 297 l 362 0 l 94 0 l 94 972 l 515 972 b 877 628 725 972 877 831 b 723 354 877 509 819 411 l 916 0 l 617 0 m 362 523 l 484 523 b 602 629 559 523 602 568 b 484 734 602 690 559 734 l 362 734 "},"Ř":{"ha":939,"x_min":0,"x_max":0,"o":"m 638 1091 b 565 1158 594 1091 565 1118 b 638 1225 565 1198 594 1225 b 710 1158 681 1225 710 1198 b 638 1091 710 1118 681 1091 m 275 1158 b 208 1095 275 1121 248 1095 l 153 1095 l 153 1221 l 208 1221 b 275 1158 248 1221 275 1196 m 377 1095 l 289 1095 l 289 1221 l 376 1221 l 376 1187 l 331 1187 l 331 1174 l 371 1174 l 371 1142 l 331 1142 l 331 1129 l 377 1129 m 429 1095 l 387 1095 l 405 1221 l 447 1221 l 473 1160 l 499 1221 l 541 1221 l 559 1095 l 517 1095 l 510 1159 l 480 1095 l 466 1095 l 436 1159 m 638 1186 b 610 1158 621 1186 610 1175 b 638 1130 610 1141 621 1130 b 665 1158 654 1130 665 1141 b 638 1186 665 1175 654 1186 m 205 1133 b 232 1158 221 1133 232 1142 b 205 1183 232 1174 221 1183 l 196 1183 l 196 1133 m 459 297 l 362 297 l 362 0 l 94 0 l 94 972 l 515 972 b 877 628 725 972 877 831 b 723 354 877 509 819 411 l 916 0 l 617 0 m 362 523 l 484 523 b 602 629 559 523 602 568 b 484 734 602 690 559 734 l 362 734 "},"S":{"ha":874,"x_min":0,"x_max":0,"o":"m 438 -24 b 47 314 200 -24 47 102 l 323 314 b 438 211 323 244 377 211 b 547 294 494 211 547 241 b 379 395 547 355 472 372 b 59 694 239 430 59 473 b 429 995 59 886 200 995 b 796 678 662 995 796 876 l 527 678 b 426 768 527 739 481 768 b 332 702 378 768 332 747 b 497 606 332 647 406 629 b 827 299 640 569 827 521 b 438 -24 827 86 664 -24 "},"Ś":{"ha":874,"x_min":0,"x_max":0,"o":"m 631 1225 b 704 1158 675 1225 704 1198 b 631 1091 704 1118 675 1091 b 559 1158 588 1091 559 1118 b 631 1225 559 1198 588 1225 m 202 1221 b 269 1158 241 1221 269 1196 b 202 1095 269 1121 241 1095 l 147 1095 l 147 1221 l 202 1221 m 324 1129 l 371 1129 l 371 1095 l 283 1095 l 283 1221 l 370 1221 l 370 1187 l 324 1187 l 324 1174 l 365 1174 l 365 1142 l 324 1142 m 535 1221 l 553 1095 l 511 1095 l 503 1159 l 474 1095 l 459 1095 l 430 1159 l 423 1095 l 380 1095 l 399 1221 l 441 1221 l 467 1160 l 493 1221 m 631 1130 b 659 1158 648 1130 659 1141 b 631 1186 659 1175 648 1186 b 604 1158 615 1186 604 1175 b 631 1130 604 1141 615 1130 m 199 1133 b 226 1158 215 1133 226 1142 b 199 1183 226 1174 215 1183 l 190 1183 l 190 1133 l 199 1133 m 438 -24 b 47 314 200 -24 47 102 l 323 314 b 438 211 323 244 377 211 b 547 294 494 211 547 241 b 379 395 547 355 472 372 b 59 694 239 430 59 473 b 429 995 59 886 200 995 b 796 678 662 995 796 876 l 527 678 b 426 768 527 739 481 768 b 332 702 378 768 332 747 b 497 606 332 647 406 629 b 827 299 640 569 827 521 b 438 -24 827 86 664 -24 "},"Š":{"ha":874,"x_min":0,"x_max":0,"o":"m 623 1225 b 695 1158 666 1225 695 1198 b 623 1091 695 1118 666 1091 b 550 1158 579 1091 550 1118 b 623 1225 550 1198 579 1225 m 193 1221 b 260 1158 233 1221 260 1196 b 193 1095 260 1121 233 1095 l 139 1095 l 139 1221 l 193 1221 m 316 1129 l 362 1129 l 362 1095 l 274 1095 l 274 1221 l 361 1221 l 361 1187 l 316 1187 l 316 1174 l 356 1174 l 356 1142 l 316 1142 m 526 1221 l 544 1095 l 502 1095 l 495 1159 l 465 1095 l 451 1095 l 421 1159 l 414 1095 l 372 1095 l 391 1221 l 432 1221 l 458 1160 l 484 1221 m 623 1130 b 650 1158 639 1130 650 1141 b 623 1186 650 1175 639 1186 b 595 1158 606 1186 595 1175 b 623 1130 595 1141 606 1130 m 190 1133 b 217 1158 207 1133 217 1142 b 190 1183 217 1174 207 1183 l 181 1183 l 181 1133 l 190 1133 m 438 -24 b 47 314 200 -24 47 102 l 323 314 b 438 211 323 244 377 211 b 547 294 494 211 547 241 b 379 395 547 355 472 372 b 59 694 239 430 59 473 b 429 995 59 886 200 995 b 796 678 662 995 796 876 l 527 678 b 426 768 527 739 481 768 b 332 702 378 768 332 747 b 497 606 332 647 406 629 b 827 299 640 569 827 521 b 438 -24 827 86 664 -24 "},"Ş":{"ha":874,"x_min":0,"x_max":0,"o":"m 661 1217 b 734 1150 705 1217 734 1190 b 661 1083 734 1110 705 1083 b 589 1150 618 1083 589 1110 b 661 1217 589 1190 618 1217 m 231 1213 b 298 1150 271 1213 298 1188 b 231 1087 298 1113 271 1087 l 177 1087 l 177 1213 l 231 1213 m 354 1121 l 400 1121 l 400 1087 l 313 1087 l 313 1213 l 399 1213 l 399 1179 l 354 1179 l 354 1166 l 395 1166 l 395 1134 l 354 1134 m 564 1213 l 583 1087 l 541 1087 l 533 1151 l 504 1087 l 489 1087 l 460 1151 l 453 1087 l 410 1087 l 429 1213 l 471 1213 l 497 1152 l 523 1213 m 661 1122 b 689 1150 678 1122 689 1133 b 661 1178 689 1167 678 1178 b 634 1150 645 1178 634 1167 b 661 1122 634 1133 645 1122 m 228 1125 b 255 1150 245 1125 255 1134 b 228 1175 255 1166 245 1175 l 219 1175 l 219 1125 l 228 1125 m 438 -24 b 47 314 200 -24 47 102 l 323 314 b 438 211 323 244 377 211 b 547 294 494 211 547 241 b 379 395 547 355 472 372 b 59 694 239 430 59 473 b 429 995 59 886 200 995 b 796 678 662 995 796 876 l 527 678 b 426 768 527 739 481 768 b 332 702 378 768 332 747 b 497 606 332 647 406 629 b 827 299 640 569 827 521 b 438 -24 827 86 664 -24 "},"Ŝ":{"ha":874,"x_min":0,"x_max":0,"o":"m 631 1225 b 704 1158 675 1225 704 1198 b 631 1091 704 1118 675 1091 b 559 1158 588 1091 559 1118 b 631 1225 559 1198 588 1225 m 201 1221 b 268 1158 241 1221 268 1196 b 201 1095 268 1121 241 1095 l 147 1095 l 147 1221 l 201 1221 m 324 1129 l 370 1129 l 370 1095 l 283 1095 l 283 1221 l 369 1221 l 369 1187 l 324 1187 l 324 1174 l 365 1174 l 365 1142 l 324 1142 m 534 1221 l 553 1095 l 511 1095 l 503 1159 l 474 1095 l 459 1095 l 430 1159 l 423 1095 l 380 1095 l 399 1221 l 441 1221 l 466 1160 l 493 1221 m 631 1130 b 659 1158 648 1130 659 1141 b 631 1186 659 1175 648 1186 b 604 1158 615 1186 604 1175 b 631 1130 604 1141 615 1130 m 198 1133 b 225 1158 215 1133 225 1142 b 198 1183 225 1174 215 1183 l 189 1183 l 189 1133 l 198 1133 m 438 -24 b 47 314 200 -24 47 102 l 323 314 b 438 211 323 244 377 211 b 547 294 494 211 547 241 b 379 395 547 355 472 372 b 59 694 239 430 59 473 b 429 995 59 886 200 995 b 796 678 662 995 796 876 l 527 678 b 426 768 527 739 481 768 b 332 702 378 768 332 747 b 497 606 332 647 406 629 b 827 299 640 569 827 521 b 438 -24 827 86 664 -24 "},"ẞ":{"ha":794,"x_min":0,"x_max":0,"o":"m 398 738 b 277 868 325 738 277 790 b 398 998 277 946 325 998 b 518 868 470 998 518 946 b 398 738 518 790 470 738 m 398 918 b 347 868 367 918 347 898 b 398 819 347 839 367 819 b 448 868 428 819 448 839 b 398 918 448 898 428 918 m 284 694 l 511 728 l 511 652 l 396 639 l 511 586 l 511 560 l 397 507 l 511 494 l 511 418 l 284 452 l 284 526 l 393 573 l 284 620 m 450 400 l 511 400 l 511 243 l 284 243 l 284 399 l 345 399 l 345 318 l 370 318 l 370 390 l 426 390 l 426 318 l 450 318 m 398 218 b 511 98 464 218 511 169 l 511 0 l 284 0 l 284 98 b 398 218 284 169 330 218 m 398 140 b 352 92 370 140 352 122 l 352 76 l 443 76 l 443 92 b 398 140 443 122 426 140 "},"T":{"ha":849,"x_min":0,"x_max":0,"o":"m 823 731 l 559 731 l 559 0 l 290 0 l 290 731 l 26 731 l 26 972 l 823 972 "},"Ŧ":{"ha":849,"x_min":0,"x_max":0,"o":"m 630 1091 b 557 1158 586 1091 557 1118 b 630 1225 557 1198 586 1225 b 702 1158 673 1225 702 1198 b 630 1091 702 1118 673 1091 m 267 1158 b 200 1095 267 1121 240 1095 l 145 1095 l 145 1221 l 200 1221 b 267 1158 240 1221 267 1196 m 369 1095 l 281 1095 l 281 1221 l 368 1221 l 368 1187 l 323 1187 l 323 1174 l 363 1174 l 363 1142 l 323 1142 l 323 1129 l 369 1129 m 421 1095 l 379 1095 l 397 1221 l 439 1221 l 465 1160 l 491 1221 l 533 1221 l 551 1095 l 509 1095 l 502 1159 l 472 1095 l 458 1095 l 428 1159 m 630 1186 b 602 1158 613 1186 602 1175 b 630 1130 602 1141 613 1130 b 657 1158 646 1130 657 1141 b 630 1186 657 1175 646 1186 m 197 1133 b 224 1158 213 1133 224 1142 b 197 1183 224 1174 213 1183 l 188 1183 l 188 1133 m 823 731 l 559 731 l 559 0 l 290 0 l 290 731 l 26 731 l 26 972 l 823 972 "},"Ť":{"ha":849,"x_min":0,"x_max":0,"o":"m 630 1091 b 557 1158 586 1091 557 1118 b 630 1225 557 1198 586 1225 b 702 1158 673 1225 702 1198 b 630 1091 702 1118 673 1091 m 267 1158 b 200 1095 267 1121 240 1095 l 145 1095 l 145 1221 l 200 1221 b 267 1158 240 1221 267 1196 m 369 1095 l 281 1095 l 281 1221 l 368 1221 l 368 1187 l 323 1187 l 323 1174 l 363 1174 l 363 1142 l 323 1142 l 323 1129 l 369 1129 m 421 1095 l 379 1095 l 397 1221 l 439 1221 l 465 1160 l 491 1221 l 533 1221 l 551 1095 l 509 1095 l 502 1159 l 472 1095 l 458 1095 l 428 1159 m 630 1186 b 602 1158 613 1186 602 1175 b 630 1130 602 1141 613 1130 b 657 1158 646 1130 657 1141 b 630 1186 657 1175 646 1186 m 197 1133 b 224 1158 213 1133 224 1142 b 197 1183 224 1174 213 1183 l 188 1183 l 188 1133 m 823 731 l 559 731 l 559 0 l 290 0 l 290 731 l 26 731 l 26 972 l 823 972 "},"U":{"ha":1017,"x_min":0,"x_max":0,"o":"m 508 -25 b 84 376 260 -25 84 137 l 84 972 l 357 972 l 357 381 b 508 225 357 286 419 225 b 659 381 598 225 659 286 l 659 972 l 932 972 l 932 376 b 508 -25 932 137 756 -25 "},"Ú":{"ha":1017,"x_min":0,"x_max":0,"o":"m 722 1225 b 794 1158 765 1225 794 1198 b 722 1091 794 1118 765 1091 b 649 1158 678 1091 649 1118 b 722 1225 649 1198 678 1225 m 292 1221 b 359 1158 332 1221 359 1196 b 292 1095 359 1121 332 1095 l 238 1095 l 238 1221 l 292 1221 m 415 1129 l 461 1129 l 461 1095 l 373 1095 l 373 1221 l 460 1221 l 460 1187 l 415 1187 l 415 1174 l 455 1174 l 455 1142 l 415 1142 m 625 1221 l 643 1095 l 601 1095 l 594 1159 l 564 1095 l 550 1095 l 520 1159 l 513 1095 l 471 1095 l 489 1221 l 531 1221 l 557 1160 l 583 1221 m 722 1130 b 749 1158 738 1130 749 1141 b 722 1186 749 1175 738 1186 b 694 1158 705 1186 694 1175 b 722 1130 694 1141 705 1130 m 289 1133 b 316 1158 305 1133 316 1142 b 289 1183 316 1174 305 1183 l 280 1183 l 280 1133 l 289 1133 m 508 -25 b 84 376 260 -25 84 137 l 84 972 l 357 972 l 357 381 b 508 225 357 286 419 225 b 659 381 598 225 659 286 l 659 972 l 932 972 l 932 376 b 508 -25 932 137 756 -25 "},"Ŭ":{"ha":1017,"x_min":0,"x_max":0,"o":"m 721 1225 b 794 1158 765 1225 794 1198 b 721 1091 794 1118 765 1091 b 649 1158 678 1091 649 1118 b 721 1225 649 1198 678 1225 m 292 1221 b 359 1158 331 1221 359 1196 b 292 1095 359 1121 331 1095 l 237 1095 l 237 1221 l 292 1221 m 414 1129 l 461 1129 l 461 1095 l 373 1095 l 373 1221 l 460 1221 l 460 1187 l 414 1187 l 414 1174 l 455 1174 l 455 1142 l 414 1142 m 625 1221 l 643 1095 l 601 1095 l 594 1159 l 564 1095 l 549 1095 l 520 1159 l 513 1095 l 470 1095 l 489 1221 l 531 1221 l 557 1160 l 583 1221 m 721 1130 b 749 1158 738 1130 749 1141 b 721 1186 749 1175 738 1186 b 694 1158 705 1186 694 1175 b 721 1130 694 1141 705 1130 m 289 1133 b 316 1158 305 1133 316 1142 b 289 1183 316 1174 305 1183 l 280 1183 l 280 1133 l 289 1133 m 508 -25 b 84 376 260 -25 84 137 l 84 972 l 357 972 l 357 381 b 508 225 357 286 419 225 b 659 381 598 225 659 286 l 659 972 l 932 972 l 932 376 b 508 -25 932 137 756 -25 "},"Û":{"ha":1017,"x_min":0,"x_max":0,"o":"m 721 1225 b 794 1158 765 1225 794 1198 b 721 1091 794 1118 765 1091 b 649 1158 678 1091 649 1118 b 721 1225 649 1198 678 1225 m 292 1221 b 359 1158 331 1221 359 1196 b 292 1095 359 1121 331 1095 l 237 1095 l 237 1221 l 292 1221 m 414 1129 l 461 1129 l 461 1095 l 373 1095 l 373 1221 l 460 1221 l 460 1187 l 414 1187 l 414 1174 l 455 1174 l 455 1142 l 414 1142 m 625 1221 l 643 1095 l 601 1095 l 594 1159 l 564 1095 l 549 1095 l 520 1159 l 513 1095 l 470 1095 l 489 1221 l 531 1221 l 557 1160 l 583 1221 m 721 1130 b 749 1158 738 1130 749 1141 b 721 1186 749 1175 738 1186 b 694 1158 705 1186 694 1175 b 721 1130 694 1141 705 1130 m 289 1133 b 316 1158 305 1133 316 1142 b 289 1183 316 1174 305 1183 l 280 1183 l 280 1133 l 289 1133 m 508 -25 b 84 376 260 -25 84 137 l 84 972 l 357 972 l 357 381 b 508 225 357 286 419 225 b 659 381 598 225 659 286 l 659 972 l 932 972 l 932 376 b 508 -25 932 137 756 -25 "},"Ü":{"ha":1017,"x_min":0,"x_max":0,"o":"m 715 1091 b 642 1158 671 1091 642 1118 b 715 1225 642 1198 671 1225 b 787 1158 758 1225 787 1198 b 715 1091 787 1118 758 1091 m 352 1158 b 285 1095 352 1121 325 1095 l 230 1095 l 230 1221 l 285 1221 b 352 1158 325 1221 352 1196 m 454 1095 l 366 1095 l 366 1221 l 453 1221 l 453 1187 l 408 1187 l 408 1174 l 448 1174 l 448 1142 l 408 1142 l 408 1129 l 454 1129 m 506 1095 l 464 1095 l 482 1221 l 524 1221 l 550 1160 l 576 1221 l 618 1221 l 636 1095 l 594 1095 l 587 1159 l 557 1095 l 543 1095 l 513 1159 m 715 1186 b 687 1158 698 1186 687 1175 b 715 1130 687 1141 698 1130 b 742 1158 731 1130 742 1141 b 715 1186 742 1175 731 1186 m 282 1133 b 309 1158 298 1133 309 1142 b 282 1183 309 1174 298 1183 l 273 1183 l 273 1133 m 933 972 l 933 376 b 508 -25 933 137 756 -25 b 84 376 260 -25 84 137 l 84 972 l 357 972 l 357 381 b 508 225 357 286 419 225 b 659 381 598 225 659 286 l 659 972 "},"Ù":{"ha":1017,"x_min":0,"x_max":0,"o":"m 720 1225 b 792 1158 763 1225 792 1198 b 720 1091 792 1118 763 1091 b 647 1158 676 1091 647 1118 b 720 1225 647 1198 676 1225 m 290 1221 b 357 1158 330 1221 357 1196 b 290 1095 357 1121 330 1095 l 236 1095 l 236 1221 l 290 1221 m 413 1129 l 459 1129 l 459 1095 l 371 1095 l 371 1221 l 458 1221 l 458 1187 l 413 1187 l 413 1174 l 453 1174 l 453 1142 l 413 1142 m 623 1221 l 641 1095 l 599 1095 l 592 1159 l 562 1095 l 548 1095 l 518 1159 l 511 1095 l 469 1095 l 487 1221 l 529 1221 l 555 1160 l 581 1221 m 720 1130 b 747 1158 736 1130 747 1141 b 720 1186 747 1175 736 1186 b 692 1158 703 1186 692 1175 b 720 1130 692 1141 703 1130 m 287 1133 b 314 1158 303 1133 314 1142 b 287 1183 314 1174 303 1183 l 278 1183 l 278 1133 l 287 1133 m 508 -25 b 84 376 260 -25 84 137 l 84 972 l 357 972 l 357 381 b 508 225 357 286 419 225 b 659 381 598 225 659 286 l 659 972 l 932 972 l 932 376 b 508 -25 932 137 756 -25 "},"Ű":{"ha":1017,"x_min":0,"x_max":0,"o":"m 720 1225 b 792 1158 763 1225 792 1198 b 720 1091 792 1118 763 1091 b 647 1158 676 1091 647 1118 b 720 1225 647 1198 676 1225 m 290 1221 b 357 1158 330 1221 357 1196 b 290 1095 357 1121 330 1095 l 236 1095 l 236 1221 l 290 1221 m 413 1129 l 459 1129 l 459 1095 l 371 1095 l 371 1221 l 458 1221 l 458 1187 l 413 1187 l 413 1174 l 453 1174 l 453 1142 l 413 1142 m 623 1221 l 641 1095 l 599 1095 l 592 1159 l 562 1095 l 548 1095 l 518 1159 l 511 1095 l 469 1095 l 487 1221 l 529 1221 l 555 1160 l 581 1221 m 720 1130 b 747 1158 736 1130 747 1141 b 720 1186 747 1175 736 1186 b 692 1158 703 1186 692 1175 b 720 1130 692 1141 703 1130 m 287 1133 b 314 1158 303 1133 314 1142 b 287 1183 314 1174 303 1183 l 278 1183 l 278 1133 l 287 1133 m 508 -25 b 84 376 260 -25 84 137 l 84 972 l 357 972 l 357 381 b 508 225 357 286 419 225 b 659 381 598 225 659 286 l 659 972 l 932 972 l 932 376 b 508 -25 932 137 756 -25 "},"Ū":{"ha":1017,"x_min":0,"x_max":0,"o":"m 720 1225 b 793 1158 764 1225 793 1198 b 720 1091 793 1118 764 1091 b 648 1158 677 1091 648 1118 b 720 1225 648 1198 677 1225 m 291 1221 b 358 1158 330 1221 358 1196 b 291 1095 358 1121 330 1095 l 236 1095 l 236 1221 l 291 1221 m 413 1129 l 459 1129 l 459 1095 l 372 1095 l 372 1221 l 459 1221 l 459 1187 l 413 1187 l 413 1174 l 454 1174 l 454 1142 l 413 1142 m 623 1221 l 642 1095 l 600 1095 l 592 1159 l 563 1095 l 548 1095 l 519 1159 l 512 1095 l 469 1095 l 488 1221 l 530 1221 l 556 1160 l 582 1221 m 720 1130 b 748 1158 737 1130 748 1141 b 720 1186 748 1175 737 1186 b 693 1158 704 1186 693 1175 b 720 1130 693 1141 704 1130 m 288 1133 b 314 1158 304 1133 314 1142 b 288 1183 314 1174 304 1183 l 279 1183 l 279 1133 l 288 1133 m 508 -25 b 84 376 260 -25 84 137 l 84 972 l 357 972 l 357 381 b 508 225 357 286 419 225 b 659 381 598 225 659 286 l 659 972 l 932 972 l 932 376 b 508 -25 932 137 756 -25 "},"Ų":{"ha":1017,"x_min":0,"x_max":0,"o":"m 720 1225 b 792 1158 763 1225 792 1198 b 720 1091 792 1118 763 1091 b 647 1158 676 1091 647 1118 b 720 1225 647 1198 676 1225 m 290 1221 b 357 1158 330 1221 357 1196 b 290 1095 357 1121 330 1095 l 236 1095 l 236 1221 l 290 1221 m 413 1129 l 459 1129 l 459 1095 l 371 1095 l 371 1221 l 458 1221 l 458 1187 l 413 1187 l 413 1174 l 453 1174 l 453 1142 l 413 1142 m 623 1221 l 641 1095 l 599 1095 l 592 1159 l 562 1095 l 548 1095 l 518 1159 l 511 1095 l 469 1095 l 487 1221 l 529 1221 l 555 1160 l 581 1221 m 720 1130 b 747 1158 736 1130 747 1141 b 720 1186 747 1175 736 1186 b 692 1158 703 1186 692 1175 b 720 1130 692 1141 703 1130 m 287 1133 b 314 1158 303 1133 314 1142 b 287 1183 314 1174 303 1183 l 278 1183 l 278 1133 l 287 1133 m 508 -25 b 84 376 260 -25 84 137 l 84 972 l 357 972 l 357 381 b 508 225 357 286 419 225 b 659 381 598 225 659 286 l 659 972 l 932 972 l 932 376 b 508 -25 932 137 756 -25 "},"Ů":{"ha":1017,"x_min":0,"x_max":0,"o":"m 721 1091 b 649 1158 678 1091 649 1118 b 721 1225 649 1198 678 1225 b 794 1158 765 1225 794 1198 b 721 1091 794 1118 765 1091 m 358 1158 b 291 1095 358 1121 331 1095 l 237 1095 l 237 1221 l 291 1221 b 358 1158 331 1221 358 1196 m 460 1095 l 372 1095 l 372 1221 l 459 1221 l 459 1187 l 414 1187 l 414 1174 l 454 1174 l 454 1142 l 414 1142 l 414 1129 l 460 1129 m 512 1095 l 470 1095 l 489 1221 l 530 1221 l 556 1160 l 582 1221 l 624 1221 l 643 1095 l 601 1095 l 593 1159 l 564 1095 l 549 1095 l 520 1159 m 721 1186 b 694 1158 705 1186 694 1175 b 721 1130 694 1141 705 1130 b 749 1158 738 1130 749 1141 b 721 1186 749 1175 738 1186 m 288 1133 b 315 1158 305 1133 315 1142 b 288 1183 315 1174 305 1183 l 279 1183 l 279 1133 m 932 972 l 932 376 b 508 -25 932 137 756 -25 b 84 376 260 -25 84 137 l 84 972 l 357 972 l 357 381 b 508 225 357 286 419 225 b 659 381 598 225 659 286 l 659 972 "},"Ũ":{"ha":1017,"x_min":0,"x_max":0,"o":"m 721 1225 b 793 1158 764 1225 793 1198 b 721 1091 793 1118 764 1091 b 648 1158 677 1091 648 1118 b 721 1225 648 1198 677 1225 m 291 1221 b 358 1158 331 1221 358 1196 b 291 1095 358 1121 331 1095 l 237 1095 l 237 1221 l 291 1221 m 414 1129 l 460 1129 l 460 1095 l 372 1095 l 372 1221 l 459 1221 l 459 1187 l 414 1187 l 414 1174 l 454 1174 l 454 1142 l 414 1142 m 624 1221 l 642 1095 l 600 1095 l 593 1159 l 563 1095 l 549 1095 l 519 1159 l 512 1095 l 470 1095 l 489 1221 l 530 1221 l 556 1160 l 582 1221 m 721 1130 b 748 1158 737 1130 748 1141 b 721 1186 748 1175 737 1186 b 693 1158 704 1186 693 1175 b 721 1130 693 1141 704 1130 m 288 1133 b 315 1158 305 1133 315 1142 b 288 1183 315 1174 305 1183 l 279 1183 l 279 1133 l 288 1133 m 508 -25 b 84 376 260 -25 84 137 l 84 972 l 357 972 l 357 381 b 508 225 357 286 419 225 b 659 381 598 225 659 286 l 659 972 l 932 972 l 932 376 b 508 -25 932 137 756 -25 "},"V":{"ha":1006,"x_min":0,"x_max":0,"o":"m 1002 972 l 630 0 l 380 0 l 0 972 l 306 972 l 504 368 l 698 972 "},"W":{"ha":1458,"x_min":0,"x_max":0,"o":"m 1450 972 l 1150 0 l 915 0 l 728 469 l 545 0 l 309 0 l 5 972 l 293 972 l 450 412 l 682 967 l 775 967 l 1010 411 l 1165 972 "},"Ẃ":{"ha":1458,"x_min":0,"x_max":0,"o":"m 941 1091 b 869 1158 898 1091 869 1118 b 941 1225 869 1198 898 1225 b 1014 1158 985 1225 1014 1198 b 941 1091 1014 1118 985 1091 m 578 1158 b 511 1095 578 1121 551 1095 l 457 1095 l 457 1221 l 511 1221 b 578 1158 551 1221 578 1196 m 680 1095 l 593 1095 l 593 1221 l 679 1221 l 679 1187 l 634 1187 l 634 1174 l 675 1174 l 675 1142 l 634 1142 l 634 1129 l 680 1129 m 733 1095 l 690 1095 l 709 1221 l 751 1221 l 776 1160 l 803 1221 l 844 1221 l 863 1095 l 821 1095 l 813 1159 l 784 1095 l 769 1095 l 740 1159 m 941 1186 b 914 1158 925 1186 914 1175 b 941 1130 914 1141 925 1130 b 969 1158 958 1130 969 1141 b 941 1186 969 1175 958 1186 m 508 1133 b 535 1158 525 1133 535 1142 b 508 1183 535 1174 525 1183 l 499 1183 l 499 1133 m 1450 972 l 1150 0 l 915 0 l 728 469 l 545 0 l 309 0 l 5 972 l 293 972 l 450 412 l 682 967 l 775 967 l 1010 411 l 1165 972 "},"Ŵ":{"ha":1458,"x_min":0,"x_max":0,"o":"m 941 1091 b 868 1158 897 1091 868 1118 b 941 1225 868 1198 897 1225 b 1013 1158 984 1225 1013 1198 b 941 1091 1013 1118 984 1091 m 578 1158 b 511 1095 578 1121 551 1095 l 457 1095 l 457 1221 l 511 1221 b 578 1158 551 1221 578 1196 m 680 1095 l 592 1095 l 592 1221 l 679 1221 l 679 1187 l 634 1187 l 634 1174 l 674 1174 l 674 1142 l 634 1142 l 634 1129 l 680 1129 m 732 1095 l 690 1095 l 709 1221 l 750 1221 l 776 1160 l 802 1221 l 844 1221 l 862 1095 l 820 1095 l 813 1159 l 783 1095 l 769 1095 l 739 1159 m 941 1186 b 913 1158 924 1186 913 1175 b 941 1130 913 1141 924 1130 b 968 1158 957 1130 968 1141 b 941 1186 968 1175 957 1186 m 508 1133 b 535 1158 525 1133 535 1142 b 508 1183 535 1174 525 1183 l 499 1183 l 499 1133 m 1450 972 l 1150 0 l 915 0 l 728 469 l 545 0 l 309 0 l 5 972 l 293 972 l 450 412 l 682 967 l 775 967 l 1010 411 l 1165 972 "},"Ẅ":{"ha":1458,"x_min":0,"x_max":0,"o":"m 934 1091 b 862 1158 891 1091 862 1118 b 934 1225 862 1198 891 1225 b 1007 1158 978 1225 1007 1198 b 934 1091 1007 1118 978 1091 m 571 1158 b 504 1095 571 1121 544 1095 l 450 1095 l 450 1221 l 504 1221 b 571 1158 544 1221 571 1196 m 673 1095 l 585 1095 l 585 1221 l 672 1221 l 672 1187 l 627 1187 l 627 1174 l 668 1174 l 668 1142 l 627 1142 l 627 1129 l 673 1129 m 726 1095 l 683 1095 l 702 1221 l 743 1221 l 769 1160 l 796 1221 l 837 1221 l 856 1095 l 814 1095 l 806 1159 l 777 1095 l 762 1095 l 733 1159 m 934 1186 b 907 1158 918 1186 907 1175 b 934 1130 907 1141 918 1130 b 962 1158 951 1130 962 1141 b 934 1186 962 1175 951 1186 m 501 1133 b 528 1158 518 1133 528 1142 b 501 1183 528 1174 518 1183 l 492 1183 l 492 1133 m 1450 972 l 1150 0 l 915 0 l 728 469 l 545 0 l 309 0 l 5 972 l 293 972 l 450 412 l 682 967 l 775 967 l 1010 411 l 1165 972 "},"Ẁ":{"ha":1458,"x_min":0,"x_max":0,"o":"m 939 1225 b 1012 1158 983 1225 1012 1198 b 939 1091 1012 1118 983 1091 b 867 1158 896 1091 867 1118 b 939 1225 867 1198 896 1225 m 509 1221 b 576 1158 549 1221 576 1196 b 509 1095 576 1121 549 1095 l 455 1095 l 455 1221 l 509 1221 m 632 1129 l 678 1129 l 678 1095 l 591 1095 l 591 1221 l 677 1221 l 677 1187 l 632 1187 l 632 1174 l 673 1174 l 673 1142 l 632 1142 m 842 1221 l 861 1095 l 819 1095 l 811 1159 l 782 1095 l 767 1095 l 738 1159 l 731 1095 l 688 1095 l 707 1221 l 749 1221 l 774 1160 l 801 1221 m 939 1130 b 967 1158 956 1130 967 1141 b 939 1186 967 1175 956 1186 b 912 1158 923 1186 912 1175 b 939 1130 912 1141 923 1130 m 506 1133 b 533 1158 523 1133 533 1142 b 506 1183 533 1174 523 1183 l 497 1183 l 497 1133 l 506 1133 m 1450 972 l 1150 0 l 915 0 l 728 469 l 545 0 l 309 0 l 5 972 l 293 972 l 450 412 l 682 967 l 775 967 l 1010 411 l 1165 972 "},"X":{"ha":922,"x_min":0,"x_max":0,"o":"m 623 0 l 463 299 l 301 0 l -3 0 l 289 506 l 13 972 l 315 972 l 461 697 l 608 972 l 906 972 l 633 501 l 926 0 "},"Y":{"ha":971,"x_min":0,"x_max":0,"o":"m 621 380 l 621 0 l 349 0 l 349 381 l 11 972 l 308 972 l 486 621 l 664 972 l 961 972 "},"Ý":{"ha":971,"x_min":0,"x_max":0,"o":"m 700 1091 b 627 1158 656 1091 627 1118 b 700 1225 627 1198 656 1225 b 772 1158 743 1225 772 1198 b 700 1091 772 1118 743 1091 m 337 1158 b 270 1095 337 1121 310 1095 l 216 1095 l 216 1221 l 270 1221 b 337 1158 310 1221 337 1196 m 439 1095 l 351 1095 l 351 1221 l 438 1221 l 438 1187 l 393 1187 l 393 1174 l 433 1174 l 433 1142 l 393 1142 l 393 1129 l 439 1129 m 491 1095 l 449 1095 l 468 1221 l 509 1221 l 535 1160 l 561 1221 l 603 1221 l 621 1095 l 579 1095 l 572 1159 l 542 1095 l 528 1095 l 498 1159 m 700 1186 b 672 1158 683 1186 672 1175 b 700 1130 672 1141 683 1130 b 727 1158 716 1130 727 1141 b 700 1186 727 1175 716 1186 m 267 1133 b 294 1158 284 1133 294 1142 b 267 1183 294 1174 284 1183 l 258 1183 l 258 1133 m 621 380 l 621 0 l 349 0 l 349 381 l 11 972 l 308 972 l 486 621 l 664 972 l 961 972 "},"Ŷ":{"ha":971,"x_min":0,"x_max":0,"o":"m 700 1091 b 627 1158 656 1091 627 1118 b 700 1225 627 1198 656 1225 b 772 1158 743 1225 772 1198 b 700 1091 772 1118 743 1091 m 337 1158 b 270 1095 337 1121 310 1095 l 215 1095 l 215 1221 l 270 1221 b 337 1158 310 1221 337 1196 m 439 1095 l 351 1095 l 351 1221 l 438 1221 l 438 1187 l 393 1187 l 393 1174 l 433 1174 l 433 1142 l 393 1142 l 393 1129 l 439 1129 m 491 1095 l 449 1095 l 467 1221 l 509 1221 l 535 1160 l 561 1221 l 603 1221 l 621 1095 l 579 1095 l 572 1159 l 542 1095 l 528 1095 l 498 1159 m 700 1186 b 672 1158 683 1186 672 1175 b 700 1130 672 1141 683 1130 b 727 1158 716 1130 727 1141 b 700 1186 727 1175 716 1186 m 267 1133 b 294 1158 283 1133 294 1142 b 267 1183 294 1174 283 1183 l 258 1183 l 258 1133 m 621 380 l 621 0 l 349 0 l 349 381 l 11 972 l 308 972 l 486 621 l 664 972 l 961 972 "},"Ÿ":{"ha":971,"x_min":0,"x_max":0,"o":"m 693 1091 b 620 1158 649 1091 620 1118 b 693 1225 620 1198 649 1225 b 765 1158 736 1225 765 1198 b 693 1091 765 1118 736 1091 m 330 1158 b 263 1095 330 1121 303 1095 l 209 1095 l 209 1221 l 263 1221 b 330 1158 303 1221 330 1196 m 432 1095 l 344 1095 l 344 1221 l 431 1221 l 431 1187 l 386 1187 l 386 1174 l 426 1174 l 426 1142 l 386 1142 l 386 1129 l 432 1129 m 484 1095 l 442 1095 l 460 1221 l 502 1221 l 528 1160 l 554 1221 l 596 1221 l 614 1095 l 572 1095 l 565 1159 l 535 1095 l 521 1095 l 491 1159 m 693 1186 b 665 1158 676 1186 665 1175 b 693 1130 665 1141 676 1130 b 720 1158 709 1130 720 1141 b 693 1186 720 1175 709 1186 m 260 1133 b 287 1158 277 1133 287 1142 b 260 1183 287 1174 277 1183 l 251 1183 l 251 1133 m 961 972 l 622 380 l 622 0 l 349 0 l 349 381 l 11 972 l 308 972 l 486 621 l 664 972 "},"Ỳ":{"ha":971,"x_min":0,"x_max":0,"o":"m 698 1225 b 770 1158 741 1225 770 1198 b 698 1091 770 1118 741 1091 b 625 1158 654 1091 625 1118 b 698 1225 625 1198 654 1225 m 268 1221 b 335 1158 308 1221 335 1196 b 268 1095 335 1121 308 1095 l 214 1095 l 214 1221 l 268 1221 m 391 1129 l 437 1129 l 437 1095 l 349 1095 l 349 1221 l 436 1221 l 436 1187 l 391 1187 l 391 1174 l 431 1174 l 431 1142 l 391 1142 m 601 1221 l 619 1095 l 577 1095 l 570 1159 l 540 1095 l 526 1095 l 496 1159 l 489 1095 l 447 1095 l 466 1221 l 507 1221 l 533 1160 l 559 1221 m 698 1130 b 725 1158 714 1130 725 1141 b 698 1186 725 1175 714 1186 b 670 1158 681 1186 670 1175 b 698 1130 670 1141 681 1130 m 265 1133 b 292 1158 282 1133 292 1142 b 265 1183 292 1174 282 1183 l 256 1183 l 256 1133 l 265 1133 m 621 380 l 621 0 l 349 0 l 349 381 l 11 972 l 308 972 l 486 621 l 664 972 l 961 972 "},"Z":{"ha":838,"x_min":0,"x_max":0,"o":"m 802 249 l 802 0 l 32 0 l 32 56 l 392 723 l 56 723 l 56 972 l 785 972 l 785 912 l 427 249 "},"Ź":{"ha":838,"x_min":0,"x_max":0,"o":"m 645 1091 b 572 1158 601 1091 572 1118 b 645 1225 572 1198 601 1225 b 717 1158 688 1225 717 1198 b 645 1091 717 1118 688 1091 m 282 1158 b 215 1095 282 1121 255 1095 l 161 1095 l 161 1221 l 215 1221 b 282 1158 255 1221 282 1196 m 384 1095 l 296 1095 l 296 1221 l 383 1221 l 383 1187 l 338 1187 l 338 1174 l 378 1174 l 378 1142 l 338 1142 l 338 1129 l 384 1129 m 436 1095 l 394 1095 l 412 1221 l 454 1221 l 480 1160 l 506 1221 l 548 1221 l 566 1095 l 524 1095 l 517 1159 l 487 1095 l 473 1095 l 443 1159 m 645 1186 b 617 1158 628 1186 617 1175 b 645 1130 617 1141 628 1130 b 672 1158 661 1130 672 1141 b 645 1186 672 1175 661 1186 m 212 1133 b 239 1158 229 1133 239 1142 b 212 1183 239 1174 229 1183 l 203 1183 l 203 1133 m 802 249 l 802 0 l 32 0 l 32 56 l 392 723 l 56 723 l 56 972 l 785 972 l 785 912 l 427 249 "},"Ž":{"ha":838,"x_min":0,"x_max":0,"o":"m 636 1091 b 564 1158 593 1091 564 1118 b 636 1225 564 1198 593 1225 b 709 1158 680 1225 709 1198 b 636 1091 709 1118 680 1091 m 273 1158 b 206 1095 273 1121 246 1095 l 152 1095 l 152 1221 l 206 1221 b 273 1158 246 1221 273 1196 m 375 1095 l 288 1095 l 288 1221 l 374 1221 l 374 1187 l 329 1187 l 329 1174 l 370 1174 l 370 1142 l 329 1142 l 329 1129 l 375 1129 m 428 1095 l 385 1095 l 404 1221 l 446 1221 l 471 1160 l 498 1221 l 539 1221 l 558 1095 l 516 1095 l 508 1159 l 479 1095 l 464 1095 l 435 1159 m 636 1186 b 609 1158 620 1186 609 1175 b 636 1130 609 1141 620 1130 b 664 1158 653 1130 664 1141 b 636 1186 664 1175 653 1186 m 203 1133 b 230 1158 220 1133 230 1142 b 203 1183 230 1174 220 1183 l 194 1183 l 194 1133 m 802 249 l 802 0 l 32 0 l 32 56 l 392 723 l 56 723 l 56 972 l 785 972 l 785 912 l 427 249 "},"Ż":{"ha":838,"x_min":0,"x_max":0,"o":"m 645 1091 b 573 1158 602 1091 573 1118 b 645 1225 573 1198 602 1225 b 718 1158 689 1225 718 1198 b 645 1091 718 1118 689 1091 m 282 1158 b 215 1095 282 1121 255 1095 l 161 1095 l 161 1221 l 215 1221 b 282 1158 255 1221 282 1196 m 384 1095 l 296 1095 l 296 1221 l 383 1221 l 383 1187 l 338 1187 l 338 1174 l 379 1174 l 379 1142 l 338 1142 l 338 1129 l 384 1129 m 437 1095 l 394 1095 l 413 1221 l 454 1221 l 480 1160 l 506 1221 l 548 1221 l 567 1095 l 525 1095 l 517 1159 l 488 1095 l 473 1095 l 444 1159 m 645 1186 b 618 1158 629 1186 618 1175 b 645 1130 618 1141 629 1130 b 673 1158 662 1130 673 1141 b 645 1186 673 1175 662 1186 m 212 1133 b 239 1158 229 1133 239 1142 b 212 1183 239 1174 229 1183 l 203 1183 l 203 1133 m 802 249 l 802 0 l 32 0 l 32 56 l 392 723 l 56 723 l 56 972 l 785 972 l 785 912 l 427 249 "},"Ģ":{"ha":1115,"x_min":0,"x_max":0,"o":"m 779 1091 b 707 1158 736 1091 707 1118 b 779 1225 707 1198 736 1225 b 852 1158 823 1225 852 1198 b 779 1091 852 1118 823 1091 m 417 1158 b 349 1095 417 1121 389 1095 l 295 1095 l 295 1221 l 349 1221 b 417 1158 389 1221 417 1196 m 518 1095 l 431 1095 l 431 1221 l 518 1221 l 518 1187 l 472 1187 l 472 1174 l 513 1174 l 513 1142 l 472 1142 l 472 1129 l 518 1129 m 571 1095 l 528 1095 l 547 1221 l 589 1221 l 615 1160 l 641 1221 l 682 1221 l 701 1095 l 659 1095 l 651 1159 l 622 1095 l 607 1095 l 578 1159 m 779 1186 b 752 1158 763 1186 752 1175 b 779 1130 752 1141 763 1130 b 807 1158 796 1130 807 1141 b 779 1186 807 1175 796 1186 m 347 1133 b 373 1158 363 1133 373 1142 b 347 1183 373 1174 363 1183 l 338 1183 l 338 1133 m 1074 520 b 562 -25 1074 201 866 -25 b 44 485 264 -25 44 190 b 559 997 44 781 260 997 b 1064 611 814 997 1023 837 l 783 611 b 562 746 748 693 661 746 b 318 485 416 746 318 641 b 562 226 318 332 415 226 b 782 351 664 226 752 276 l 541 351 l 541 520 "},"Ķ":{"ha":940,"x_min":0,"x_max":0,"o":"m 669 1091 b 596 1158 625 1091 596 1118 b 669 1225 596 1198 625 1225 b 741 1158 712 1225 741 1198 b 669 1091 741 1118 712 1091 m 306 1158 b 239 1095 306 1121 279 1095 l 185 1095 l 185 1221 l 239 1221 b 306 1158 279 1221 306 1196 m 408 1095 l 320 1095 l 320 1221 l 407 1221 l 407 1187 l 362 1187 l 362 1174 l 402 1174 l 402 1142 l 362 1142 l 362 1129 l 408 1129 m 460 1095 l 418 1095 l 437 1221 l 478 1221 l 504 1160 l 530 1221 l 572 1221 l 590 1095 l 548 1095 l 541 1159 l 511 1095 l 497 1095 l 468 1159 m 669 1186 b 641 1158 652 1186 641 1175 b 669 1130 641 1141 652 1130 b 697 1158 685 1130 697 1141 b 669 1186 697 1175 685 1186 m 236 1133 b 263 1158 253 1133 263 1142 b 236 1183 263 1174 253 1183 l 227 1183 l 227 1133 m 641 0 l 362 430 l 362 0 l 94 0 l 94 972 l 362 972 l 362 562 l 619 972 l 929 972 l 618 501 l 958 0 "},"Ļ":{"ha":738,"x_min":0,"x_max":0,"o":"m 446 1091 b 373 1158 402 1091 373 1118 b 446 1225 373 1198 402 1225 b 518 1158 489 1225 518 1198 b 446 1091 518 1118 489 1091 m 16 1221 b 83 1158 56 1221 83 1196 b 16 1095 83 1121 56 1095 l -38 1095 l -38 1221 l 16 1221 m 185 1095 l 97 1095 l 97 1221 l 184 1221 l 184 1187 l 139 1187 l 139 1174 l 179 1174 l 179 1142 l 139 1142 l 139 1129 l 185 1129 m 237 1095 l 195 1095 l 213 1221 l 255 1221 l 281 1160 l 307 1221 l 349 1221 l 367 1095 l 325 1095 l 318 1159 l 288 1095 l 274 1095 l 244 1159 m 446 1186 b 418 1158 429 1186 418 1175 b 446 1130 418 1141 429 1130 b 473 1158 462 1130 473 1141 b 446 1186 473 1175 462 1186 m 13 1133 b 40 1158 30 1133 40 1142 b 13 1183 40 1174 30 1183 l 4 1183 l 4 1133 l 13 1133 m 711 245 l 711 0 l 94 0 l 94 972 l 365 972 l 365 245 "},"Ņ":{"ha":1056,"x_min":0,"x_max":0,"o":"m 744 1091 b 672 1158 701 1091 672 1118 b 744 1225 672 1198 701 1225 b 817 1158 788 1225 817 1198 b 744 1091 817 1118 788 1091 m 381 1158 b 314 1095 381 1121 354 1095 l 260 1095 l 260 1221 l 314 1221 b 381 1158 354 1221 381 1196 m 483 1095 l 395 1095 l 395 1221 l 482 1221 l 482 1187 l 437 1187 l 437 1174 l 478 1174 l 478 1142 l 437 1142 l 437 1129 l 483 1129 m 536 1095 l 493 1095 l 512 1221 l 553 1221 l 579 1160 l 606 1221 l 647 1221 l 666 1095 l 624 1095 l 616 1159 l 587 1095 l 572 1095 l 543 1159 m 744 1186 b 717 1158 728 1186 717 1175 b 744 1130 717 1141 728 1130 b 772 1158 761 1130 772 1141 b 744 1186 772 1175 761 1186 m 311 1133 b 338 1158 328 1133 338 1142 b 311 1183 338 1174 328 1183 l 302 1183 l 302 1133 m 961 972 l 961 0 l 740 0 l 354 528 l 354 0 l 94 0 l 94 972 l 328 972 l 702 462 l 702 972 "},"Ŗ":{"ha":939,"x_min":0,"x_max":0,"o":"m 646 1091 b 574 1158 603 1091 574 1118 b 646 1225 574 1198 603 1225 b 719 1158 690 1225 719 1198 b 646 1091 719 1118 690 1091 m 283 1158 b 216 1095 283 1121 256 1095 l 162 1095 l 162 1221 l 216 1221 b 283 1158 256 1221 283 1196 m 385 1095 l 298 1095 l 298 1221 l 384 1221 l 384 1187 l 339 1187 l 339 1174 l 380 1174 l 380 1142 l 339 1142 l 339 1129 l 385 1129 m 438 1095 l 395 1095 l 414 1221 l 456 1221 l 482 1160 l 508 1221 l 549 1221 l 568 1095 l 526 1095 l 518 1159 l 489 1095 l 474 1095 l 445 1159 m 646 1186 b 619 1158 630 1186 619 1175 b 646 1130 619 1141 630 1130 b 674 1158 663 1130 674 1141 b 646 1186 674 1175 663 1186 m 214 1133 b 240 1158 230 1133 240 1142 b 214 1183 240 1174 230 1183 l 204 1183 l 204 1133 m 459 297 l 362 297 l 362 0 l 94 0 l 94 972 l 515 972 b 877 628 725 972 877 831 b 723 354 877 509 819 411 l 916 0 l 617 0 m 362 523 l 484 523 b 602 629 559 523 602 568 b 484 734 602 690 559 734 l 362 734 "},"Ţ":{"ha":849,"x_min":0,"x_max":0,"o":"m 630 1091 b 557 1158 586 1091 557 1118 b 630 1225 557 1198 586 1225 b 702 1158 673 1225 702 1198 b 630 1091 702 1118 673 1091 m 267 1158 b 200 1095 267 1121 240 1095 l 145 1095 l 145 1221 l 200 1221 b 267 1158 240 1221 267 1196 m 369 1095 l 281 1095 l 281 1221 l 368 1221 l 368 1187 l 323 1187 l 323 1174 l 363 1174 l 363 1142 l 323 1142 l 323 1129 l 369 1129 m 421 1095 l 379 1095 l 397 1221 l 439 1221 l 465 1160 l 491 1221 l 533 1221 l 551 1095 l 509 1095 l 502 1159 l 472 1095 l 458 1095 l 428 1159 m 630 1186 b 602 1158 613 1186 602 1175 b 630 1130 602 1141 613 1130 b 657 1158 646 1130 657 1141 b 630 1186 657 1175 646 1186 m 197 1133 b 224 1158 213 1133 224 1142 b 197 1183 224 1174 213 1183 l 188 1183 l 188 1133 m 823 731 l 559 731 l 559 0 l 290 0 l 290 731 l 26 731 l 26 972 l 823 972 "},"Ș":{"ha":874,"x_min":0,"x_max":0,"o":"m 631 1225 b 704 1158 675 1225 704 1198 b 631 1091 704 1118 675 1091 b 559 1158 588 1091 559 1118 b 631 1225 559 1198 588 1225 m 202 1221 b 269 1158 241 1221 269 1196 b 202 1095 269 1121 241 1095 l 147 1095 l 147 1221 l 202 1221 m 324 1129 l 371 1129 l 371 1095 l 283 1095 l 283 1221 l 370 1221 l 370 1187 l 324 1187 l 324 1174 l 365 1174 l 365 1142 l 324 1142 m 535 1221 l 553 1095 l 511 1095 l 503 1159 l 474 1095 l 459 1095 l 430 1159 l 423 1095 l 380 1095 l 399 1221 l 441 1221 l 467 1160 l 493 1221 m 631 1130 b 659 1158 648 1130 659 1141 b 631 1186 659 1175 648 1186 b 604 1158 615 1186 604 1175 b 631 1130 604 1141 615 1130 m 199 1133 b 226 1158 215 1133 226 1142 b 199 1183 226 1174 215 1183 l 190 1183 l 190 1133 l 199 1133 m 438 -24 b 47 314 200 -24 47 102 l 323 314 b 438 211 323 244 377 211 b 547 294 494 211 547 241 b 379 395 547 355 472 372 b 59 694 239 430 59 473 b 429 995 59 886 200 995 b 796 678 662 995 796 876 l 527 678 b 426 768 527 739 481 768 b 332 702 378 768 332 747 b 497 606 332 647 406 629 b 827 299 640 569 827 521 b 438 -24 827 86 664 -24 "},"Ț":{"ha":849,"x_min":0,"x_max":0,"o":"m 630 1091 b 557 1158 586 1091 557 1118 b 630 1225 557 1198 586 1225 b 702 1158 673 1225 702 1198 b 630 1091 702 1118 673 1091 m 267 1158 b 200 1095 267 1121 240 1095 l 145 1095 l 145 1221 l 200 1221 b 267 1158 240 1221 267 1196 m 369 1095 l 281 1095 l 281 1221 l 368 1221 l 368 1187 l 323 1187 l 323 1174 l 363 1174 l 363 1142 l 323 1142 l 323 1129 l 369 1129 m 421 1095 l 379 1095 l 397 1221 l 439 1221 l 465 1160 l 491 1221 l 533 1221 l 551 1095 l 509 1095 l 502 1159 l 472 1095 l 458 1095 l 428 1159 m 630 1186 b 602 1158 613 1186 602 1175 b 630 1130 602 1141 613 1130 b 657 1158 646 1130 657 1141 b 630 1186 657 1175 646 1186 m 197 1133 b 224 1158 213 1133 224 1142 b 197 1183 224 1174 213 1183 l 188 1183 l 188 1133 m 823 731 l 559 731 l 559 0 l 290 0 l 290 731 l 26 731 l 26 972 l 823 972 "},"a":{"ha":961,"x_min":0,"x_max":0,"o":"m 880 751 l 880 1 l 680 1 l 658 54 b 431 -25 596 4 519 -25 b 38 376 202 -25 38 143 b 431 773 38 608 202 773 b 661 693 520 773 599 744 l 687 751 m 466 204 b 634 375 563 204 634 277 b 466 546 634 473 563 546 b 298 375 369 546 298 473 b 466 204 298 277 369 204 "},"á":{"ha":961,"x_min":0,"x_max":0,"o":"m 689 855 b 617 922 646 855 617 882 b 689 989 617 962 646 989 b 762 922 733 989 762 962 b 689 855 762 882 733 855 m 327 922 b 260 858 327 885 299 858 l 205 858 l 205 985 l 260 985 b 327 922 299 985 327 960 m 429 858 l 341 858 l 341 985 l 428 985 l 428 951 l 382 951 l 382 938 l 423 938 l 423 906 l 382 906 l 382 893 l 429 893 m 481 858 l 438 858 l 457 985 l 499 985 l 525 924 l 551 985 l 593 985 l 611 858 l 569 858 l 562 923 l 532 858 l 518 858 l 488 922 m 689 950 b 662 922 673 950 662 939 b 689 894 662 905 673 894 b 717 922 706 894 717 905 b 689 950 717 939 706 950 m 257 897 b 284 922 273 897 284 906 b 257 947 284 938 273 947 l 248 947 l 248 897 m 880 751 l 880 1 l 680 1 l 658 54 b 431 -25 596 4 519 -25 b 38 376 202 -25 38 143 b 431 773 38 608 202 773 b 661 693 520 773 599 744 l 687 751 m 466 204 b 634 375 563 204 634 277 b 466 546 634 473 563 546 b 298 375 369 546 298 473 b 466 204 298 277 369 204 "},"ă":{"ha":961,"x_min":0,"x_max":0,"o":"m 687 855 b 615 922 644 855 615 882 b 687 989 615 962 644 989 b 760 922 731 989 760 962 b 687 855 760 882 731 855 m 324 922 b 257 858 324 885 297 858 l 203 858 l 203 985 l 257 985 b 324 922 297 985 324 960 m 426 858 l 339 858 l 339 985 l 425 985 l 425 951 l 380 951 l 380 938 l 421 938 l 421 906 l 380 906 l 380 893 l 426 893 m 479 858 l 436 858 l 455 985 l 497 985 l 523 924 l 549 985 l 590 985 l 609 858 l 567 858 l 559 923 l 530 858 l 515 858 l 486 922 m 687 950 b 660 922 671 950 660 939 b 687 894 660 905 671 894 b 715 922 704 894 715 905 b 687 950 715 939 704 950 m 255 897 b 281 922 271 897 281 906 b 255 947 281 938 271 947 l 245 947 l 245 897 m 880 751 l 880 1 l 680 1 l 658 54 b 431 -25 596 4 519 -25 b 38 376 202 -25 38 143 b 431 773 38 608 202 773 b 661 693 520 773 599 744 l 687 751 m 466 204 b 634 375 563 204 634 277 b 466 546 634 473 563 546 b 298 375 369 546 298 473 b 466 204 298 277 369 204 "},"â":{"ha":961,"x_min":0,"x_max":0,"o":"m 690 855 b 617 922 646 855 617 882 b 690 989 617 962 646 989 b 762 922 733 989 762 962 b 690 855 762 882 733 855 m 327 922 b 260 858 327 885 300 858 l 205 858 l 205 985 l 260 985 b 327 922 300 985 327 960 m 429 858 l 341 858 l 341 985 l 428 985 l 428 951 l 383 951 l 383 938 l 423 938 l 423 906 l 383 906 l 383 893 l 429 893 m 481 858 l 439 858 l 457 985 l 499 985 l 525 924 l 551 985 l 593 985 l 611 858 l 569 858 l 562 923 l 532 858 l 518 858 l 488 922 m 690 950 b 662 922 673 950 662 939 b 690 894 662 905 673 894 b 717 922 706 894 717 905 b 690 950 717 939 706 950 m 257 897 b 284 922 273 897 284 906 b 257 947 284 938 273 947 l 248 947 l 248 897 m 880 751 l 880 1 l 680 1 l 658 54 b 431 -25 596 4 519 -25 b 38 376 202 -25 38 143 b 431 773 38 608 202 773 b 661 693 520 773 599 744 l 687 751 m 466 204 b 634 375 563 204 634 277 b 466 546 634 473 563 546 b 298 375 369 546 298 473 b 466 204 298 277 369 204 "},"ä":{"ha":961,"x_min":0,"x_max":0,"o":"m 688 855 b 616 922 645 855 616 882 b 688 989 616 962 645 989 b 761 922 732 989 761 962 b 688 855 761 882 732 855 m 325 922 b 258 858 325 885 298 858 l 204 858 l 204 985 l 258 985 b 325 922 298 985 325 960 m 427 858 l 340 858 l 340 985 l 426 985 l 426 951 l 381 951 l 381 938 l 422 938 l 422 906 l 381 906 l 381 893 l 427 893 m 480 858 l 437 858 l 456 985 l 498 985 l 523 924 l 550 985 l 591 985 l 610 858 l 568 858 l 560 923 l 531 858 l 516 858 l 487 922 m 688 950 b 661 922 672 950 661 939 b 688 894 661 905 672 894 b 716 922 705 894 716 905 b 688 950 716 939 705 950 m 255 897 b 282 922 272 897 282 906 b 255 947 282 938 272 947 l 246 947 l 246 897 m 880 751 l 880 1 l 680 1 l 658 54 b 431 -25 596 4 519 -25 b 38 376 202 -25 38 143 b 431 773 38 608 202 773 b 661 693 520 773 599 744 l 687 751 m 466 204 b 634 375 563 204 634 277 b 466 546 634 473 563 546 b 298 375 369 546 298 473 b 466 204 298 277 369 204 "},"à":{"ha":961,"x_min":0,"x_max":0,"o":"m 681 855 b 608 922 637 855 608 882 b 681 989 608 962 637 989 b 753 922 724 989 753 962 b 681 855 753 882 724 855 m 318 922 b 251 858 318 885 291 858 l 197 858 l 197 985 l 251 985 b 318 922 291 985 318 960 m 420 858 l 332 858 l 332 985 l 419 985 l 419 951 l 374 951 l 374 938 l 414 938 l 414 906 l 374 906 l 374 893 l 420 893 m 472 858 l 430 858 l 449 985 l 490 985 l 516 924 l 542 985 l 584 985 l 602 858 l 560 858 l 553 923 l 523 858 l 509 858 l 479 922 m 681 950 b 653 922 664 950 653 939 b 681 894 653 905 664 894 b 708 922 697 894 708 905 b 681 950 708 939 697 950 m 248 897 b 275 922 265 897 275 906 b 248 947 275 938 265 947 l 239 947 l 239 897 m 880 751 l 880 1 l 680 1 l 658 54 b 431 -25 596 4 519 -25 b 38 376 202 -25 38 143 b 431 773 38 608 202 773 b 661 693 520 773 599 744 l 687 751 m 466 204 b 634 375 563 204 634 277 b 466 546 634 473 563 546 b 298 375 369 546 298 473 b 466 204 298 277 369 204 "},"ā":{"ha":961,"x_min":0,"x_max":0,"o":"m 688 855 b 616 922 645 855 616 882 b 688 989 616 962 645 989 b 761 922 732 989 761 962 b 688 855 761 882 732 855 m 326 922 b 259 858 326 885 298 858 l 204 858 l 204 985 l 259 985 b 326 922 298 985 326 960 m 427 858 l 340 858 l 340 985 l 427 985 l 427 951 l 381 951 l 381 938 l 422 938 l 422 906 l 381 906 l 381 893 l 427 893 m 480 858 l 437 858 l 456 985 l 498 985 l 524 924 l 550 985 l 591 985 l 610 858 l 568 858 l 560 923 l 531 858 l 516 858 l 487 922 m 688 950 b 661 922 672 950 661 939 b 688 894 661 905 672 894 b 716 922 705 894 716 905 b 688 950 716 939 705 950 m 256 897 b 282 922 272 897 282 906 b 256 947 282 938 272 947 l 247 947 l 247 897 m 880 751 l 880 1 l 680 1 l 658 54 b 431 -25 596 4 519 -25 b 38 376 202 -25 38 143 b 431 773 38 608 202 773 b 661 693 520 773 599 744 l 687 751 m 466 204 b 634 375 563 204 634 277 b 466 546 634 473 563 546 b 298 375 369 546 298 473 b 466 204 298 277 369 204 "},"ą":{"ha":961,"x_min":0,"x_max":0,"o":"m 688 855 b 616 922 645 855 616 882 b 688 989 616 962 645 989 b 761 922 732 989 761 962 b 688 855 761 882 732 855 m 326 922 b 259 858 326 885 298 858 l 204 858 l 204 985 l 259 985 b 326 922 298 985 326 960 m 427 858 l 340 858 l 340 985 l 427 985 l 427 951 l 381 951 l 381 938 l 422 938 l 422 906 l 381 906 l 381 893 l 427 893 m 480 858 l 437 858 l 456 985 l 498 985 l 524 924 l 550 985 l 591 985 l 610 858 l 568 858 l 560 923 l 531 858 l 516 858 l 487 922 m 688 950 b 661 922 672 950 661 939 b 688 894 661 905 672 894 b 716 922 705 894 716 905 b 688 950 716 939 705 950 m 256 897 b 282 922 272 897 282 906 b 256 947 282 938 272 947 l 247 947 l 247 897 m 880 751 l 880 1 l 680 1 l 658 54 b 431 -25 596 4 519 -25 b 38 376 202 -25 38 143 b 431 773 38 608 202 773 b 661 693 520 773 599 744 l 687 751 m 466 204 b 634 375 563 204 634 277 b 466 546 634 473 563 546 b 298 375 369 546 298 473 b 466 204 298 277 369 204 "},"å":{"ha":961,"x_min":0,"x_max":0,"o":"m 688 855 b 616 922 645 855 616 882 b 688 989 616 962 645 989 b 761 922 732 989 761 962 b 688 855 761 882 732 855 m 325 922 b 258 858 325 885 298 858 l 204 858 l 204 985 l 258 985 b 325 922 298 985 325 960 m 427 858 l 340 858 l 340 985 l 426 985 l 426 951 l 381 951 l 381 938 l 422 938 l 422 906 l 381 906 l 381 893 l 427 893 m 480 858 l 437 858 l 456 985 l 498 985 l 523 924 l 550 985 l 591 985 l 610 858 l 568 858 l 560 923 l 531 858 l 516 858 l 487 922 m 688 950 b 661 922 672 950 661 939 b 688 894 661 905 672 894 b 716 922 705 894 716 905 b 688 950 716 939 705 950 m 255 897 b 282 922 272 897 282 906 b 255 947 282 938 272 947 l 246 947 l 246 897 m 880 751 l 880 1 l 680 1 l 658 54 b 431 -25 596 4 519 -25 b 38 376 202 -25 38 143 b 431 773 38 608 202 773 b 661 693 520 773 599 744 l 687 751 m 466 204 b 634 375 563 204 634 277 b 466 546 634 473 563 546 b 298 375 369 546 298 473 b 466 204 298 277 369 204 "},"ã":{"ha":961,"x_min":0,"x_max":0,"o":"m 689 855 b 617 922 646 855 617 882 b 689 989 617 962 646 989 b 762 922 733 989 762 962 b 689 855 762 882 733 855 m 326 922 b 259 858 326 885 299 858 l 205 858 l 205 985 l 259 985 b 326 922 299 985 326 960 m 428 858 l 341 858 l 341 985 l 427 985 l 427 951 l 382 951 l 382 938 l 423 938 l 423 906 l 382 906 l 382 893 l 428 893 m 481 858 l 438 858 l 457 985 l 499 985 l 524 924 l 551 985 l 592 985 l 611 858 l 569 858 l 561 923 l 532 858 l 517 858 l 488 922 m 689 950 b 662 922 673 950 662 939 b 689 894 662 905 673 894 b 717 922 706 894 717 905 b 689 950 717 939 706 950 m 256 897 b 283 922 273 897 283 906 b 256 947 283 938 273 947 l 247 947 l 247 897 m 880 751 l 880 1 l 680 1 l 658 54 b 431 -25 596 4 519 -25 b 38 376 202 -25 38 143 b 431 773 38 608 202 773 b 661 693 520 773 599 744 l 687 751 m 466 204 b 634 375 563 204 634 277 b 466 546 634 473 563 546 b 298 375 369 546 298 473 b 466 204 298 277 369 204 "},"æ":{"ha":794,"x_min":0,"x_max":0,"o":"m 398 738 b 277 868 325 738 277 790 b 398 998 277 946 325 998 b 518 868 470 998 518 946 b 398 738 518 790 470 738 m 398 918 b 347 868 367 918 347 898 b 398 819 347 839 367 819 b 448 868 428 819 448 839 b 398 918 448 898 428 918 m 284 694 l 511 728 l 511 652 l 396 639 l 511 586 l 511 560 l 397 507 l 511 494 l 511 418 l 284 452 l 284 526 l 393 573 l 284 620 m 450 400 l 511 400 l 511 243 l 284 243 l 284 399 l 345 399 l 345 318 l 370 318 l 370 390 l 426 390 l 426 318 l 450 318 m 398 218 b 511 98 464 218 511 169 l 511 0 l 284 0 l 284 98 b 398 218 284 169 330 218 m 398 140 b 352 92 370 140 352 122 l 352 76 l 443 76 l 443 92 b 398 140 443 122 426 140 "},"ǽ":{"ha":794,"x_min":0,"x_max":0,"o":"m 398 738 b 277 868 325 738 277 790 b 398 998 277 946 325 998 b 518 868 470 998 518 946 b 398 738 518 790 470 738 m 398 918 b 347 868 367 918 347 898 b 398 819 347 839 367 819 b 448 868 428 819 448 839 b 398 918 448 898 428 918 m 284 694 l 511 728 l 511 652 l 396 639 l 511 586 l 511 560 l 397 507 l 511 494 l 511 418 l 284 452 l 284 526 l 393 573 l 284 620 m 450 400 l 511 400 l 511 243 l 284 243 l 284 399 l 345 399 l 345 318 l 370 318 l 370 390 l 426 390 l 426 318 l 450 318 m 398 218 b 511 98 464 218 511 169 l 511 0 l 284 0 l 284 98 b 398 218 284 169 330 218 m 398 140 b 352 92 370 140 352 122 l 352 76 l 443 76 l 443 92 b 398 140 443 122 426 140 "},"b":{"ha":954,"x_min":0,"x_max":0,"o":"m 523 773 b 917 374 754 773 917 608 b 523 -25 917 141 754 -25 b 297 56 435 -25 358 5 l 272 0 l 81 0 l 81 1021 l 337 1021 l 337 722 b 523 773 390 755 454 773 m 488 204 b 656 374 585 204 656 277 b 488 545 656 472 585 545 b 321 374 392 545 321 472 b 488 204 321 277 392 204 "},"c":{"ha":883,"x_min":0,"x_max":0,"o":"m 452 -25 b 38 376 212 -25 38 144 b 453 773 38 608 211 773 b 850 441 664 773 822 641 l 599 441 b 452 542 577 502 520 542 b 297 375 362 542 297 473 b 452 207 297 278 362 207 b 599 316 522 207 578 249 l 853 316 b 452 -25 824 113 664 -25 "},"ć":{"ha":883,"x_min":0,"x_max":0,"o":"m 666 989 b 739 922 710 989 739 962 b 666 855 739 882 710 855 b 594 922 623 855 594 882 b 666 989 594 962 623 989 m 237 985 b 304 922 276 985 304 960 b 237 859 304 885 276 859 l 182 859 l 182 985 l 237 985 m 359 893 l 405 893 l 405 859 l 318 859 l 318 985 l 405 985 l 405 951 l 359 951 l 359 938 l 400 938 l 400 906 l 359 906 m 569 985 l 588 859 l 546 859 l 538 923 l 509 859 l 494 859 l 465 922 l 458 859 l 415 859 l 434 985 l 476 985 l 502 924 l 528 985 m 666 894 b 694 922 683 894 694 905 b 666 950 694 939 683 950 b 639 922 650 950 639 939 b 666 894 639 905 650 894 m 234 897 b 260 922 250 897 260 906 b 234 947 260 938 250 947 l 225 947 l 225 897 l 234 897 m 452 -25 b 38 376 212 -25 38 144 b 453 773 38 608 211 773 b 850 441 664 773 822 641 l 599 441 b 452 542 577 502 520 542 b 297 375 362 542 297 473 b 452 207 297 277 362 207 b 599 316 522 207 578 249 l 853 316 b 452 -25 824 113 664 -25 "},"č":{"ha":883,"x_min":0,"x_max":0,"o":"m 666 989 b 738 922 709 989 738 962 b 666 855 738 882 709 855 b 593 922 622 855 593 882 b 666 989 593 962 622 989 m 236 985 b 303 922 276 985 303 960 b 236 859 303 885 276 859 l 181 859 l 181 985 l 236 985 m 359 893 l 405 893 l 405 859 l 317 859 l 317 985 l 404 985 l 404 951 l 359 951 l 359 938 l 399 938 l 399 906 l 359 906 m 569 985 l 587 859 l 545 859 l 538 923 l 508 859 l 494 859 l 464 922 l 457 859 l 415 859 l 433 985 l 475 985 l 501 924 l 527 985 m 666 894 b 693 922 682 894 693 905 b 666 950 693 939 682 950 b 638 922 649 950 638 939 b 666 894 638 905 649 894 m 233 897 b 260 922 249 897 260 906 b 233 947 260 938 249 947 l 224 947 l 224 897 l 233 897 m 452 -25 b 38 376 212 -25 38 144 b 453 773 38 608 211 773 b 850 441 664 773 822 641 l 599 441 b 452 542 577 502 520 542 b 297 375 362 542 297 473 b 452 207 297 277 362 207 b 599 316 522 207 578 249 l 853 316 b 452 -25 824 113 664 -25 "},"ç":{"ha":883,"x_min":0,"x_max":0,"o":"m 666 989 b 738 922 709 989 738 962 b 666 855 738 882 709 855 b 593 922 622 855 593 882 b 666 989 593 962 622 989 m 236 985 b 303 922 276 985 303 960 b 236 859 303 885 276 859 l 181 859 l 181 985 l 236 985 m 359 893 l 405 893 l 405 859 l 317 859 l 317 985 l 404 985 l 404 951 l 359 951 l 359 938 l 399 938 l 399 906 l 359 906 m 569 985 l 587 859 l 545 859 l 538 923 l 508 859 l 494 859 l 464 922 l 457 859 l 415 859 l 433 985 l 475 985 l 501 924 l 527 985 m 666 894 b 693 922 682 894 693 905 b 666 950 693 939 682 950 b 638 922 649 950 638 939 b 666 894 638 905 649 894 m 233 897 b 260 922 249 897 260 906 b 233 947 260 938 249 947 l 224 947 l 224 897 l 233 897 m 452 -25 b 38 376 212 -25 38 144 b 453 773 38 608 211 773 b 850 441 664 773 822 641 l 599 441 b 452 542 577 502 520 542 b 297 375 362 542 297 473 b 452 207 297 277 362 207 b 599 316 522 207 578 249 l 853 316 b 452 -25 824 113 664 -25 "},"ĉ":{"ha":883,"x_min":0,"x_max":0,"o":"m 667 989 b 739 922 710 989 739 962 b 667 855 739 882 710 855 b 594 922 623 855 594 882 b 667 989 594 962 623 989 m 237 985 b 304 922 277 985 304 960 b 237 859 304 885 277 859 l 182 859 l 182 985 l 237 985 m 360 893 l 406 893 l 406 859 l 318 859 l 318 985 l 405 985 l 405 951 l 360 951 l 360 938 l 400 938 l 400 906 l 360 906 m 570 985 l 588 859 l 546 859 l 539 923 l 509 859 l 495 859 l 465 922 l 458 859 l 416 859 l 434 985 l 476 985 l 502 924 l 528 985 m 667 894 b 694 922 683 894 694 905 b 667 950 694 939 683 950 b 639 922 650 950 639 939 b 667 894 639 905 650 894 m 234 897 b 261 922 250 897 261 906 b 234 947 261 938 250 947 l 225 947 l 225 897 l 234 897 m 452 -25 b 38 376 212 -25 38 144 b 453 773 38 608 211 773 b 850 441 664 773 822 641 l 599 441 b 452 542 577 502 520 542 b 297 375 362 542 297 473 b 452 207 297 277 362 207 b 599 316 522 207 578 249 l 853 316 b 452 -25 824 113 664 -25 "},"ċ":{"ha":883,"x_min":0,"x_max":0,"o":"m 667 989 b 739 922 710 989 739 962 b 667 855 739 882 710 855 b 594 922 623 855 594 882 b 667 989 594 962 623 989 m 237 985 b 304 922 277 985 304 960 b 237 859 304 885 277 859 l 183 859 l 183 985 l 237 985 m 360 893 l 406 893 l 406 859 l 318 859 l 318 985 l 405 985 l 405 951 l 360 951 l 360 938 l 400 938 l 400 906 l 360 906 m 570 985 l 589 859 l 546 859 l 539 923 l 509 859 l 495 859 l 466 922 l 458 859 l 416 859 l 435 985 l 476 985 l 502 924 l 528 985 m 667 894 b 695 922 683 894 695 905 b 667 950 695 939 683 950 b 639 922 650 950 639 939 b 667 894 639 905 650 894 m 234 897 b 261 922 251 897 261 906 b 234 947 261 938 251 947 l 225 947 l 225 897 l 234 897 m 452 -25 b 38 376 212 -25 38 144 b 453 773 38 608 211 773 b 850 441 664 773 822 641 l 599 441 b 452 542 577 502 520 542 b 297 375 362 542 297 473 b 452 207 297 277 362 207 b 599 316 522 207 578 249 l 853 316 b 452 -25 824 113 664 -25 "},"d":{"ha":954,"x_min":0,"x_max":0,"o":"m 873 1021 l 873 0 l 682 0 l 658 56 b 432 -25 597 4 519 -25 b 38 375 202 -25 38 142 b 432 775 38 608 202 775 b 618 723 501 775 564 756 l 618 1021 m 466 203 b 634 375 563 203 634 277 b 466 547 634 473 563 547 b 298 375 369 547 298 473 b 466 203 298 277 369 203 "},"ð":{"ha":794,"x_min":0,"x_max":0,"o":"m 398 738 b 277 868 325 738 277 790 b 398 998 277 946 325 998 b 518 868 470 998 518 946 b 398 738 518 790 470 738 m 398 918 b 347 868 367 918 347 898 b 398 819 347 839 367 819 b 448 868 428 819 448 839 b 398 918 448 898 428 918 m 284 694 l 511 728 l 511 652 l 396 639 l 511 586 l 511 560 l 397 507 l 511 494 l 511 418 l 284 452 l 284 526 l 393 573 l 284 620 m 450 400 l 511 400 l 511 243 l 284 243 l 284 399 l 345 399 l 345 318 l 370 318 l 370 390 l 426 390 l 426 318 l 450 318 m 398 218 b 511 98 464 218 511 169 l 511 0 l 284 0 l 284 98 b 398 218 284 169 330 218 m 398 140 b 352 92 370 140 352 122 l 352 76 l 443 76 l 443 92 b 398 140 443 122 426 140 "},"ď":{"ha":794,"x_min":0,"x_max":0,"o":"m 398 738 b 277 868 325 738 277 790 b 398 998 277 946 325 998 b 518 868 470 998 518 946 b 398 738 518 790 470 738 m 398 918 b 347 868 367 918 347 898 b 398 819 347 839 367 819 b 448 868 428 819 448 839 b 398 918 448 898 428 918 m 284 694 l 511 728 l 511 652 l 396 639 l 511 586 l 511 560 l 397 507 l 511 494 l 511 418 l 284 452 l 284 526 l 393 573 l 284 620 m 450 400 l 511 400 l 511 243 l 284 243 l 284 399 l 345 399 l 345 318 l 370 318 l 370 390 l 426 390 l 426 318 l 450 318 m 398 218 b 511 98 464 218 511 169 l 511 0 l 284 0 l 284 98 b 398 218 284 169 330 218 m 398 140 b 352 92 370 140 352 122 l 352 76 l 443 76 l 443 92 b 398 140 443 122 426 140 "},"đ":{"ha":794,"x_min":0,"x_max":0,"o":"m 398 738 b 277 868 325 738 277 790 b 398 998 277 946 325 998 b 518 868 470 998 518 946 b 398 738 518 790 470 738 m 398 918 b 347 868 367 918 347 898 b 398 819 347 839 367 819 b 448 868 428 819 448 839 b 398 918 448 898 428 918 m 284 694 l 511 728 l 511 652 l 396 639 l 511 586 l 511 560 l 397 507 l 511 494 l 511 418 l 284 452 l 284 526 l 393 573 l 284 620 m 450 400 l 511 400 l 511 243 l 284 243 l 284 399 l 345 399 l 345 318 l 370 318 l 370 390 l 426 390 l 426 318 l 450 318 m 398 218 b 511 98 464 218 511 169 l 511 0 l 284 0 l 284 98 b 398 218 284 169 330 218 m 398 140 b 352 92 370 140 352 122 l 352 76 l 443 76 l 443 92 b 398 140 443 122 426 140 "},"e":{"ha":890,"x_min":0,"x_max":0,"o":"m 854 382 b 849 314 854 359 852 337 l 292 314 b 445 183 309 228 363 183 b 581 254 505 183 556 210 l 838 254 b 445 -25 785 82 633 -25 b 38 376 211 -25 38 146 b 445 775 38 605 210 775 b 854 382 687 775 854 602 m 445 572 b 296 457 370 572 317 531 l 600 457 b 445 572 577 532 523 572 "},"é":{"ha":890,"x_min":0,"x_max":0,"o":"m 659 855 b 587 922 616 855 587 882 b 659 989 587 962 616 989 b 732 922 703 989 732 962 b 659 855 732 882 703 855 m 296 922 b 229 858 296 885 269 858 l 175 858 l 175 985 l 229 985 b 296 922 269 985 296 960 m 398 858 l 310 858 l 310 985 l 397 985 l 397 951 l 352 951 l 352 938 l 392 938 l 392 906 l 352 906 l 352 893 l 398 893 m 450 858 l 408 858 l 427 985 l 468 985 l 494 924 l 520 985 l 562 985 l 581 858 l 539 858 l 531 923 l 502 858 l 487 858 l 458 922 m 659 950 b 632 922 643 950 632 939 b 659 894 632 905 643 894 b 687 922 676 894 687 905 b 659 950 687 939 676 950 m 226 897 b 253 922 243 897 253 906 b 226 947 253 938 243 947 l 217 947 l 217 897 m 854 382 b 849 314 854 359 852 337 l 292 314 b 445 183 309 228 363 183 b 581 254 505 183 556 210 l 838 254 b 445 -25 785 82 633 -25 b 38 376 211 -25 38 146 b 445 775 38 606 210 775 b 854 382 687 775 854 602 m 445 572 b 296 457 370 572 317 531 l 600 457 b 445 572 577 532 523 572 "},"ĕ":{"ha":890,"x_min":0,"x_max":0,"o":"m 657 855 b 584 922 613 855 584 882 b 657 989 584 962 613 989 b 729 922 700 989 729 962 b 657 855 729 882 700 855 m 294 922 b 227 858 294 885 267 858 l 173 858 l 173 985 l 227 985 b 294 922 267 985 294 960 m 396 858 l 308 858 l 308 985 l 395 985 l 395 951 l 350 951 l 350 938 l 390 938 l 390 906 l 350 906 l 350 893 l 396 893 m 448 858 l 406 858 l 425 985 l 466 985 l 492 924 l 518 985 l 560 985 l 578 858 l 536 858 l 529 923 l 499 858 l 485 858 l 455 922 m 657 950 b 629 922 640 950 629 939 b 657 894 629 905 640 894 b 684 922 673 894 684 905 b 657 950 684 939 673 950 m 224 897 b 251 922 241 897 251 906 b 224 947 251 938 241 947 l 215 947 l 215 897 m 854 382 b 849 314 854 359 852 337 l 292 314 b 445 183 309 228 363 183 b 581 254 505 183 556 210 l 838 254 b 445 -25 785 82 633 -25 b 38 376 211 -25 38 146 b 445 775 38 606 210 775 b 854 382 687 775 854 602 m 445 572 b 296 457 370 572 317 531 l 600 457 b 445 572 577 532 523 572 "},"ě":{"ha":890,"x_min":0,"x_max":0,"o":"m 658 855 b 586 922 615 855 586 882 b 658 989 586 962 615 989 b 731 922 702 989 731 962 b 658 855 731 882 702 855 m 296 922 b 228 858 296 885 268 858 l 174 858 l 174 985 l 228 985 b 296 922 268 985 296 960 m 397 858 l 310 858 l 310 985 l 396 985 l 396 951 l 351 951 l 351 938 l 392 938 l 392 906 l 351 906 l 351 893 l 397 893 m 450 858 l 407 858 l 426 985 l 468 985 l 494 924 l 520 985 l 561 985 l 580 858 l 538 858 l 530 923 l 501 858 l 486 858 l 457 922 m 658 950 b 631 922 642 950 631 939 b 658 894 631 905 642 894 b 686 922 675 894 686 905 b 658 950 686 939 675 950 m 226 897 b 252 922 242 897 252 906 b 226 947 252 938 242 947 l 217 947 l 217 897 m 854 382 b 849 314 854 359 852 337 l 292 314 b 445 183 309 228 363 183 b 581 254 505 183 556 210 l 838 254 b 445 -25 785 82 633 -25 b 38 376 211 -25 38 146 b 445 775 38 606 210 775 b 854 382 687 775 854 602 m 445 572 b 296 457 370 572 317 531 l 600 457 b 445 572 577 532 523 572 "},"ê":{"ha":890,"x_min":0,"x_max":0,"o":"m 659 855 b 587 922 616 855 587 882 b 659 989 587 962 616 989 b 732 922 703 989 732 962 b 659 855 732 882 703 855 m 296 922 b 229 858 296 885 269 858 l 175 858 l 175 985 l 229 985 b 296 922 269 985 296 960 m 398 858 l 310 858 l 310 985 l 397 985 l 397 951 l 352 951 l 352 938 l 393 938 l 393 906 l 352 906 l 352 893 l 398 893 m 451 858 l 408 858 l 427 985 l 469 985 l 494 924 l 521 985 l 562 985 l 581 858 l 539 858 l 531 923 l 502 858 l 487 858 l 458 922 m 659 950 b 632 922 643 950 632 939 b 659 894 632 905 643 894 b 687 922 676 894 687 905 b 659 950 687 939 676 950 m 226 897 b 253 922 243 897 253 906 b 226 947 253 938 243 947 l 217 947 l 217 897 m 854 382 b 849 314 854 359 852 337 l 292 314 b 445 183 309 228 363 183 b 581 254 505 183 556 210 l 838 254 b 445 -25 785 82 633 -25 b 38 376 211 -25 38 146 b 445 775 38 606 210 775 b 854 382 687 775 854 602 m 445 572 b 296 457 370 572 317 531 l 600 457 b 445 572 577 532 523 572 "},"ë":{"ha":890,"x_min":0,"x_max":0,"o":"m 658 855 b 585 922 614 855 585 882 b 658 989 585 962 614 989 b 730 922 701 989 730 962 b 658 855 730 882 701 855 m 295 922 b 228 858 295 885 268 858 l 174 858 l 174 985 l 228 985 b 295 922 268 985 295 960 m 397 858 l 309 858 l 309 985 l 396 985 l 396 951 l 351 951 l 351 938 l 391 938 l 391 906 l 351 906 l 351 893 l 397 893 m 449 858 l 407 858 l 425 985 l 467 985 l 493 924 l 519 985 l 561 985 l 579 858 l 537 858 l 530 923 l 500 858 l 486 858 l 456 922 m 658 950 b 630 922 641 950 630 939 b 658 894 630 905 641 894 b 685 922 674 894 685 905 b 658 950 685 939 674 950 m 225 897 b 252 922 241 897 252 906 b 225 947 252 938 241 947 l 216 947 l 216 897 m 854 382 b 849 314 854 359 852 337 l 292 314 b 445 183 309 228 363 183 b 581 254 505 183 556 210 l 838 254 b 445 -25 785 82 633 -25 b 38 376 211 -25 38 146 b 445 775 38 606 210 775 b 854 382 687 775 854 602 m 445 572 b 296 457 370 572 317 531 l 600 457 b 445 572 577 532 523 572 "},"ė":{"ha":890,"x_min":0,"x_max":0,"o":"m 660 855 b 587 922 616 855 587 882 b 660 989 587 962 616 989 b 732 922 703 989 732 962 b 660 855 732 882 703 855 m 297 922 b 230 858 297 885 270 858 l 175 858 l 175 985 l 230 985 b 297 922 270 985 297 960 m 399 858 l 311 858 l 311 985 l 398 985 l 398 951 l 353 951 l 353 938 l 393 938 l 393 906 l 353 906 l 353 893 l 399 893 m 451 858 l 409 858 l 427 985 l 469 985 l 495 924 l 521 985 l 563 985 l 581 858 l 539 858 l 532 923 l 502 858 l 488 858 l 458 922 m 660 950 b 632 922 643 950 632 939 b 660 894 632 905 643 894 b 687 922 676 894 687 905 b 660 950 687 939 676 950 m 227 897 b 254 922 243 897 254 906 b 227 947 254 938 243 947 l 218 947 l 218 897 m 854 382 b 849 314 854 359 852 337 l 292 314 b 445 183 309 228 363 183 b 581 254 505 183 556 210 l 838 254 b 445 -25 785 82 633 -25 b 38 376 211 -25 38 146 b 445 775 38 606 210 775 b 854 382 687 775 854 602 m 445 572 b 296 457 370 572 317 531 l 600 457 b 445 572 577 532 523 572 "},"è":{"ha":890,"x_min":0,"x_max":0,"o":"m 651 855 b 578 922 607 855 578 882 b 651 989 578 962 607 989 b 723 922 694 989 723 962 b 651 855 723 882 694 855 m 288 922 b 221 858 288 885 260 858 l 166 858 l 166 985 l 221 985 b 288 922 260 985 288 960 m 390 858 l 302 858 l 302 985 l 389 985 l 389 951 l 344 951 l 344 938 l 384 938 l 384 906 l 344 906 l 344 893 l 390 893 m 442 858 l 400 858 l 418 985 l 460 985 l 486 924 l 512 985 l 554 985 l 572 858 l 530 858 l 523 923 l 493 858 l 479 858 l 449 922 m 651 950 b 623 922 634 950 623 939 b 651 894 623 905 634 894 b 678 922 667 894 678 905 b 651 950 678 939 667 950 m 218 897 b 245 922 234 897 245 906 b 218 947 245 938 234 947 l 209 947 l 209 897 m 854 382 b 849 314 854 359 852 337 l 292 314 b 445 183 309 228 363 183 b 581 254 505 183 556 210 l 838 254 b 445 -25 785 82 633 -25 b 38 376 211 -25 38 146 b 445 775 38 606 210 775 b 854 382 687 775 854 602 m 445 572 b 296 457 370 572 317 531 l 600 457 b 445 572 577 532 523 572 "},"ē":{"ha":890,"x_min":0,"x_max":0,"o":"m 658 855 b 585 922 614 855 585 882 b 658 989 585 962 614 989 b 730 922 701 989 730 962 b 658 855 730 882 701 855 m 295 922 b 228 858 295 885 268 858 l 174 858 l 174 985 l 228 985 b 295 922 268 985 295 960 m 397 858 l 309 858 l 309 985 l 396 985 l 396 951 l 351 951 l 351 938 l 391 938 l 391 906 l 351 906 l 351 893 l 397 893 m 449 858 l 407 858 l 426 985 l 467 985 l 493 924 l 519 985 l 561 985 l 580 858 l 537 858 l 530 923 l 501 858 l 486 858 l 457 922 m 658 950 b 630 922 642 950 630 939 b 658 894 630 905 642 894 b 686 922 674 894 686 905 b 658 950 686 939 674 950 m 225 897 b 252 922 242 897 252 906 b 225 947 252 938 242 947 l 216 947 l 216 897 m 854 382 b 849 314 854 359 852 337 l 292 314 b 445 183 309 228 363 183 b 581 254 505 183 556 210 l 838 254 b 445 -25 785 82 633 -25 b 38 376 211 -25 38 146 b 445 775 38 606 210 775 b 854 382 687 775 854 602 m 445 572 b 296 457 370 572 317 531 l 600 457 b 445 572 577 532 523 572 "},"ę":{"ha":890,"x_min":0,"x_max":0,"o":"m 658 855 b 585 922 614 855 585 882 b 658 989 585 962 614 989 b 730 922 701 989 730 962 b 658 855 730 882 701 855 m 295 922 b 228 858 295 885 268 858 l 174 858 l 174 985 l 228 985 b 295 922 268 985 295 960 m 397 858 l 309 858 l 309 985 l 396 985 l 396 951 l 351 951 l 351 938 l 391 938 l 391 906 l 351 906 l 351 893 l 397 893 m 449 858 l 407 858 l 426 985 l 467 985 l 493 924 l 519 985 l 561 985 l 580 858 l 537 858 l 530 923 l 501 858 l 486 858 l 457 922 m 658 950 b 630 922 642 950 630 939 b 658 894 630 905 642 894 b 686 922 674 894 686 905 b 658 950 686 939 674 950 m 225 897 b 252 922 242 897 252 906 b 225 947 252 938 242 947 l 216 947 l 216 897 m 854 382 b 849 314 854 359 852 337 l 292 314 b 445 183 309 228 363 183 b 581 254 505 183 556 210 l 838 254 b 445 -25 785 82 633 -25 b 38 376 211 -25 38 146 b 445 775 38 606 210 775 b 854 382 687 775 854 602 m 445 572 b 296 457 370 572 317 531 l 600 457 b 445 572 577 532 523 572 "},"f":{"ha":600,"x_min":0,"x_max":0,"o":"m 583 535 l 415 535 l 415 0 l 156 0 l 156 535 l 32 535 l 32 738 l 159 738 l 159 810 b 401 1048 159 960 242 1048 l 581 1048 l 581 850 l 467 850 b 406 789 429 850 406 827 l 406 738 l 583 738 "},"g":{"ha":939,"x_min":0,"x_max":0,"o":"m 857 750 l 857 83 b 455 -298 857 -152 703 -298 b 59 -13 242 -298 93 -191 l 308 -13 b 453 -90 326 -63 390 -90 b 609 54 539 -90 609 -35 l 609 76 b 413 20 552 40 485 20 b 38 397 198 20 38 180 b 413 774 38 611 198 774 b 650 687 504 774 586 741 l 682 750 m 456 233 b 615 397 549 233 615 301 b 456 560 615 492 549 560 b 296 397 363 560 296 492 b 456 233 296 301 362 233 "},"ğ":{"ha":939,"x_min":0,"x_max":0,"o":"m 650 855 b 577 922 606 855 577 882 b 650 989 577 962 606 989 b 722 922 693 989 722 962 b 650 855 722 882 693 855 m 287 922 b 220 858 287 885 260 858 l 165 858 l 165 985 l 220 985 b 287 922 260 985 287 960 m 389 858 l 301 858 l 301 985 l 388 985 l 388 951 l 343 951 l 343 938 l 383 938 l 383 906 l 343 906 l 343 893 l 389 893 m 441 858 l 399 858 l 417 985 l 459 985 l 485 924 l 511 985 l 553 985 l 571 858 l 529 858 l 522 923 l 492 858 l 478 858 l 448 922 m 650 950 b 622 922 633 950 622 939 b 650 894 622 905 633 894 b 677 922 666 894 677 905 b 650 950 677 939 666 950 m 217 897 b 244 922 233 897 244 906 b 217 947 244 938 233 947 l 208 947 l 208 897 m 857 750 l 857 83 b 455 -298 857 -152 703 -298 b 59 -13 242 -298 93 -191 l 308 -13 b 453 -90 326 -63 390 -90 b 609 54 539 -90 609 -35 l 609 76 b 413 20 552 40 485 20 b 38 397 198 20 38 180 b 413 774 38 611 198 774 b 650 687 504 774 586 741 l 682 750 m 456 233 b 615 397 549 233 615 301 b 456 560 615 492 549 560 b 296 397 363 560 296 492 b 456 233 296 301 362 233 "},"ĝ":{"ha":939,"x_min":0,"x_max":0,"o":"m 652 855 b 579 922 608 855 579 882 b 652 989 579 962 608 989 b 724 922 695 989 724 962 b 652 855 724 882 695 855 m 289 922 b 222 858 289 885 262 858 l 168 858 l 168 985 l 222 985 b 289 922 262 985 289 960 m 391 858 l 303 858 l 303 985 l 390 985 l 390 951 l 345 951 l 345 938 l 385 938 l 385 906 l 345 906 l 345 893 l 391 893 m 443 858 l 401 858 l 420 985 l 461 985 l 487 924 l 513 985 l 555 985 l 574 858 l 531 858 l 524 923 l 495 858 l 480 858 l 451 922 m 652 950 b 624 922 636 950 624 939 b 652 894 624 905 636 894 b 680 922 668 894 680 905 b 652 950 680 939 668 950 m 219 897 b 246 922 236 897 246 906 b 219 947 246 938 236 947 l 210 947 l 210 897 m 857 750 l 857 83 b 455 -298 857 -152 703 -298 b 59 -13 242 -298 93 -191 l 308 -13 b 453 -90 326 -63 390 -90 b 609 54 539 -90 609 -35 l 609 76 b 413 20 552 40 485 20 b 38 397 198 20 38 180 b 413 774 38 611 198 774 b 650 687 504 774 586 741 l 682 750 m 456 233 b 615 397 549 233 615 301 b 456 560 615 492 549 560 b 296 397 363 560 296 492 b 456 233 296 301 362 233 "},"ġ":{"ha":939,"x_min":0,"x_max":0,"o":"m 652 855 b 580 922 609 855 580 882 b 652 989 580 962 609 989 b 725 922 696 989 725 962 b 652 855 725 882 696 855 m 290 922 b 223 858 290 885 262 858 l 168 858 l 168 985 l 223 985 b 290 922 262 985 290 960 m 391 858 l 304 858 l 304 985 l 391 985 l 391 951 l 345 951 l 345 938 l 386 938 l 386 906 l 345 906 l 345 893 l 391 893 m 444 858 l 401 858 l 420 985 l 462 985 l 488 924 l 514 985 l 555 985 l 574 858 l 532 858 l 524 923 l 495 858 l 480 858 l 451 922 m 652 950 b 625 922 636 950 625 939 b 652 894 625 905 636 894 b 680 922 669 894 680 905 b 652 950 680 939 669 950 m 220 897 b 246 922 236 897 246 906 b 220 947 246 938 236 947 l 211 947 l 211 897 m 857 750 l 857 83 b 455 -298 857 -152 703 -298 b 59 -13 242 -298 93 -191 l 308 -13 b 453 -90 326 -63 390 -90 b 609 54 539 -90 609 -35 l 609 76 b 413 20 552 40 485 20 b 38 397 198 20 38 180 b 413 774 38 611 198 774 b 650 687 504 774 586 741 l 682 750 m 456 233 b 615 397 549 233 615 301 b 456 560 615 492 549 560 b 296 397 363 560 296 492 b 456 233 296 301 362 233 "},"h":{"ha":896,"x_min":0,"x_max":0,"o":"m 540 772 b 823 452 712 772 823 646 l 823 0 l 564 0 l 564 422 b 466 552 564 508 534 552 b 340 401 388 552 340 497 l 340 0 l 81 0 l 81 1021 l 340 1021 l 340 701 b 540 772 395 745 465 772 "},"ħ":{"ha":896,"x_min":0,"x_max":0,"o":"m 424 1137 b 352 1204 381 1137 352 1163 b 424 1271 352 1244 381 1271 b 497 1204 468 1271 497 1244 b 424 1137 497 1163 468 1137 m -5 1267 b 62 1204 34 1267 62 1241 b -5 1140 62 1166 34 1140 l -60 1140 l -60 1267 l -5 1267 m 163 1140 l 76 1140 l 76 1267 l 163 1267 l 163 1233 l 117 1233 l 117 1219 l 158 1219 l 158 1188 l 117 1188 l 117 1174 l 163 1174 m 216 1140 l 173 1140 l 192 1267 l 234 1267 l 260 1206 l 286 1267 l 327 1267 l 346 1140 l 304 1140 l 296 1204 l 267 1140 l 252 1140 l 223 1204 m 424 1232 b 397 1204 408 1232 397 1221 b 424 1175 397 1187 408 1175 b 452 1204 441 1175 452 1187 b 424 1232 452 1221 441 1232 m -8 1178 b 18 1204 8 1178 18 1188 b -8 1229 18 1219 8 1229 l -17 1229 l -17 1178 l -8 1178 m 540 772 b 823 452 712 772 823 646 l 823 0 l 564 0 l 564 422 b 466 552 564 508 534 552 b 340 401 388 552 340 497 l 340 0 l 81 0 l 81 1021 l 340 1021 l 340 701 b 540 772 395 745 465 772 "},"ĥ":{"ha":896,"x_min":0,"x_max":0,"o":"m 424 1137 b 352 1204 381 1137 352 1163 b 424 1271 352 1244 381 1271 b 497 1204 468 1271 497 1244 b 424 1137 497 1163 468 1137 m -5 1267 b 62 1204 34 1267 62 1241 b -5 1140 62 1166 34 1140 l -60 1140 l -60 1267 l -5 1267 m 163 1140 l 76 1140 l 76 1267 l 163 1267 l 163 1233 l 117 1233 l 117 1219 l 158 1219 l 158 1188 l 117 1188 l 117 1174 l 163 1174 m 216 1140 l 173 1140 l 192 1267 l 234 1267 l 260 1206 l 286 1267 l 327 1267 l 346 1140 l 304 1140 l 296 1204 l 267 1140 l 252 1140 l 223 1204 m 424 1232 b 397 1204 408 1232 397 1221 b 424 1175 397 1187 408 1175 b 452 1204 441 1175 452 1187 b 424 1232 452 1221 441 1232 m -8 1178 b 18 1204 8 1178 18 1188 b -8 1229 18 1219 8 1229 l -17 1229 l -17 1178 l -8 1178 m 540 772 b 823 452 712 772 823 646 l 823 0 l 564 0 l 564 422 b 466 552 564 508 534 552 b 340 401 388 552 340 497 l 340 0 l 81 0 l 81 1021 l 340 1021 l 340 701 b 540 772 395 745 465 772 "},"i":{"ha":421,"x_min":0,"x_max":0,"o":"m 83 1063 l 338 1063 l 338 844 l 83 844 m 81 750 l 340 750 l 340 0 l 81 0 "},"ı":{"ha":421,"x_min":0,"x_max":0,"o":"m 81 750 l 340 750 l 340 0 l 81 0 "},"í":{"ha":421,"x_min":0,"x_max":0,"o":"m 423 989 b 496 922 467 989 496 962 b 423 855 496 882 467 855 b 351 922 380 855 351 882 b 423 989 351 962 380 989 m -6 985 b 61 922 33 985 61 960 b -6 859 61 885 33 859 l -61 859 l -61 985 l -6 985 m 163 859 l 75 859 l 75 985 l 162 985 l 162 951 l 116 951 l 116 938 l 157 938 l 157 906 l 116 906 l 116 893 l 163 893 m 327 985 l 345 859 l 303 859 l 296 923 l 266 859 l 251 859 l 222 922 l 215 859 l 172 859 l 191 985 l 233 985 l 259 924 l 285 985 m 423 894 b 451 922 440 894 451 905 b 423 950 451 939 440 950 b 396 922 407 950 396 939 b 423 894 396 905 407 894 m -9 897 b 18 922 7 897 18 906 b -9 947 18 938 7 947 l -18 947 l -18 897 l -9 897 m 81 750 l 340 750 l 340 0 l 81 0 "},"ĭ":{"ha":421,"x_min":0,"x_max":0,"o":"m 424 989 b 497 922 468 989 497 962 b 424 855 497 882 468 855 b 352 922 381 855 352 882 b 424 989 352 962 381 989 m -6 985 b 61 922 34 985 61 960 b -6 859 61 885 34 859 l -60 859 l -60 985 l -6 985 m 163 859 l 75 859 l 75 985 l 162 985 l 162 951 l 117 951 l 117 938 l 158 938 l 158 906 l 117 906 l 117 893 l 163 893 m 327 985 l 346 859 l 304 859 l 296 923 l 267 859 l 252 859 l 223 922 l 216 859 l 173 859 l 192 985 l 233 985 l 259 924 l 285 985 m 424 894 b 452 922 441 894 452 905 b 424 950 452 939 441 950 b 397 922 408 950 397 939 b 424 894 397 905 408 894 m -9 897 b 18 922 8 897 18 906 b -9 947 18 938 8 947 l -18 947 l -18 897 l -9 897 m 81 750 l 340 750 l 340 0 l 81 0 "},"î":{"ha":421,"x_min":0,"x_max":0,"o":"m 424 989 b 496 922 467 989 496 962 b 424 855 496 882 467 855 b 351 922 380 855 351 882 b 424 989 351 962 380 989 m -6 985 b 61 922 34 985 61 960 b -6 859 61 885 34 859 l -60 859 l -60 985 l -6 985 m 163 859 l 75 859 l 75 985 l 162 985 l 162 951 l 117 951 l 117 938 l 157 938 l 157 906 l 117 906 l 117 893 l 163 893 m 327 985 l 345 859 l 303 859 l 296 923 l 266 859 l 252 859 l 222 922 l 215 859 l 173 859 l 192 985 l 233 985 l 259 924 l 285 985 m 424 894 b 451 922 440 894 451 905 b 424 950 451 939 440 950 b 396 922 407 950 396 939 b 424 894 396 905 407 894 m -9 897 b 18 922 8 897 18 906 b -9 947 18 938 8 947 l -18 947 l -18 897 l -9 897 m 81 750 l 340 750 l 340 0 l 81 0 "},"ï":{"ha":421,"x_min":0,"x_max":0,"o":"m 433 989 b 505 922 476 989 505 962 b 433 855 505 882 476 855 b 360 922 389 855 360 882 b 433 989 360 962 389 989 m 3 985 b 70 922 43 985 70 960 b 3 859 70 885 43 859 l -51 859 l -51 985 l 3 985 m 172 859 l 84 859 l 84 985 l 171 985 l 171 951 l 126 951 l 126 938 l 166 938 l 166 906 l 126 906 l 126 893 l 172 893 m 336 985 l 355 859 l 312 859 l 305 923 l 276 859 l 261 859 l 232 922 l 224 859 l 182 859 l 201 985 l 242 985 l 268 924 l 294 985 m 433 894 b 461 922 449 894 461 905 b 433 950 461 939 449 950 b 405 922 416 950 405 939 b 433 894 405 905 416 894 m 0 897 b 27 922 17 897 27 906 b 0 947 27 938 17 947 l -9 947 l -9 897 l 0 897 m 81 750 l 340 750 l 340 0 l 81 0 "},"ì":{"ha":421,"x_min":0,"x_max":0,"o":"m 423 989 b 495 922 466 989 495 962 b 423 855 495 882 466 855 b 350 922 379 855 350 882 b 423 989 350 962 379 989 m -7 985 b 60 922 33 985 60 960 b -7 859 60 885 33 859 l -61 859 l -61 985 l -7 985 m 162 859 l 74 859 l 74 985 l 161 985 l 161 951 l 116 951 l 116 938 l 156 938 l 156 906 l 116 906 l 116 893 l 162 893 m 326 985 l 345 859 l 302 859 l 295 923 l 265 859 l 251 859 l 222 922 l 214 859 l 172 859 l 191 985 l 232 985 l 258 924 l 284 985 m 423 894 b 451 922 439 894 451 905 b 423 950 451 939 439 950 b 395 922 406 950 395 939 b 423 894 395 905 406 894 m -10 897 b 17 922 7 897 17 906 b -10 947 17 938 7 947 l -19 947 l -19 897 l -10 897 m 81 750 l 340 750 l 340 0 l 81 0 "},"ĳ":{"ha":794,"x_min":0,"x_max":0,"o":"m 398 738 b 277 868 325 738 277 790 b 398 998 277 946 325 998 b 518 868 470 998 518 946 b 398 738 518 790 470 738 m 398 918 b 347 868 367 918 347 898 b 398 819 347 839 367 819 b 448 868 428 819 448 839 b 398 918 448 898 428 918 m 284 694 l 511 728 l 511 652 l 396 639 l 511 586 l 511 560 l 397 507 l 511 494 l 511 418 l 284 452 l 284 526 l 393 573 l 284 620 m 450 400 l 511 400 l 511 243 l 284 243 l 284 399 l 345 399 l 345 318 l 370 318 l 370 390 l 426 390 l 426 318 l 450 318 m 398 218 b 511 98 464 218 511 169 l 511 0 l 284 0 l 284 98 b 398 218 284 169 330 218 m 398 140 b 352 92 370 140 352 122 l 352 76 l 443 76 l 443 92 b 398 140 443 122 426 140 "},"ī":{"ha":421,"x_min":0,"x_max":0,"o":"m 424 989 b 497 922 468 989 497 962 b 424 855 497 882 468 855 b 352 922 381 855 352 882 b 424 989 352 962 381 989 m -6 985 b 61 922 34 985 61 960 b -6 859 61 885 34 859 l -60 859 l -60 985 l -6 985 m 163 859 l 76 859 l 76 985 l 162 985 l 162 951 l 117 951 l 117 938 l 158 938 l 158 906 l 117 906 l 117 893 l 163 893 m 327 985 l 346 859 l 304 859 l 296 923 l 267 859 l 252 859 l 223 922 l 216 859 l 173 859 l 192 985 l 234 985 l 259 924 l 286 985 m 424 894 b 452 922 441 894 452 905 b 424 950 452 939 441 950 b 397 922 408 950 397 939 b 424 894 397 905 408 894 m -9 897 b 18 922 8 897 18 906 b -9 947 18 938 8 947 l -18 947 l -18 897 l -9 897 m 81 750 l 340 750 l 340 0 l 81 0 "},"į":{"ha":421,"x_min":0,"x_max":0,"o":"m 424 989 b 497 922 468 989 497 962 b 424 855 497 882 468 855 b 352 922 381 855 352 882 b 424 989 352 962 381 989 m -6 985 b 61 922 34 985 61 960 b -6 859 61 885 34 859 l -60 859 l -60 985 l -6 985 m 163 859 l 76 859 l 76 985 l 162 985 l 162 951 l 117 951 l 117 938 l 158 938 l 158 906 l 117 906 l 117 893 l 163 893 m 327 985 l 346 859 l 304 859 l 296 923 l 267 859 l 252 859 l 223 922 l 216 859 l 173 859 l 192 985 l 234 985 l 259 924 l 286 985 m 424 894 b 452 922 441 894 452 905 b 424 950 452 939 441 950 b 397 922 408 950 397 939 b 424 894 397 905 408 894 m -9 897 b 18 922 8 897 18 906 b -9 947 18 938 8 947 l -18 947 l -18 897 l -9 897 m 81 750 l 340 750 l 340 0 l 81 0 "},"ĩ":{"ha":421,"x_min":0,"x_max":0,"o":"m 423 989 b 495 922 466 989 495 962 b 423 855 495 882 466 855 b 350 922 379 855 350 882 b 423 989 350 962 379 989 m -7 985 b 60 922 33 985 60 960 b -7 859 60 885 33 859 l -61 859 l -61 985 l -7 985 m 162 859 l 74 859 l 74 985 l 161 985 l 161 951 l 116 951 l 116 938 l 156 938 l 156 906 l 116 906 l 116 893 l 162 893 m 326 985 l 344 859 l 302 859 l 295 923 l 265 859 l 251 859 l 221 922 l 214 859 l 172 859 l 191 985 l 232 985 l 258 924 l 284 985 m 423 894 b 450 922 439 894 450 905 b 423 950 450 939 439 950 b 395 922 406 950 395 939 b 423 894 395 905 406 894 m -10 897 b 17 922 7 897 17 906 b -10 947 17 938 7 947 l -19 947 l -19 897 l -10 897 m 81 750 l 340 750 l 340 0 l 81 0 "},"j":{"ha":438,"x_min":0,"x_max":0,"o":"m 100 1063 l 354 1063 l 354 844 l 100 844 m -59 -58 l 5 -58 b 98 42 66 -58 98 -23 l 98 750 l 356 750 l 356 20 b 38 -286 356 -172 239 -286 l -59 -286 "},"ĵ":{"ha":438,"x_min":0,"x_max":0,"o":"m 433 989 b 505 922 476 989 505 962 b 433 855 505 882 476 855 b 360 922 389 855 360 882 b 433 989 360 962 389 989 m 70 922 b 3 859 70 885 43 859 l -51 859 l -51 985 l 3 985 b 70 922 43 985 70 960 m 172 859 l 84 859 l 84 985 l 171 985 l 171 951 l 126 951 l 126 938 l 166 938 l 166 906 l 126 906 l 126 893 l 172 893 m 224 859 l 182 859 l 201 985 l 242 985 l 268 924 l 294 985 l 336 985 l 354 859 l 312 859 l 305 923 l 275 859 l 261 859 l 231 922 m 433 894 b 460 922 449 894 460 905 b 433 950 460 939 449 950 b 405 922 416 950 405 939 b 433 894 405 905 416 894 m 0 897 b 27 922 17 897 27 906 b 0 947 27 938 17 947 l -9 947 l -9 897 m 98 750 l 356 750 l 356 24 b 38 -282 356 -168 239 -282 l -59 -282 l -59 -54 l 5 -54 b 98 46 66 -54 98 -19 "},"k":{"ha":829,"x_min":0,"x_max":0,"o":"m 539 0 l 351 317 l 351 0 l 92 0 l 92 1021 l 351 1021 l 351 456 l 529 750 l 820 750 l 586 393 l 843 0 "},"ĸ":{"ha":818,"x_min":0,"x_max":0,"o":"m 528 0 l 340 317 l 340 0 l 81 0 l 81 750 l 340 750 l 340 456 l 520 750 l 808 750 l 574 391 l 832 0 "},"l":{"ha":421,"x_min":0,"x_max":0,"o":"m 81 1021 l 340 1021 l 340 0 l 81 0 "},"ĺ":{"ha":421,"x_min":0,"x_max":0,"o":"m 426 1274 b 498 1207 469 1274 498 1247 b 426 1140 498 1166 469 1140 b 353 1207 382 1140 353 1166 b 426 1274 353 1247 382 1274 m -4 1270 b 63 1207 36 1270 63 1244 b -4 1143 63 1169 36 1143 l -59 1143 l -59 1270 l -4 1270 m 119 1177 l 165 1177 l 165 1143 l 77 1143 l 77 1270 l 164 1270 l 164 1236 l 119 1236 l 119 1222 l 159 1222 l 159 1191 l 119 1191 m 329 1270 l 347 1143 l 305 1143 l 298 1207 l 268 1143 l 254 1143 l 224 1207 l 217 1143 l 175 1143 l 193 1270 l 235 1270 l 261 1209 l 287 1270 m 426 1178 b 453 1207 442 1178 453 1190 b 426 1235 453 1224 442 1235 b 398 1207 409 1235 398 1224 b 426 1178 398 1190 409 1178 m -7 1181 b 20 1207 9 1181 20 1191 b -7 1232 20 1222 9 1232 l -16 1232 l -16 1181 l -7 1181 m 81 1021 l 340 1021 l 340 0 l 81 0 "},"ľ":{"ha":421,"x_min":0,"x_max":0,"o":"m 426 1274 b 498 1207 469 1274 498 1247 b 426 1140 498 1166 469 1140 b 353 1207 382 1140 353 1166 b 426 1274 353 1247 382 1274 m -4 1270 b 63 1207 36 1270 63 1244 b -4 1143 63 1169 36 1143 l -59 1143 l -59 1270 l -4 1270 m 119 1177 l 165 1177 l 165 1143 l 77 1143 l 77 1270 l 164 1270 l 164 1236 l 119 1236 l 119 1222 l 159 1222 l 159 1191 l 119 1191 m 329 1270 l 347 1143 l 305 1143 l 298 1207 l 268 1143 l 254 1143 l 224 1207 l 217 1143 l 175 1143 l 193 1270 l 235 1270 l 261 1209 l 287 1270 m 426 1178 b 453 1207 442 1178 453 1190 b 426 1235 453 1224 442 1235 b 398 1207 409 1235 398 1224 b 426 1178 398 1190 409 1178 m -7 1181 b 20 1207 9 1181 20 1191 b -7 1232 20 1222 9 1232 l -16 1232 l -16 1181 l -7 1181 m 81 1021 l 340 1021 l 340 0 l 81 0 "},"ŀ":{"ha":421,"x_min":0,"x_max":0,"o":"m 426 1274 b 498 1207 469 1274 498 1247 b 426 1140 498 1166 469 1140 b 353 1207 382 1140 353 1166 b 426 1274 353 1247 382 1274 m -4 1270 b 63 1207 36 1270 63 1244 b -4 1143 63 1169 36 1143 l -59 1143 l -59 1270 l -4 1270 m 119 1177 l 165 1177 l 165 1143 l 77 1143 l 77 1270 l 164 1270 l 164 1236 l 119 1236 l 119 1222 l 159 1222 l 159 1191 l 119 1191 m 329 1270 l 347 1143 l 305 1143 l 298 1207 l 268 1143 l 254 1143 l 224 1207 l 217 1143 l 175 1143 l 193 1270 l 235 1270 l 261 1209 l 287 1270 m 426 1178 b 453 1207 442 1178 453 1190 b 426 1235 453 1224 442 1235 b 398 1207 409 1235 398 1224 b 426 1178 398 1190 409 1178 m -7 1181 b 20 1207 9 1181 20 1191 b -7 1232 20 1222 9 1232 l -16 1232 l -16 1181 l -7 1181 m 81 1021 l 340 1021 l 340 0 l 81 0 "},"ł":{"ha":421,"x_min":0,"x_max":0,"o":"m 426 1274 b 498 1207 469 1274 498 1247 b 426 1140 498 1166 469 1140 b 353 1207 382 1140 353 1166 b 426 1274 353 1247 382 1274 m -4 1270 b 63 1207 36 1270 63 1244 b -4 1143 63 1169 36 1143 l -59 1143 l -59 1270 l -4 1270 m 119 1177 l 165 1177 l 165 1143 l 77 1143 l 77 1270 l 164 1270 l 164 1236 l 119 1236 l 119 1222 l 159 1222 l 159 1191 l 119 1191 m 329 1270 l 347 1143 l 305 1143 l 298 1207 l 268 1143 l 254 1143 l 224 1207 l 217 1143 l 175 1143 l 193 1270 l 235 1270 l 261 1209 l 287 1270 m 426 1178 b 453 1207 442 1178 453 1190 b 426 1235 453 1224 442 1235 b 398 1207 409 1235 398 1224 b 426 1178 398 1190 409 1178 m -7 1181 b 20 1207 9 1181 20 1191 b -7 1232 20 1222 9 1232 l -16 1232 l -16 1181 l -7 1181 m 81 1021 l 340 1021 l 340 0 l 81 0 "},"m":{"ha":1304,"x_min":0,"x_max":0,"o":"m 964 772 b 1232 470 1125 772 1232 647 l 1232 0 l 973 0 l 973 438 b 890 555 973 517 945 555 b 782 411 819 555 782 506 l 782 0 l 531 0 l 531 438 b 448 555 531 514 502 555 b 340 411 378 555 340 504 l 340 0 l 81 0 l 81 750 l 263 750 l 300 669 b 519 772 354 733 433 772 b 734 662 610 772 687 731 b 964 772 788 730 871 772 "},"n":{"ha":896,"x_min":0,"x_max":0,"o":"m 534 772 b 823 457 708 772 823 648 l 823 0 l 564 0 l 564 422 b 466 552 564 509 532 552 b 340 400 386 552 340 496 l 340 0 l 81 0 l 81 750 l 262 750 l 298 673 b 534 772 354 735 437 772 "},"ń":{"ha":896,"x_min":0,"x_max":0,"o":"m 671 855 b 599 922 628 855 599 882 b 671 989 599 962 628 989 b 744 922 715 989 744 962 b 671 855 744 882 715 855 m 308 922 b 241 858 308 885 281 858 l 187 858 l 187 985 l 241 985 b 308 922 281 985 308 960 m 410 858 l 322 858 l 322 985 l 409 985 l 409 951 l 364 951 l 364 938 l 404 938 l 404 906 l 364 906 l 364 893 l 410 893 m 462 858 l 420 858 l 439 985 l 480 985 l 506 924 l 532 985 l 574 985 l 593 858 l 551 858 l 543 923 l 514 858 l 499 858 l 470 922 m 671 950 b 644 922 655 950 644 939 b 671 894 644 905 655 894 b 699 922 688 894 699 905 b 671 950 699 939 688 950 m 238 897 b 265 922 255 897 265 906 b 238 947 265 938 255 947 l 229 947 l 229 897 m 534 772 b 823 457 708 772 823 648 l 823 0 l 564 0 l 564 422 b 466 552 564 509 532 552 b 340 400 386 552 340 496 l 340 0 l 81 0 l 81 750 l 263 750 l 298 673 b 534 772 354 735 437 772 "},"ň":{"ha":896,"x_min":0,"x_max":0,"o":"m 670 855 b 598 922 627 855 598 882 b 670 989 598 962 627 989 b 743 922 714 989 743 962 b 670 855 743 882 714 855 m 308 922 b 241 858 308 885 280 858 l 186 858 l 186 985 l 241 985 b 308 922 280 985 308 960 m 409 858 l 322 858 l 322 985 l 409 985 l 409 951 l 363 951 l 363 938 l 404 938 l 404 906 l 363 906 l 363 893 l 409 893 m 462 858 l 419 858 l 438 985 l 480 985 l 506 924 l 532 985 l 573 985 l 592 858 l 550 858 l 542 923 l 513 858 l 498 858 l 469 922 m 670 950 b 643 922 654 950 643 939 b 670 894 643 905 654 894 b 698 922 687 894 698 905 b 670 950 698 939 687 950 m 238 897 b 264 922 254 897 264 906 b 238 947 264 938 254 947 l 229 947 l 229 897 m 534 772 b 823 457 708 772 823 648 l 823 0 l 564 0 l 564 422 b 466 552 564 509 532 552 b 340 400 386 552 340 496 l 340 0 l 81 0 l 81 750 l 262 750 l 298 673 b 534 772 354 735 437 772 "},"ŋ":{"ha":896,"x_min":0,"x_max":0,"o":"m 670 855 b 598 922 627 855 598 882 b 670 989 598 962 627 989 b 743 922 714 989 743 962 b 670 855 743 882 714 855 m 308 922 b 241 858 308 885 280 858 l 186 858 l 186 985 l 241 985 b 308 922 280 985 308 960 m 409 858 l 322 858 l 322 985 l 409 985 l 409 951 l 363 951 l 363 938 l 404 938 l 404 906 l 363 906 l 363 893 l 409 893 m 462 858 l 419 858 l 438 985 l 480 985 l 506 924 l 532 985 l 573 985 l 592 858 l 550 858 l 542 923 l 513 858 l 498 858 l 469 922 m 670 950 b 643 922 654 950 643 939 b 670 894 643 905 654 894 b 698 922 687 894 698 905 b 670 950 698 939 687 950 m 238 897 b 264 922 254 897 264 906 b 238 947 264 938 254 947 l 229 947 l 229 897 m 534 772 b 823 457 708 772 823 648 l 823 0 l 564 0 l 564 422 b 466 552 564 509 532 552 b 340 400 386 552 340 496 l 340 0 l 81 0 l 81 750 l 262 750 l 298 673 b 534 772 354 735 437 772 "},"ñ":{"ha":896,"x_min":0,"x_max":0,"o":"m 671 855 b 598 922 627 855 598 882 b 671 989 598 962 627 989 b 743 922 714 989 743 962 b 671 855 743 882 714 855 m 308 922 b 241 858 308 885 281 858 l 187 858 l 187 985 l 241 985 b 308 922 281 985 308 960 m 410 858 l 322 858 l 322 985 l 409 985 l 409 951 l 364 951 l 364 938 l 404 938 l 404 906 l 364 906 l 364 893 l 410 893 m 462 858 l 420 858 l 438 985 l 480 985 l 506 924 l 532 985 l 574 985 l 592 858 l 550 858 l 543 923 l 513 858 l 499 858 l 469 922 m 671 950 b 643 922 654 950 643 939 b 671 894 643 905 654 894 b 698 922 687 894 698 905 b 671 950 698 939 687 950 m 238 897 b 265 922 254 897 265 906 b 238 947 265 938 254 947 l 229 947 l 229 897 m 534 772 b 823 457 708 772 823 648 l 823 0 l 564 0 l 564 422 b 466 552 564 509 532 552 b 340 400 386 552 340 496 l 340 0 l 81 0 l 81 750 l 262 750 l 298 673 b 534 772 354 735 437 772 "},"o":{"ha":917,"x_min":0,"x_max":0,"o":"m 458 -25 b 38 375 214 -25 38 143 b 458 775 38 607 214 775 b 879 375 702 775 879 607 b 458 -25 879 143 702 -25 m 458 207 b 620 375 552 207 620 276 b 458 542 620 474 552 542 b 296 375 364 542 296 474 b 458 207 296 276 364 207 "},"ó":{"ha":917,"x_min":0,"x_max":0,"o":"m 671 989 b 744 922 715 989 744 962 b 671 855 744 882 715 855 b 599 922 628 855 599 882 b 671 989 599 962 628 989 m 242 985 b 309 922 281 985 309 960 b 242 859 309 885 281 859 l 187 859 l 187 985 l 242 985 m 364 893 l 410 893 l 410 859 l 323 859 l 323 985 l 410 985 l 410 951 l 364 951 l 364 938 l 405 938 l 405 906 l 364 906 m 574 985 l 593 859 l 551 859 l 543 923 l 514 859 l 499 859 l 470 922 l 463 859 l 420 859 l 439 985 l 481 985 l 507 924 l 533 985 m 671 894 b 699 922 688 894 699 905 b 671 950 699 939 688 950 b 644 922 655 950 644 939 b 671 894 644 905 655 894 m 239 897 b 265 922 255 897 265 906 b 239 947 265 938 255 947 l 230 947 l 230 897 l 239 897 m 458 -25 b 38 375 214 -25 38 143 b 458 775 38 607 214 775 b 879 375 702 775 879 607 b 458 -25 879 143 702 -25 m 458 207 b 620 375 552 207 620 276 b 458 542 620 474 552 542 b 296 375 364 542 296 474 b 458 207 296 276 364 207 "},"ŏ":{"ha":917,"x_min":0,"x_max":0,"o":"m 669 989 b 742 922 713 989 742 962 b 669 855 742 882 713 855 b 597 922 626 855 597 882 b 669 989 597 962 626 989 m 239 985 b 306 922 279 985 306 960 b 239 859 306 885 279 859 l 185 859 l 185 985 l 239 985 m 362 893 l 408 893 l 408 859 l 321 859 l 321 985 l 407 985 l 407 951 l 362 951 l 362 938 l 403 938 l 403 906 l 362 906 m 572 985 l 591 859 l 549 859 l 541 923 l 512 859 l 497 859 l 468 922 l 461 859 l 418 859 l 437 985 l 479 985 l 504 924 l 531 985 m 669 894 b 697 922 686 894 697 905 b 669 950 697 939 686 950 b 642 922 653 950 642 939 b 669 894 642 905 653 894 m 236 897 b 263 922 253 897 263 906 b 236 947 263 938 253 947 l 227 947 l 227 897 l 236 897 m 458 -25 b 38 375 214 -25 38 143 b 458 775 38 607 214 775 b 879 375 702 775 879 607 b 458 -25 879 143 702 -25 m 458 207 b 620 375 552 207 620 276 b 458 542 620 474 552 542 b 296 375 364 542 296 474 b 458 207 296 276 364 207 "},"ô":{"ha":917,"x_min":0,"x_max":0,"o":"m 671 989 b 744 922 715 989 744 962 b 671 855 744 882 715 855 b 599 922 628 855 599 882 b 671 989 599 962 628 989 m 242 985 b 309 922 282 985 309 960 b 242 859 309 885 282 859 l 187 859 l 187 985 l 242 985 m 365 893 l 411 893 l 411 859 l 323 859 l 323 985 l 410 985 l 410 951 l 365 951 l 365 938 l 405 938 l 405 906 l 365 906 m 575 985 l 593 859 l 551 859 l 544 923 l 514 859 l 500 859 l 470 922 l 463 859 l 421 859 l 439 985 l 481 985 l 507 924 l 533 985 m 672 894 b 699 922 688 894 699 905 b 672 950 699 939 688 950 b 644 922 655 950 644 939 b 672 894 644 905 655 894 m 239 897 b 266 922 255 897 266 906 b 239 947 266 938 255 947 l 230 947 l 230 897 l 239 897 m 458 -25 b 38 375 214 -25 38 143 b 458 775 38 607 214 775 b 879 375 702 775 879 607 b 458 -25 879 143 702 -25 m 458 207 b 620 375 552 207 620 276 b 458 542 620 474 552 542 b 296 375 364 542 296 474 b 458 207 296 276 364 207 "},"ö":{"ha":917,"x_min":0,"x_max":0,"o":"m 670 989 b 743 922 714 989 743 962 b 670 855 743 882 714 855 b 598 922 627 855 598 882 b 670 989 598 962 627 989 m 240 985 b 307 922 280 985 307 960 b 240 859 307 885 280 859 l 186 859 l 186 985 l 240 985 m 363 893 l 409 893 l 409 859 l 321 859 l 321 985 l 408 985 l 408 951 l 363 951 l 363 938 l 404 938 l 404 906 l 363 906 m 573 985 l 592 859 l 550 859 l 542 923 l 513 859 l 498 859 l 469 922 l 462 859 l 419 859 l 438 985 l 479 985 l 505 924 l 531 985 m 670 894 b 698 922 687 894 698 905 b 670 950 698 939 687 950 b 643 922 654 950 643 939 b 670 894 643 905 654 894 m 237 897 b 264 922 254 897 264 906 b 237 947 264 938 254 947 l 228 947 l 228 897 l 237 897 m 458 -25 b 38 375 214 -25 38 143 b 458 775 38 607 214 775 b 879 375 702 775 879 607 b 458 -25 879 143 702 -25 m 458 207 b 620 375 552 207 620 276 b 458 542 620 474 552 542 b 296 375 364 542 296 474 b 458 207 296 276 364 207 "},"ò":{"ha":917,"x_min":0,"x_max":0,"o":"m 663 989 b 735 922 706 989 735 962 b 663 855 735 882 706 855 b 590 922 619 855 590 882 b 663 989 590 962 619 989 m 233 985 b 300 922 273 985 300 960 b 233 859 300 885 273 859 l 179 859 l 179 985 l 233 985 m 356 893 l 402 893 l 402 859 l 314 859 l 314 985 l 401 985 l 401 951 l 356 951 l 356 938 l 396 938 l 396 906 l 356 906 m 566 985 l 584 859 l 542 859 l 535 923 l 505 859 l 491 859 l 461 922 l 454 859 l 412 859 l 431 985 l 472 985 l 498 924 l 524 985 m 663 894 b 690 922 679 894 690 905 b 663 950 690 939 679 950 b 635 922 646 950 635 939 b 663 894 635 905 646 894 m 230 897 b 257 922 247 897 257 906 b 230 947 257 938 247 947 l 221 947 l 221 897 l 230 897 m 458 -25 b 38 375 214 -25 38 143 b 458 775 38 607 214 775 b 879 375 702 775 879 607 b 458 -25 879 143 702 -25 m 458 207 b 620 375 552 207 620 276 b 458 542 620 474 552 542 b 296 375 364 542 296 474 b 458 207 296 276 364 207 "},"ő":{"ha":917,"x_min":0,"x_max":0,"o":"m 672 989 b 744 922 715 989 744 962 b 672 855 744 882 715 855 b 599 922 628 855 599 882 b 672 989 599 962 628 989 m 242 985 b 309 922 282 985 309 960 b 242 859 309 885 282 859 l 187 859 l 187 985 l 242 985 m 365 893 l 411 893 l 411 859 l 323 859 l 323 985 l 410 985 l 410 951 l 365 951 l 365 938 l 405 938 l 405 906 l 365 906 m 575 985 l 593 859 l 551 859 l 544 923 l 514 859 l 500 859 l 470 922 l 463 859 l 421 859 l 439 985 l 481 985 l 507 924 l 533 985 m 672 894 b 699 922 688 894 699 905 b 672 950 699 939 688 950 b 644 922 655 950 644 939 b 672 894 644 905 655 894 m 239 897 b 266 922 255 897 266 906 b 239 947 266 938 255 947 l 230 947 l 230 897 l 239 897 m 458 -25 b 38 375 214 -25 38 143 b 458 775 38 607 214 775 b 879 375 702 775 879 607 b 458 -25 879 143 702 -25 m 458 207 b 620 375 552 207 620 276 b 458 542 620 474 552 542 b 296 375 364 542 296 474 b 458 207 296 276 364 207 "},"ō":{"ha":917,"x_min":0,"x_max":0,"o":"m 670 989 b 743 922 714 989 743 962 b 670 855 743 882 714 855 b 598 922 627 855 598 882 b 670 989 598 962 627 989 m 240 985 b 308 922 280 985 308 960 b 240 859 308 885 280 859 l 186 859 l 186 985 l 240 985 m 363 893 l 409 893 l 409 859 l 322 859 l 322 985 l 408 985 l 408 951 l 363 951 l 363 938 l 404 938 l 404 906 l 363 906 m 573 985 l 592 859 l 550 859 l 542 923 l 513 859 l 498 859 l 469 922 l 462 859 l 419 859 l 438 985 l 480 985 l 506 924 l 532 985 m 670 894 b 698 922 687 894 698 905 b 670 950 698 939 687 950 b 643 922 654 950 643 939 b 670 894 643 905 654 894 m 238 897 b 264 922 254 897 264 906 b 238 947 264 938 254 947 l 229 947 l 229 897 l 238 897 m 458 -25 b 38 375 214 -25 38 143 b 458 775 38 607 214 775 b 879 375 702 775 879 607 b 458 -25 879 143 702 -25 m 458 207 b 620 375 552 207 620 276 b 458 542 620 474 552 542 b 296 375 364 542 296 474 b 458 207 296 276 364 207 "},"ø":{"ha":917,"x_min":0,"x_max":0,"o":"m 670 989 b 743 922 714 989 743 962 b 670 855 743 882 714 855 b 598 922 627 855 598 882 b 670 989 598 962 627 989 m 240 985 b 308 922 280 985 308 960 b 240 859 308 885 280 859 l 186 859 l 186 985 l 240 985 m 363 893 l 409 893 l 409 859 l 322 859 l 322 985 l 408 985 l 408 951 l 363 951 l 363 938 l 404 938 l 404 906 l 363 906 m 573 985 l 592 859 l 550 859 l 542 923 l 513 859 l 498 859 l 469 922 l 462 859 l 419 859 l 438 985 l 480 985 l 506 924 l 532 985 m 670 894 b 698 922 687 894 698 905 b 670 950 698 939 687 950 b 643 922 654 950 643 939 b 670 894 643 905 654 894 m 238 897 b 264 922 254 897 264 906 b 238 947 264 938 254 947 l 229 947 l 229 897 l 238 897 m 458 -25 b 38 375 214 -25 38 143 b 458 775 38 607 214 775 b 879 375 702 775 879 607 b 458 -25 879 143 702 -25 m 458 207 b 620 375 552 207 620 276 b 458 542 620 474 552 542 b 296 375 364 542 296 474 b 458 207 296 276 364 207 "},"ǿ":{"ha":917,"x_min":0,"x_max":0,"o":"m 670 855 b 598 922 627 855 598 882 b 670 989 598 962 627 989 b 675 989 672 989 673 989 b 679 989 676 989 678 989 b 752 922 723 989 752 962 b 679 855 752 882 723 855 b 675 855 678 855 676 855 b 670 855 673 855 672 855 m 186 985 l 249 985 b 317 922 289 985 317 960 b 249 858 317 885 289 858 l 186 858 m 322 985 l 417 985 l 417 951 l 372 951 l 372 938 l 413 938 l 413 906 l 372 906 l 372 893 l 418 893 l 418 858 l 322 858 m 438 985 l 489 985 l 510 935 l 532 985 l 582 985 l 601 858 l 550 858 l 544 907 l 522 858 l 498 858 l 476 907 l 471 858 l 419 858 m 698 922 b 675 950 698 937 689 948 b 652 922 661 948 652 937 b 675 894 652 906 661 896 b 698 922 689 896 698 906 m 238 947 l 238 897 l 238 897 b 264 922 254 897 264 906 b 238 947 264 938 254 947 m 458 775 b 879 375 702 775 879 607 b 458 -25 879 143 702 -25 b 38 375 214 -25 38 143 b 458 775 38 607 214 775 m 458 207 b 620 375 552 207 620 276 b 458 542 620 474 552 542 b 296 375 364 542 296 474 b 458 207 296 276 364 207 "},"õ":{"ha":917,"x_min":0,"x_max":0,"o":"m 671 989 b 744 922 715 989 744 962 b 671 855 744 882 715 855 b 599 922 628 855 599 882 b 671 989 599 962 628 989 m 241 985 b 308 922 281 985 308 960 b 241 859 308 885 281 859 l 187 859 l 187 985 l 241 985 m 364 893 l 410 893 l 410 859 l 322 859 l 322 985 l 409 985 l 409 951 l 364 951 l 364 938 l 404 938 l 404 906 l 364 906 m 574 985 l 593 859 l 551 859 l 543 923 l 514 859 l 499 859 l 470 922 l 462 859 l 420 859 l 439 985 l 480 985 l 506 924 l 532 985 m 671 894 b 699 922 688 894 699 905 b 671 950 699 939 688 950 b 644 922 655 950 644 939 b 671 894 644 905 655 894 m 238 897 b 265 922 255 897 265 906 b 238 947 265 938 255 947 l 229 947 l 229 897 l 238 897 m 458 -25 b 38 375 214 -25 38 143 b 458 775 38 607 214 775 b 879 375 702 775 879 607 b 458 -25 879 143 702 -25 m 458 207 b 620 375 552 207 620 276 b 458 542 620 474 552 542 b 296 375 364 542 296 474 b 458 207 296 276 364 207 "},"œ":{"ha":1460,"x_min":0,"x_max":0,"o":"m 1423 380 b 1418 313 1423 357 1421 336 l 859 313 b 1015 184 877 229 932 184 b 1151 257 1076 184 1126 211 l 1408 257 b 1015 -25 1355 84 1204 -25 b 743 89 907 -25 811 18 b 458 -25 673 18 574 -25 b 38 374 212 -25 38 142 b 458 773 38 608 212 773 b 742 661 573 773 672 732 b 1015 773 810 731 906 773 b 1423 380 1254 773 1423 606 m 1015 570 b 864 457 939 570 886 530 l 1170 457 b 1015 570 1147 530 1093 570 m 458 207 b 620 374 553 207 620 276 b 458 542 620 473 553 542 b 296 374 363 542 296 473 b 458 207 296 276 363 207 "},"p":{"ha":950,"x_min":0,"x_max":0,"o":"m 519 775 b 913 375 749 775 913 609 b 519 -25 913 141 749 -25 b 337 24 452 -25 390 -8 l 337 -271 l 81 -271 l 81 750 l 257 750 l 289 690 b 519 775 351 744 430 775 m 485 203 b 653 375 581 203 653 276 b 485 547 653 474 582 547 b 317 375 388 547 317 474 b 485 203 317 276 388 203 "},"þ":{"ha":794,"x_min":0,"x_max":0,"o":"m 398 738 b 277 868 325 738 277 790 b 398 998 277 946 325 998 b 518 868 470 998 518 946 b 398 738 518 790 470 738 m 398 918 b 347 868 367 918 347 898 b 398 819 347 839 367 819 b 448 868 428 819 448 839 b 398 918 448 898 428 918 m 284 694 l 511 728 l 511 652 l 396 639 l 511 586 l 511 560 l 397 507 l 511 494 l 511 418 l 284 452 l 284 526 l 393 573 l 284 620 m 450 400 l 511 400 l 511 243 l 284 243 l 284 399 l 345 399 l 345 318 l 370 318 l 370 390 l 426 390 l 426 318 l 450 318 m 398 218 b 511 98 464 218 511 169 l 511 0 l 284 0 l 284 98 b 398 218 284 169 330 218 m 398 140 b 352 92 370 140 352 122 l 352 76 l 443 76 l 443 92 b 398 140 443 122 426 140 "},"q":{"ha":950,"x_min":0,"x_max":0,"o":"m 869 750 l 869 -271 l 614 -271 l 614 25 b 431 -25 561 -7 499 -25 b 38 375 202 -25 38 141 b 431 775 38 608 201 775 b 661 690 520 775 599 744 l 694 750 m 465 203 b 633 375 562 203 633 277 b 465 547 633 473 562 547 b 298 375 369 547 298 473 b 465 203 298 277 369 203 "},"r":{"ha":586,"x_min":0,"x_max":0,"o":"m 570 754 l 570 517 l 469 517 b 340 381 378 517 340 477 l 340 0 l 81 0 l 81 750 l 254 750 l 295 667 b 501 754 348 728 412 754 "},"ŕ":{"ha":586,"x_min":0,"x_max":0,"o":"m 540 990 b 612 923 583 990 612 963 b 540 856 612 882 583 856 b 467 923 496 856 467 882 b 540 990 467 963 496 990 m 177 923 b 110 859 177 885 150 859 l 56 859 l 56 986 l 110 986 b 177 923 150 986 177 960 m 279 859 l 191 859 l 191 986 l 278 986 l 278 952 l 233 952 l 233 938 l 273 938 l 273 907 l 233 907 l 233 893 l 279 893 m 331 859 l 289 859 l 307 986 l 349 986 l 375 925 l 401 986 l 443 986 l 461 859 l 419 859 l 412 923 l 382 859 l 368 859 l 338 923 m 540 894 b 567 923 556 894 567 906 b 540 951 567 940 556 951 b 512 923 523 951 512 940 b 540 894 512 906 523 894 m 107 897 b 134 923 124 897 134 907 b 107 948 134 938 124 948 l 98 948 l 98 897 m 295 667 b 501 754 348 728 412 754 l 570 754 l 570 517 l 469 517 b 340 381 378 517 340 477 l 340 0 l 81 0 l 81 750 l 254 750 l 295 667 "},"ř":{"ha":586,"x_min":0,"x_max":0,"o":"m 539 990 b 612 923 583 990 612 963 b 539 856 612 882 583 856 b 467 923 496 856 467 882 b 539 990 467 963 496 990 m 176 923 b 109 859 176 885 149 859 l 55 859 l 55 986 l 109 986 b 176 923 149 986 176 960 m 278 859 l 190 859 l 190 986 l 277 986 l 277 952 l 232 952 l 232 938 l 273 938 l 273 907 l 232 907 l 232 893 l 278 893 m 331 859 l 288 859 l 307 986 l 349 986 l 374 925 l 401 986 l 442 986 l 461 859 l 419 859 l 411 923 l 382 859 l 367 859 l 338 923 m 539 894 b 567 923 556 894 567 906 b 539 951 567 940 556 951 b 512 923 523 951 512 940 b 539 894 512 906 523 894 m 106 897 b 133 923 123 897 133 907 b 106 948 133 938 123 948 l 97 948 l 97 897 m 295 667 b 501 754 348 728 412 754 l 570 754 l 570 517 l 469 517 b 340 381 378 517 340 477 l 340 0 l 81 0 l 81 750 l 254 750 l 295 667 "},"s":{"ha":742,"x_min":0,"x_max":0,"o":"m 371 -25 b 40 246 166 -25 42 83 l 288 246 b 375 166 288 191 326 166 b 449 224 413 166 449 185 b 320 291 449 267 392 279 b 50 527 204 310 50 345 b 370 775 50 678 178 775 b 688 521 561 775 685 673 l 446 521 b 367 591 446 569 414 591 b 298 536 325 591 298 571 b 426 471 298 493 355 483 b 702 235 545 450 702 425 b 371 -25 702 78 570 -25 "},"ś":{"ha":742,"x_min":0,"x_max":0,"o":"m 581 989 b 654 922 625 989 654 962 b 581 855 654 882 625 855 b 509 922 538 855 509 882 b 581 989 509 962 538 989 m 151 985 b 218 922 191 985 218 960 b 151 859 218 885 191 859 l 97 859 l 97 985 l 151 985 m 274 893 l 320 893 l 320 859 l 232 859 l 232 985 l 319 985 l 319 951 l 274 951 l 274 938 l 315 938 l 315 906 l 274 906 m 484 985 l 503 859 l 461 859 l 453 923 l 424 859 l 409 859 l 380 922 l 373 859 l 330 859 l 349 985 l 391 985 l 416 924 l 443 985 m 581 894 b 609 922 598 894 609 905 b 581 950 609 939 598 950 b 554 922 565 950 554 939 b 581 894 554 905 565 894 m 148 897 b 175 922 165 897 175 906 b 148 947 175 938 165 947 l 139 947 l 139 897 l 148 897 m 371 -25 b 40 246 166 -25 42 83 l 288 246 b 375 166 288 191 326 166 b 449 224 413 166 449 185 b 320 291 449 267 392 279 b 50 527 204 310 50 345 b 370 775 50 678 178 775 b 688 521 561 775 685 673 l 446 521 b 367 591 446 569 414 591 b 298 536 325 591 298 571 b 426 471 298 493 355 483 b 702 235 545 450 702 425 b 371 -25 702 78 570 -25 "},"š":{"ha":742,"x_min":0,"x_max":0,"o":"m 580 989 b 653 922 624 989 653 962 b 580 855 653 882 624 855 b 508 922 537 855 508 882 b 580 989 508 962 537 989 m 151 985 b 218 922 190 985 218 960 b 151 859 218 885 190 859 l 96 859 l 96 985 l 151 985 m 273 893 l 320 893 l 320 859 l 232 859 l 232 985 l 319 985 l 319 951 l 273 951 l 273 938 l 314 938 l 314 906 l 273 906 m 484 985 l 502 859 l 460 859 l 453 923 l 423 859 l 408 859 l 379 922 l 372 859 l 329 859 l 348 985 l 390 985 l 416 924 l 442 985 m 580 894 b 608 922 597 894 608 905 b 580 950 608 939 597 950 b 553 922 564 950 553 939 b 580 894 553 905 564 894 m 148 897 b 175 922 164 897 175 906 b 148 947 175 938 164 947 l 139 947 l 139 897 l 148 897 m 371 -25 b 40 246 166 -25 42 83 l 288 246 b 375 166 288 191 326 166 b 449 224 413 166 449 185 b 320 291 449 267 392 279 b 50 527 204 310 50 345 b 370 775 50 678 178 775 b 688 521 561 775 685 673 l 446 521 b 367 591 446 569 414 591 b 298 536 325 591 298 571 b 426 471 298 493 355 483 b 702 235 545 450 702 425 b 371 -25 702 78 570 -25 "},"ş":{"ha":742,"x_min":0,"x_max":0,"o":"m 580 989 b 653 922 624 989 653 962 b 580 855 653 882 624 855 b 508 922 537 855 508 882 b 580 989 508 962 537 989 m 151 985 b 218 922 190 985 218 960 b 151 859 218 885 190 859 l 96 859 l 96 985 l 151 985 m 273 893 l 320 893 l 320 859 l 232 859 l 232 985 l 319 985 l 319 951 l 273 951 l 273 938 l 314 938 l 314 906 l 273 906 m 484 985 l 502 859 l 460 859 l 453 923 l 423 859 l 408 859 l 379 922 l 372 859 l 329 859 l 348 985 l 390 985 l 416 924 l 442 985 m 580 894 b 608 922 597 894 608 905 b 580 950 608 939 597 950 b 553 922 564 950 553 939 b 580 894 553 905 564 894 m 148 897 b 175 922 164 897 175 906 b 148 947 175 938 164 947 l 139 947 l 139 897 l 148 897 m 371 -25 b 40 246 166 -25 42 83 l 288 246 b 375 166 288 191 326 166 b 449 224 413 166 449 185 b 320 291 449 267 392 279 b 50 527 204 310 50 345 b 370 775 50 678 178 775 b 688 521 561 775 685 673 l 446 521 b 367 591 446 569 414 591 b 298 536 325 591 298 571 b 426 471 298 493 355 483 b 702 235 545 450 702 425 b 371 -25 702 78 570 -25 "},"ŝ":{"ha":742,"x_min":0,"x_max":0,"o":"m 581 989 b 654 922 625 989 654 962 b 581 855 654 882 625 855 b 509 922 538 855 509 882 b 581 989 509 962 538 989 m 151 985 b 218 922 191 985 218 960 b 151 859 218 885 191 859 l 97 859 l 97 985 l 151 985 m 274 893 l 320 893 l 320 859 l 233 859 l 233 985 l 319 985 l 319 951 l 274 951 l 274 938 l 315 938 l 315 906 l 274 906 m 484 985 l 503 859 l 461 859 l 453 923 l 424 859 l 409 859 l 380 922 l 373 859 l 330 859 l 349 985 l 391 985 l 417 924 l 443 985 m 581 894 b 609 922 598 894 609 905 b 581 950 609 939 598 950 b 554 922 565 950 554 939 b 581 894 554 905 565 894 m 149 897 b 175 922 165 897 175 906 b 149 947 175 938 165 947 l 139 947 l 139 897 l 149 897 m 371 -25 b 40 246 166 -25 42 83 l 288 246 b 375 166 288 191 326 166 b 449 224 413 166 449 185 b 320 291 449 267 392 279 b 50 527 204 310 50 345 b 370 775 50 678 178 775 b 688 521 561 775 685 673 l 446 521 b 367 591 446 569 414 591 b 298 536 325 591 298 571 b 426 471 298 493 355 483 b 702 235 545 450 702 425 b 371 -25 702 78 570 -25 "},"ß":{"ha":794,"x_min":0,"x_max":0,"o":"m 398 738 b 277 868 325 738 277 790 b 398 998 277 946 325 998 b 518 868 470 998 518 946 b 398 738 518 790 470 738 m 398 918 b 347 868 367 918 347 898 b 398 819 347 839 367 819 b 448 868 428 819 448 839 b 398 918 448 898 428 918 m 284 694 l 511 728 l 511 652 l 396 639 l 511 586 l 511 560 l 397 507 l 511 494 l 511 418 l 284 452 l 284 526 l 393 573 l 284 620 m 450 400 l 511 400 l 511 243 l 284 243 l 284 399 l 345 399 l 345 318 l 370 318 l 370 390 l 426 390 l 426 318 l 450 318 m 398 218 b 511 98 464 218 511 169 l 511 0 l 284 0 l 284 98 b 398 218 284 169 330 218 m 398 140 b 352 92 370 140 352 122 l 352 76 l 443 76 l 443 92 b 398 140 443 122 426 140 "},"ſ":{"ha":794,"x_min":0,"x_max":0,"o":"m 398 738 b 277 868 325 738 277 790 b 398 998 277 946 325 998 b 518 868 470 998 518 946 b 398 738 518 790 470 738 m 398 918 b 347 868 367 918 347 898 b 398 819 347 839 367 819 b 448 868 428 819 448 839 b 398 918 448 898 428 918 m 284 694 l 511 728 l 511 652 l 396 639 l 511 586 l 511 560 l 397 507 l 511 494 l 511 418 l 284 452 l 284 526 l 393 573 l 284 620 m 450 400 l 511 400 l 511 243 l 284 243 l 284 399 l 345 399 l 345 318 l 370 318 l 370 390 l 426 390 l 426 318 l 450 318 m 398 218 b 511 98 464 218 511 169 l 511 0 l 284 0 l 284 98 b 398 218 284 169 330 218 m 398 140 b 352 92 370 140 352 122 l 352 76 l 443 76 l 443 92 b 398 140 443 122 426 140 "},"t":{"ha":626,"x_min":0,"x_max":0,"o":"m 587 226 l 587 0 l 409 0 b 143 268 243 0 143 101 l 143 551 l 5 551 l 5 611 l 341 969 l 394 969 l 394 750 l 583 750 l 583 551 l 401 551 l 401 312 b 488 226 401 259 433 226 "},"ŧ":{"ha":794,"x_min":0,"x_max":0,"o":"m 398 738 b 277 868 325 738 277 790 b 398 998 277 946 325 998 b 518 868 470 998 518 946 b 398 738 518 790 470 738 m 398 918 b 347 868 367 918 347 898 b 398 819 347 839 367 819 b 448 868 428 819 448 839 b 398 918 448 898 428 918 m 284 694 l 511 728 l 511 652 l 396 639 l 511 586 l 511 560 l 397 507 l 511 494 l 511 418 l 284 452 l 284 526 l 393 573 l 284 620 m 450 400 l 511 400 l 511 243 l 284 243 l 284 399 l 345 399 l 345 318 l 370 318 l 370 390 l 426 390 l 426 318 l 450 318 m 398 218 b 511 98 464 218 511 169 l 511 0 l 284 0 l 284 98 b 398 218 284 169 330 218 m 398 140 b 352 92 370 140 352 122 l 352 76 l 443 76 l 443 92 b 398 140 443 122 426 140 "},"ť":{"ha":794,"x_min":0,"x_max":0,"o":"m 398 738 b 277 868 325 738 277 790 b 398 998 277 946 325 998 b 518 868 470 998 518 946 b 398 738 518 790 470 738 m 398 918 b 347 868 367 918 347 898 b 398 819 347 839 367 819 b 448 868 428 819 448 839 b 398 918 448 898 428 918 m 284 694 l 511 728 l 511 652 l 396 639 l 511 586 l 511 560 l 397 507 l 511 494 l 511 418 l 284 452 l 284 526 l 393 573 l 284 620 m 450 400 l 511 400 l 511 243 l 284 243 l 284 399 l 345 399 l 345 318 l 370 318 l 370 390 l 426 390 l 426 318 l 450 318 m 398 218 b 511 98 464 218 511 169 l 511 0 l 284 0 l 284 98 b 398 218 284 169 330 218 m 398 140 b 352 92 370 140 352 122 l 352 76 l 443 76 l 443 92 b 398 140 443 122 426 140 "},"u":{"ha":882,"x_min":0,"x_max":0,"o":"m 441 -25 b 72 322 220 -25 72 112 l 72 750 l 330 750 l 330 333 b 441 207 330 254 372 207 b 552 333 510 207 552 255 l 552 750 l 811 750 l 811 322 b 441 -25 811 112 663 -25 "},"ú":{"ha":882,"x_min":0,"x_max":0,"o":"m 656 989 b 728 922 699 989 728 962 b 656 855 728 882 699 855 b 583 922 612 855 583 882 b 656 989 583 962 612 989 m 226 985 b 293 922 266 985 293 960 b 226 859 293 885 266 859 l 171 859 l 171 985 l 226 985 m 349 893 l 395 893 l 395 859 l 307 859 l 307 985 l 394 985 l 394 951 l 349 951 l 349 938 l 389 938 l 389 906 l 349 906 m 559 985 l 577 859 l 535 859 l 528 923 l 498 859 l 484 859 l 454 922 l 447 859 l 405 859 l 423 985 l 465 985 l 491 924 l 517 985 m 656 894 b 683 922 672 894 683 905 b 656 950 683 939 672 950 b 628 922 639 950 628 939 b 656 894 628 905 639 894 m 223 897 b 250 922 239 897 250 906 b 223 947 250 938 239 947 l 214 947 l 214 897 l 223 897 m 441 -25 b 72 322 220 -25 72 112 l 72 750 l 330 750 l 330 333 b 441 207 330 254 372 207 b 552 333 510 207 552 255 l 552 750 l 811 750 l 811 322 b 441 -25 811 112 663 -25 "},"ŭ":{"ha":882,"x_min":0,"x_max":0,"o":"m 653 989 b 726 922 697 989 726 962 b 653 855 726 882 697 855 b 581 922 610 855 581 882 b 653 989 581 962 610 989 m 224 985 b 291 922 263 985 291 960 b 224 859 291 885 263 859 l 169 859 l 169 985 l 224 985 m 346 893 l 392 893 l 392 859 l 305 859 l 305 985 l 392 985 l 392 951 l 346 951 l 346 938 l 387 938 l 387 906 l 346 906 m 556 985 l 575 859 l 533 859 l 525 923 l 496 859 l 481 859 l 452 922 l 445 859 l 402 859 l 421 985 l 463 985 l 489 924 l 515 985 m 653 894 b 681 922 670 894 681 905 b 653 950 681 939 670 950 b 626 922 637 950 626 939 b 653 894 626 905 637 894 m 221 897 b 247 922 237 897 247 906 b 221 947 247 938 237 947 l 212 947 l 212 897 l 221 897 m 441 -25 b 72 322 220 -25 72 112 l 72 750 l 330 750 l 330 333 b 441 207 330 254 372 207 b 552 333 510 207 552 255 l 552 750 l 811 750 l 811 322 b 441 -25 811 112 663 -25 "},"û":{"ha":882,"x_min":0,"x_max":0,"o":"m 656 989 b 728 922 699 989 728 962 b 656 855 728 882 699 855 b 583 922 612 855 583 882 b 656 989 583 962 612 989 m 226 985 b 293 922 266 985 293 960 b 226 859 293 885 266 859 l 171 859 l 171 985 l 226 985 m 349 893 l 395 893 l 395 859 l 307 859 l 307 985 l 394 985 l 394 951 l 349 951 l 349 938 l 389 938 l 389 906 l 349 906 m 559 985 l 577 859 l 535 859 l 528 923 l 498 859 l 484 859 l 454 922 l 447 859 l 405 859 l 423 985 l 465 985 l 491 924 l 517 985 m 656 894 b 683 922 672 894 683 905 b 656 950 683 939 672 950 b 628 922 639 950 628 939 b 656 894 628 905 639 894 m 223 897 b 250 922 239 897 250 906 b 223 947 250 938 239 947 l 214 947 l 214 897 l 223 897 m 441 -25 b 72 322 220 -25 72 112 l 72 750 l 330 750 l 330 333 b 441 207 330 254 372 207 b 552 333 510 207 552 255 l 552 750 l 811 750 l 811 322 b 441 -25 811 112 663 -25 "},"ü":{"ha":882,"x_min":0,"x_max":0,"o":"m 654 989 b 727 922 698 989 727 962 b 654 855 727 882 698 855 b 582 922 611 855 582 882 b 654 989 582 962 611 989 m 224 985 b 291 922 264 985 291 960 b 224 859 291 885 264 859 l 170 859 l 170 985 l 224 985 m 347 893 l 393 893 l 393 859 l 306 859 l 306 985 l 392 985 l 392 951 l 347 951 l 347 938 l 388 938 l 388 906 l 347 906 m 557 985 l 576 859 l 534 859 l 526 923 l 497 859 l 482 859 l 453 922 l 446 859 l 403 859 l 422 985 l 464 985 l 490 924 l 516 985 m 654 894 b 682 922 671 894 682 905 b 654 950 682 939 671 950 b 627 922 638 950 627 939 b 654 894 627 905 638 894 m 221 897 b 248 922 238 897 248 906 b 221 947 248 938 238 947 l 212 947 l 212 897 l 221 897 m 441 -25 b 72 322 220 -25 72 112 l 72 750 l 330 750 l 330 333 b 441 207 330 254 372 207 b 552 333 510 207 552 255 l 552 750 l 811 750 l 811 322 b 441 -25 811 112 663 -25 "},"ù":{"ha":882,"x_min":0,"x_max":0,"o":"m 647 989 b 719 922 691 989 719 962 b 647 855 719 882 691 855 b 574 922 603 855 574 882 b 647 989 574 962 603 989 m 217 985 b 284 922 257 985 284 960 b 217 859 284 885 257 859 l 163 859 l 163 985 l 217 985 m 340 893 l 386 893 l 386 859 l 298 859 l 298 985 l 385 985 l 385 951 l 340 951 l 340 938 l 380 938 l 380 906 l 340 906 m 550 985 l 569 859 l 526 859 l 519 923 l 490 859 l 475 859 l 446 922 l 438 859 l 396 859 l 415 985 l 456 985 l 482 924 l 508 985 m 647 894 b 675 922 663 894 675 905 b 647 950 675 939 663 950 b 619 922 631 950 619 939 b 647 894 619 905 631 894 m 214 897 b 241 922 231 897 241 906 b 214 947 241 938 231 947 l 205 947 l 205 897 l 214 897 m 441 -25 b 72 322 220 -25 72 112 l 72 750 l 330 750 l 330 333 b 441 207 330 254 372 207 b 552 333 510 207 552 255 l 552 750 l 811 750 l 811 322 b 441 -25 811 112 663 -25 "},"ű":{"ha":882,"x_min":0,"x_max":0,"o":"m 656 989 b 728 922 699 989 728 962 b 656 855 728 882 699 855 b 583 922 612 855 583 882 b 656 989 583 962 612 989 m 226 985 b 293 922 266 985 293 960 b 226 859 293 885 266 859 l 172 859 l 172 985 l 226 985 m 349 893 l 395 893 l 395 859 l 307 859 l 307 985 l 394 985 l 394 951 l 349 951 l 349 938 l 389 938 l 389 906 l 349 906 m 559 985 l 577 859 l 535 859 l 528 923 l 498 859 l 484 859 l 454 922 l 447 859 l 405 859 l 424 985 l 465 985 l 491 924 l 517 985 m 656 894 b 683 922 672 894 683 905 b 656 950 683 939 672 950 b 628 922 639 950 628 939 b 656 894 628 905 639 894 m 223 897 b 250 922 240 897 250 906 b 223 947 250 938 240 947 l 214 947 l 214 897 l 223 897 m 441 -25 b 72 322 220 -25 72 112 l 72 750 l 330 750 l 330 333 b 441 207 330 254 372 207 b 552 333 510 207 552 255 l 552 750 l 811 750 l 811 322 b 441 -25 811 112 663 -25 "},"ū":{"ha":882,"x_min":0,"x_max":0,"o":"m 654 989 b 727 922 698 989 727 962 b 654 855 727 882 698 855 b 582 922 611 855 582 882 b 654 989 582 962 611 989 m 225 985 b 292 922 264 985 292 960 b 225 859 292 885 264 859 l 170 859 l 170 985 l 225 985 m 347 893 l 394 893 l 394 859 l 306 859 l 306 985 l 393 985 l 393 951 l 347 951 l 347 938 l 388 938 l 388 906 l 347 906 m 558 985 l 576 859 l 534 859 l 527 923 l 497 859 l 483 859 l 453 922 l 446 859 l 403 859 l 422 985 l 464 985 l 490 924 l 516 985 m 654 894 b 682 922 671 894 682 905 b 654 950 682 939 671 950 b 627 922 638 950 627 939 b 654 894 627 905 638 894 m 222 897 b 249 922 238 897 249 906 b 222 947 249 938 238 947 l 213 947 l 213 897 l 222 897 m 441 -25 b 72 322 220 -25 72 112 l 72 750 l 330 750 l 330 333 b 441 207 330 254 372 207 b 552 333 510 207 552 255 l 552 750 l 811 750 l 811 322 b 441 -25 811 112 663 -25 "},"ģ":{"ha":939,"x_min":0,"x_max":0,"o":"m 677 855 b 604 922 633 855 604 882 b 677 989 604 962 633 989 b 749 922 720 989 749 962 b 677 855 749 882 720 855 m 314 922 b 247 858 314 885 287 858 l 192 858 l 192 985 l 247 985 b 314 922 287 985 314 960 m 416 858 l 328 858 l 328 985 l 415 985 l 415 951 l 370 951 l 370 938 l 410 938 l 410 906 l 370 906 l 370 893 l 416 893 m 468 858 l 426 858 l 444 985 l 486 985 l 512 924 l 538 985 l 580 985 l 598 858 l 556 858 l 549 923 l 519 858 l 505 858 l 475 922 m 677 950 b 649 922 660 950 649 939 b 677 894 649 905 660 894 b 704 922 693 894 704 905 b 677 950 704 939 693 950 m 244 897 b 271 922 260 897 271 906 b 244 947 271 938 260 947 l 235 947 l 235 897 m 857 750 l 857 83 b 455 -298 857 -152 703 -298 b 59 -13 242 -298 93 -191 l 308 -13 b 453 -90 326 -63 390 -90 b 609 54 539 -90 609 -35 l 609 76 b 413 20 552 40 485 20 b 38 397 198 20 38 180 b 413 774 38 611 198 774 b 650 687 504 774 586 741 l 682 750 m 456 233 b 615 397 549 233 615 301 b 456 560 615 492 549 560 b 296 397 363 560 296 492 b 456 233 296 301 362 233 "},"ķ":{"ha":794,"x_min":0,"x_max":0,"o":"m 398 738 b 277 868 325 738 277 790 b 398 998 277 946 325 998 b 518 868 470 998 518 946 b 398 738 518 790 470 738 m 398 918 b 347 868 367 918 347 898 b 398 819 347 839 367 819 b 448 868 428 819 448 839 b 398 918 448 898 428 918 m 284 694 l 511 728 l 511 652 l 396 639 l 511 586 l 511 560 l 397 507 l 511 494 l 511 418 l 284 452 l 284 526 l 393 573 l 284 620 m 450 400 l 511 400 l 511 243 l 284 243 l 284 399 l 345 399 l 345 318 l 370 318 l 370 390 l 426 390 l 426 318 l 450 318 m 398 218 b 511 98 464 218 511 169 l 511 0 l 284 0 l 284 98 b 398 218 284 169 330 218 m 398 140 b 352 92 370 140 352 122 l 352 76 l 443 76 l 443 92 b 398 140 443 122 426 140 "},"ļ":{"ha":421,"x_min":0,"x_max":0,"o":"m 426 1274 b 498 1207 469 1274 498 1247 b 426 1140 498 1166 469 1140 b 353 1207 382 1140 353 1166 b 426 1274 353 1247 382 1274 m -4 1270 b 63 1207 36 1270 63 1244 b -4 1143 63 1169 36 1143 l -59 1143 l -59 1270 l -4 1270 m 119 1177 l 165 1177 l 165 1143 l 77 1143 l 77 1270 l 164 1270 l 164 1236 l 119 1236 l 119 1222 l 159 1222 l 159 1191 l 119 1191 m 329 1270 l 347 1143 l 305 1143 l 298 1207 l 268 1143 l 254 1143 l 224 1207 l 217 1143 l 175 1143 l 193 1270 l 235 1270 l 261 1209 l 287 1270 m 426 1178 b 453 1207 442 1178 453 1190 b 426 1235 453 1224 442 1235 b 398 1207 409 1235 398 1224 b 426 1178 398 1190 409 1178 m -7 1181 b 20 1207 9 1181 20 1191 b -7 1232 20 1222 9 1232 l -16 1232 l -16 1181 l -7 1181 m 81 1021 l 340 1021 l 340 0 l 81 0 "},"ņ":{"ha":896,"x_min":0,"x_max":0,"o":"m 671 855 b 599 922 628 855 599 882 b 671 989 599 962 628 989 b 744 922 715 989 744 962 b 671 855 744 882 715 855 m 308 922 b 241 858 308 885 281 858 l 187 858 l 187 985 l 241 985 b 308 922 281 985 308 960 m 410 858 l 322 858 l 322 985 l 409 985 l 409 951 l 364 951 l 364 938 l 404 938 l 404 906 l 364 906 l 364 893 l 410 893 m 462 858 l 420 858 l 439 985 l 480 985 l 506 924 l 532 985 l 574 985 l 593 858 l 551 858 l 543 923 l 514 858 l 499 858 l 470 922 m 671 950 b 644 922 655 950 644 939 b 671 894 644 905 655 894 b 699 922 688 894 699 905 b 671 950 699 939 688 950 m 238 897 b 265 922 255 897 265 906 b 238 947 265 938 255 947 l 229 947 l 229 897 m 534 772 b 823 457 708 772 823 648 l 823 0 l 564 0 l 564 422 b 466 552 564 509 532 552 b 340 400 386 552 340 496 l 340 0 l 81 0 l 81 750 l 263 750 l 298 673 b 534 772 354 735 437 772 "},"ŗ":{"ha":586,"x_min":0,"x_max":0,"o":"m 539 990 b 612 923 583 990 612 963 b 539 856 612 882 583 856 b 467 923 496 856 467 882 b 539 990 467 963 496 990 m 176 923 b 109 859 176 885 149 859 l 55 859 l 55 986 l 109 986 b 176 923 149 986 176 960 m 278 859 l 190 859 l 190 986 l 277 986 l 277 952 l 232 952 l 232 938 l 273 938 l 273 907 l 232 907 l 232 893 l 278 893 m 331 859 l 288 859 l 307 986 l 349 986 l 374 925 l 401 986 l 442 986 l 461 859 l 419 859 l 411 923 l 382 859 l 367 859 l 338 923 m 539 894 b 567 923 556 894 567 906 b 539 951 567 940 556 951 b 512 923 523 951 512 940 b 539 894 512 906 523 894 m 106 897 b 133 923 123 897 133 907 b 106 948 133 938 123 948 l 97 948 l 97 897 m 295 667 b 501 754 348 728 412 754 l 570 754 l 570 517 l 469 517 b 340 381 378 517 340 477 l 340 0 l 81 0 l 81 750 l 254 750 l 295 667 "},"ţ":{"ha":794,"x_min":0,"x_max":0,"o":"m 398 738 b 277 868 325 738 277 790 b 398 998 277 946 325 998 b 518 868 470 998 518 946 b 398 738 518 790 470 738 m 398 918 b 347 868 367 918 347 898 b 398 819 347 839 367 819 b 448 868 428 819 448 839 b 398 918 448 898 428 918 m 284 694 l 511 728 l 511 652 l 396 639 l 511 586 l 511 560 l 397 507 l 511 494 l 511 418 l 284 452 l 284 526 l 393 573 l 284 620 m 450 400 l 511 400 l 511 243 l 284 243 l 284 399 l 345 399 l 345 318 l 370 318 l 370 390 l 426 390 l 426 318 l 450 318 m 398 218 b 511 98 464 218 511 169 l 511 0 l 284 0 l 284 98 b 398 218 284 169 330 218 m 398 140 b 352 92 370 140 352 122 l 352 76 l 443 76 l 443 92 b 398 140 443 122 426 140 "},"ș":{"ha":742,"x_min":0,"x_max":0,"o":"m 580 989 b 653 922 624 989 653 962 b 580 855 653 882 624 855 b 508 922 537 855 508 882 b 580 989 508 962 537 989 m 151 985 b 218 922 190 985 218 960 b 151 859 218 885 190 859 l 96 859 l 96 985 l 151 985 m 273 893 l 320 893 l 320 859 l 232 859 l 232 985 l 319 985 l 319 951 l 273 951 l 273 938 l 314 938 l 314 906 l 273 906 m 484 985 l 502 859 l 460 859 l 453 923 l 423 859 l 408 859 l 379 922 l 372 859 l 329 859 l 348 985 l 390 985 l 416 924 l 442 985 m 580 894 b 608 922 597 894 608 905 b 580 950 608 939 597 950 b 553 922 564 950 553 939 b 580 894 553 905 564 894 m 148 897 b 175 922 164 897 175 906 b 148 947 175 938 164 947 l 139 947 l 139 897 l 148 897 m 371 -25 b 40 246 166 -25 42 83 l 288 246 b 375 166 288 191 326 166 b 449 224 413 166 449 185 b 320 291 449 267 392 279 b 50 527 204 310 50 345 b 370 775 50 678 178 775 b 688 521 561 775 685 673 l 446 521 b 367 591 446 569 414 591 b 298 536 325 591 298 571 b 426 471 298 493 355 483 b 702 235 545 450 702 425 b 371 -25 702 78 570 -25 "},"ț":{"ha":794,"x_min":0,"x_max":0,"o":"m 398 738 b 277 868 325 738 277 790 b 398 998 277 946 325 998 b 518 868 470 998 518 946 b 398 738 518 790 470 738 m 398 918 b 347 868 367 918 347 898 b 398 819 347 839 367 819 b 448 868 428 819 448 839 b 398 918 448 898 428 918 m 284 694 l 511 728 l 511 652 l 396 639 l 511 586 l 511 560 l 397 507 l 511 494 l 511 418 l 284 452 l 284 526 l 393 573 l 284 620 m 450 400 l 511 400 l 511 243 l 284 243 l 284 399 l 345 399 l 345 318 l 370 318 l 370 390 l 426 390 l 426 318 l 450 318 m 398 218 b 511 98 464 218 511 169 l 511 0 l 284 0 l 284 98 b 398 218 284 169 330 218 m 398 140 b 352 92 370 140 352 122 l 352 76 l 443 76 l 443 92 b 398 140 443 122 426 140 "},"ų":{"ha":882,"x_min":0,"x_max":0,"o":"m 654 989 b 727 922 698 989 727 962 b 654 855 727 882 698 855 b 582 922 611 855 582 882 b 654 989 582 962 611 989 m 224 985 b 291 922 264 985 291 960 b 224 859 291 885 264 859 l 170 859 l 170 985 l 224 985 m 347 893 l 393 893 l 393 859 l 306 859 l 306 985 l 392 985 l 392 951 l 347 951 l 347 938 l 388 938 l 388 906 l 347 906 m 557 985 l 576 859 l 534 859 l 526 923 l 497 859 l 482 859 l 453 922 l 446 859 l 403 859 l 422 985 l 464 985 l 490 924 l 516 985 m 654 894 b 682 922 671 894 682 905 b 654 950 682 939 671 950 b 627 922 638 950 627 939 b 654 894 627 905 638 894 m 221 897 b 248 922 238 897 248 906 b 221 947 248 938 238 947 l 212 947 l 212 897 l 221 897 m 441 -25 b 72 322 220 -25 72 112 l 72 750 l 330 750 l 330 333 b 441 207 330 254 372 207 b 552 333 510 207 552 255 l 552 750 l 811 750 l 811 322 b 441 -25 811 112 663 -25 "},"ů":{"ha":882,"x_min":0,"x_max":0,"o":"m 654 989 b 727 922 698 989 727 962 b 654 855 727 882 698 855 b 582 922 611 855 582 882 b 654 989 582 962 611 989 m 224 985 b 291 922 264 985 291 960 b 224 859 291 885 264 859 l 170 859 l 170 985 l 224 985 m 347 893 l 393 893 l 393 859 l 306 859 l 306 985 l 392 985 l 392 951 l 347 951 l 347 938 l 388 938 l 388 906 l 347 906 m 557 985 l 576 859 l 534 859 l 526 923 l 497 859 l 482 859 l 453 922 l 446 859 l 403 859 l 422 985 l 464 985 l 490 924 l 516 985 m 654 894 b 682 922 671 894 682 905 b 654 950 682 939 671 950 b 627 922 638 950 627 939 b 654 894 627 905 638 894 m 221 897 b 248 922 238 897 248 906 b 221 947 248 938 238 947 l 212 947 l 212 897 l 221 897 m 441 -25 b 72 322 220 -25 72 112 l 72 750 l 330 750 l 330 333 b 441 207 330 254 372 207 b 552 333 510 207 552 255 l 552 750 l 811 750 l 811 322 b 441 -25 811 112 663 -25 "},"ũ":{"ha":882,"x_min":0,"x_max":0,"o":"m 655 989 b 728 922 699 989 728 962 b 655 855 728 882 699 855 b 583 922 612 855 583 882 b 655 989 583 962 612 989 m 225 985 b 292 922 265 985 292 960 b 225 859 292 885 265 859 l 171 859 l 171 985 l 225 985 m 348 893 l 394 893 l 394 859 l 307 859 l 307 985 l 393 985 l 393 951 l 348 951 l 348 938 l 389 938 l 389 906 l 348 906 m 558 985 l 577 859 l 535 859 l 527 923 l 498 859 l 483 859 l 454 922 l 447 859 l 404 859 l 423 985 l 465 985 l 490 924 l 517 985 m 655 894 b 683 922 672 894 683 905 b 655 950 683 939 672 950 b 628 922 639 950 628 939 b 655 894 628 905 639 894 m 222 897 b 249 922 239 897 249 906 b 222 947 249 938 239 947 l 213 947 l 213 897 l 222 897 m 441 -25 b 72 322 220 -25 72 112 l 72 750 l 330 750 l 330 333 b 441 207 330 254 372 207 b 552 333 510 207 552 255 l 552 750 l 811 750 l 811 322 b 441 -25 811 112 663 -25 "},"v":{"ha":843,"x_min":0,"x_max":0,"o":"m 842 750 l 540 0 l 306 0 l 0 750 l 283 750 l 425 306 l 565 750 "},"w":{"ha":1204,"x_min":0,"x_max":0,"o":"m 1197 750 l 958 0 l 750 0 l 601 336 l 456 0 l 248 0 l 3 750 l 274 750 l 387 356 l 565 748 l 634 748 l 821 353 l 933 750 "},"ẃ":{"ha":1204,"x_min":0,"x_max":0,"o":"m 815 855 b 742 922 771 855 742 882 b 815 989 742 962 771 989 b 887 922 858 989 887 962 b 815 855 887 882 858 855 m 452 922 b 385 858 452 885 425 858 l 330 858 l 330 985 l 385 985 b 452 922 425 985 452 960 m 554 858 l 466 858 l 466 985 l 553 985 l 553 951 l 508 951 l 508 938 l 548 938 l 548 906 l 508 906 l 508 893 l 554 893 m 606 858 l 564 858 l 582 985 l 624 985 l 650 924 l 676 985 l 718 985 l 736 858 l 694 858 l 687 923 l 657 858 l 643 858 l 613 922 m 815 950 b 787 922 798 950 787 939 b 815 894 787 905 798 894 b 842 922 831 894 842 905 b 815 950 842 939 831 950 m 382 897 b 409 922 398 897 409 906 b 382 947 409 938 398 947 l 373 947 l 373 897 m 1197 750 l 958 0 l 750 0 l 601 336 l 456 0 l 248 0 l 3 750 l 274 750 l 387 356 l 565 748 l 634 748 l 821 353 l 933 750 "},"ŵ":{"ha":1204,"x_min":0,"x_max":0,"o":"m 815 855 b 742 922 771 855 742 882 b 815 989 742 962 771 989 b 887 922 858 989 887 962 b 815 855 887 882 858 855 m 452 922 b 385 858 452 885 425 858 l 330 858 l 330 985 l 385 985 b 452 922 425 985 452 960 m 554 858 l 466 858 l 466 985 l 553 985 l 553 951 l 508 951 l 508 938 l 548 938 l 548 906 l 508 906 l 508 893 l 554 893 m 606 858 l 564 858 l 582 985 l 624 985 l 650 924 l 676 985 l 718 985 l 736 858 l 694 858 l 687 923 l 657 858 l 643 858 l 613 922 m 815 950 b 787 922 798 950 787 939 b 815 894 787 905 798 894 b 842 922 831 894 842 905 b 815 950 842 939 831 950 m 382 897 b 409 922 398 897 409 906 b 382 947 409 938 398 947 l 373 947 l 373 897 m 1197 750 l 958 0 l 750 0 l 601 336 l 456 0 l 248 0 l 3 750 l 274 750 l 387 356 l 565 748 l 634 748 l 821 353 l 933 750 "},"ẅ":{"ha":1204,"x_min":0,"x_max":0,"o":"m 813 855 b 741 922 770 855 741 882 b 813 989 741 962 770 989 b 886 922 857 989 886 962 b 813 855 886 882 857 855 m 451 922 b 383 858 451 885 423 858 l 329 858 l 329 985 l 383 985 b 451 922 423 985 451 960 m 552 858 l 465 858 l 465 985 l 551 985 l 551 951 l 506 951 l 506 938 l 547 938 l 547 906 l 506 906 l 506 893 l 552 893 m 605 858 l 562 858 l 581 985 l 623 985 l 649 924 l 675 985 l 716 985 l 735 858 l 693 858 l 685 923 l 656 858 l 641 858 l 612 922 m 813 950 b 786 922 797 950 786 939 b 813 894 786 905 797 894 b 841 922 830 894 841 905 b 813 950 841 939 830 950 m 381 897 b 407 922 397 897 407 906 b 381 947 407 938 397 947 l 371 947 l 371 897 m 1197 750 l 958 0 l 750 0 l 601 336 l 456 0 l 248 0 l 3 750 l 274 750 l 387 356 l 565 748 l 634 748 l 821 353 l 933 750 "},"ẁ":{"ha":1204,"x_min":0,"x_max":0,"o":"m 806 855 b 734 922 763 855 734 882 b 806 989 734 962 763 989 b 879 922 850 989 879 962 b 806 855 879 882 850 855 m 443 922 b 376 858 443 885 416 858 l 322 858 l 322 985 l 376 985 b 443 922 416 985 443 960 m 545 858 l 457 858 l 457 985 l 544 985 l 544 951 l 499 951 l 499 938 l 539 938 l 539 906 l 499 906 l 499 893 l 545 893 m 597 858 l 555 858 l 574 985 l 615 985 l 641 924 l 667 985 l 709 985 l 728 858 l 686 858 l 678 923 l 649 858 l 634 858 l 605 922 m 806 950 b 779 922 790 950 779 939 b 806 894 779 905 790 894 b 834 922 823 894 834 905 b 806 950 834 939 823 950 m 373 897 b 400 922 390 897 400 906 b 373 947 400 938 390 947 l 364 947 l 364 897 m 1197 750 l 958 0 l 750 0 l 601 336 l 456 0 l 248 0 l 3 750 l 274 750 l 387 356 l 565 748 l 634 748 l 821 353 l 933 750 "},"x":{"ha":806,"x_min":0,"x_max":0,"o":"m 526 0 l 402 222 l 276 0 l -9 0 l 240 389 l 9 750 l 295 750 l 403 561 l 516 750 l 797 750 l 565 396 l 814 0 "},"y":{"ha":861,"x_min":0,"x_max":0,"o":"m 865 750 l 551 33 b 163 -279 450 -196 357 -279 l 75 -279 l 75 -57 l 146 -57 b 310 62 245 -57 275 -31 l 0 750 l 280 750 l 440 337 l 588 750 "},"ý":{"ha":861,"x_min":0,"x_max":0,"o":"m 649 855 b 576 922 605 855 576 882 b 649 989 576 962 605 989 b 721 922 692 989 721 962 b 649 855 721 882 692 855 m 286 922 b 219 858 286 885 258 858 l 164 858 l 164 985 l 219 985 b 286 922 258 985 286 960 m 388 858 l 300 858 l 300 985 l 387 985 l 387 951 l 342 951 l 342 938 l 382 938 l 382 906 l 342 906 l 342 893 l 388 893 m 440 858 l 398 858 l 416 985 l 458 985 l 484 924 l 510 985 l 552 985 l 570 858 l 528 858 l 521 923 l 491 858 l 477 858 l 447 922 m 649 950 b 621 922 632 950 621 939 b 649 894 621 905 632 894 b 676 922 665 894 676 905 b 649 950 676 939 665 950 m 216 897 b 243 922 232 897 243 906 b 216 947 243 938 232 947 l 207 947 l 207 897 m 865 750 l 551 33 b 163 -279 450 -196 357 -279 l 75 -279 l 75 -57 l 146 -57 b 310 62 245 -57 275 -31 l 0 750 l 280 750 l 440 337 l 588 750 "},"ŷ":{"ha":861,"x_min":0,"x_max":0,"o":"m 649 855 b 576 922 605 855 576 882 b 649 989 576 962 605 989 b 721 922 692 989 721 962 b 649 855 721 882 692 855 m 286 922 b 219 858 286 885 259 858 l 164 858 l 164 985 l 219 985 b 286 922 259 985 286 960 m 388 858 l 300 858 l 300 985 l 387 985 l 387 951 l 342 951 l 342 938 l 382 938 l 382 906 l 342 906 l 342 893 l 388 893 m 440 858 l 398 858 l 416 985 l 458 985 l 484 924 l 510 985 l 552 985 l 570 858 l 528 858 l 521 923 l 491 858 l 477 858 l 447 922 m 649 950 b 621 922 632 950 621 939 b 649 894 621 905 632 894 b 676 922 665 894 676 905 b 649 950 676 939 665 950 m 216 897 b 243 922 232 897 243 906 b 216 947 243 938 232 947 l 207 947 l 207 897 m 865 750 l 551 33 b 163 -279 450 -196 357 -279 l 75 -279 l 75 -57 l 146 -57 b 310 62 245 -57 275 -31 l 0 750 l 280 750 l 440 337 l 588 750 "},"ÿ":{"ha":861,"x_min":0,"x_max":0,"o":"m 647 855 b 575 922 604 855 575 882 b 647 989 575 962 604 989 b 720 922 691 989 720 962 b 647 855 720 882 691 855 m 284 922 b 217 858 284 885 257 858 l 163 858 l 163 985 l 217 985 b 284 922 257 985 284 960 m 386 858 l 299 858 l 299 985 l 385 985 l 385 951 l 340 951 l 340 938 l 381 938 l 381 906 l 340 906 l 340 893 l 386 893 m 439 858 l 396 858 l 415 985 l 457 985 l 482 924 l 509 985 l 550 985 l 569 858 l 527 858 l 519 923 l 490 858 l 475 858 l 446 922 m 647 950 b 620 922 631 950 620 939 b 647 894 620 905 631 894 b 675 922 664 894 675 905 b 647 950 675 939 664 950 m 214 897 b 241 922 231 897 241 906 b 214 947 241 938 231 947 l 205 947 l 205 897 m 865 750 l 551 33 b 163 -279 450 -196 357 -279 l 75 -279 l 75 -57 l 146 -57 b 310 62 245 -57 275 -31 l 0 750 l 280 750 l 440 337 l 588 750 "},"ỳ":{"ha":861,"x_min":0,"x_max":0,"o":"m 640 855 b 567 922 596 855 567 882 b 640 989 567 962 596 989 b 712 922 683 989 712 962 b 640 855 712 882 683 855 m 277 922 b 210 858 277 885 250 858 l 156 858 l 156 985 l 210 985 b 277 922 250 985 277 960 m 379 858 l 291 858 l 291 985 l 378 985 l 378 951 l 333 951 l 333 938 l 373 938 l 373 906 l 333 906 l 333 893 l 379 893 m 431 858 l 389 858 l 408 985 l 449 985 l 475 924 l 501 985 l 543 985 l 561 858 l 519 858 l 512 923 l 482 858 l 468 858 l 439 922 m 640 950 b 612 922 623 950 612 939 b 640 894 612 905 623 894 b 668 922 656 894 668 905 b 640 950 668 939 656 950 m 207 897 b 234 922 224 897 234 906 b 207 947 234 938 224 947 l 198 947 l 198 897 m 865 750 l 551 33 b 163 -279 450 -196 357 -279 l 75 -279 l 75 -57 l 146 -57 b 310 62 245 -57 275 -31 l 0 750 l 280 750 l 440 337 l 588 750 "},"z":{"ha":717,"x_min":0,"x_max":0,"o":"m 676 230 l 676 0 l 28 0 l 28 38 l 316 522 l 54 522 l 54 750 l 673 750 l 673 708 l 390 230 "},"ź":{"ha":717,"x_min":0,"x_max":0,"o":"m 578 855 b 505 922 534 855 505 882 b 578 989 505 962 534 989 b 650 922 621 989 650 962 b 578 855 650 882 621 855 m 215 922 b 148 858 215 885 188 858 l 94 858 l 94 985 l 148 985 b 215 922 188 985 215 960 m 317 858 l 229 858 l 229 985 l 316 985 l 316 951 l 271 951 l 271 938 l 311 938 l 311 906 l 271 906 l 271 893 l 317 893 m 369 858 l 327 858 l 346 985 l 387 985 l 413 924 l 439 985 l 481 985 l 499 858 l 457 858 l 450 923 l 420 858 l 406 858 l 376 922 m 578 950 b 550 922 561 950 550 939 b 578 894 550 905 561 894 b 605 922 594 894 605 905 b 578 950 605 939 594 950 m 145 897 b 172 922 162 897 172 906 b 145 947 172 938 162 947 l 136 947 l 136 897 m 676 230 l 676 0 l 28 0 l 28 38 l 316 522 l 54 522 l 54 750 l 673 750 l 673 708 l 390 230 "},"ž":{"ha":717,"x_min":0,"x_max":0,"o":"m 577 855 b 505 922 534 855 505 882 b 577 989 505 962 534 989 b 650 922 621 989 650 962 b 577 855 650 882 621 855 m 214 922 b 147 858 214 885 187 858 l 93 858 l 93 985 l 147 985 b 214 922 187 985 214 960 m 316 858 l 229 858 l 229 985 l 315 985 l 315 951 l 270 951 l 270 938 l 311 938 l 311 906 l 270 906 l 270 893 l 316 893 m 369 858 l 326 858 l 345 985 l 387 985 l 412 924 l 439 985 l 480 985 l 499 858 l 457 858 l 449 923 l 420 858 l 405 858 l 376 922 m 577 950 b 550 922 561 950 550 939 b 577 894 550 905 561 894 b 605 922 594 894 605 905 b 577 950 605 939 594 950 m 144 897 b 171 922 161 897 171 906 b 144 947 171 938 161 947 l 135 947 l 135 897 m 676 230 l 676 0 l 28 0 l 28 38 l 316 522 l 54 522 l 54 750 l 673 750 l 673 708 l 390 230 "},"ż":{"ha":717,"x_min":0,"x_max":0,"o":"m 578 855 b 506 922 535 855 506 882 b 578 989 506 962 535 989 b 651 922 622 989 651 962 b 578 855 651 882 622 855 m 216 922 b 149 858 216 885 188 858 l 94 858 l 94 985 l 149 985 b 216 922 188 985 216 960 m 317 858 l 230 858 l 230 985 l 317 985 l 317 951 l 271 951 l 271 938 l 312 938 l 312 906 l 271 906 l 271 893 l 317 893 m 370 858 l 327 858 l 346 985 l 388 985 l 414 924 l 440 985 l 481 985 l 500 858 l 458 858 l 450 923 l 421 858 l 406 858 l 377 922 m 578 950 b 551 922 562 950 551 939 b 578 894 551 905 562 894 b 606 922 595 894 606 905 b 578 950 606 939 595 950 m 146 897 b 172 922 162 897 172 906 b 146 947 172 938 162 947 l 137 947 l 137 897 m 676 230 l 676 0 l 28 0 l 28 38 l 316 522 l 54 522 l 54 750 l 673 750 l 673 708 l 390 230 "},"ª":{"ha":794,"x_min":0,"x_max":0,"o":"m 398 738 b 277 868 325 738 277 790 b 398 998 277 946 325 998 b 518 868 470 998 518 946 b 398 738 518 790 470 738 m 398 918 b 347 868 367 918 347 898 b 398 819 347 839 367 819 b 448 868 428 819 448 839 b 398 918 448 898 428 918 m 284 694 l 511 728 l 511 652 l 396 639 l 511 586 l 511 560 l 397 507 l 511 494 l 511 418 l 284 452 l 284 526 l 393 573 l 284 620 m 450 400 l 511 400 l 511 243 l 284 243 l 284 399 l 345 399 l 345 318 l 370 318 l 370 390 l 426 390 l 426 318 l 450 318 m 398 218 b 511 98 464 218 511 169 l 511 0 l 284 0 l 284 98 b 398 218 284 169 330 218 m 398 140 b 352 92 370 140 352 122 l 352 76 l 443 76 l 443 92 b 398 140 443 122 426 140 "},"º":{"ha":794,"x_min":0,"x_max":0,"o":"m 398 738 b 277 868 325 738 277 790 b 398 998 277 946 325 998 b 518 868 470 998 518 946 b 398 738 518 790 470 738 m 398 918 b 347 868 367 918 347 898 b 398 819 347 839 367 819 b 448 868 428 819 448 839 b 398 918 448 898 428 918 m 284 694 l 511 728 l 511 652 l 396 639 l 511 586 l 511 560 l 397 507 l 511 494 l 511 418 l 284 452 l 284 526 l 393 573 l 284 620 m 450 400 l 511 400 l 511 243 l 284 243 l 284 399 l 345 399 l 345 318 l 370 318 l 370 390 l 426 390 l 426 318 l 450 318 m 398 218 b 511 98 464 218 511 169 l 511 0 l 284 0 l 284 98 b 398 218 284 169 330 218 m 398 140 b 352 92 370 140 352 122 l 352 76 l 443 76 l 443 92 b 398 140 443 122 426 140 "},"А":{"ha":1033,"x_min":0,"x_max":0,"o":"m 685 158 l 341 158 l 287 0 l 0 0 l 382 972 l 643 972 l 1034 0 l 739 0 m 512 669 l 406 368 l 620 368 "},"Б":{"ha":876,"x_min":0,"x_max":0,"o":"m 520 619 b 837 310 708 619 837 493 b 520 0 837 127 706 0 l 94 0 l 94 972 l 752 972 l 752 735 l 351 735 l 351 619 l 520 619 m 470 216 b 566 311 527 216 566 255 b 470 406 566 367 527 406 l 351 406 l 351 216 l 470 216 "},"В":{"ha":904,"x_min":0,"x_max":0,"o":"m 708 513 b 858 277 800 470 858 383 b 542 0 858 119 722 0 l 94 0 l 94 972 l 533 972 b 831 723 706 972 831 867 b 708 513 831 637 783 558 m 577 679 b 487 764 577 729 543 764 l 351 764 l 351 594 l 487 594 b 577 679 543 594 577 629 m 497 220 b 593 309 555 220 593 256 b 497 397 593 360 555 397 l 351 397 l 351 220 l 497 220 "},"Г":{"ha":713,"x_min":0,"x_max":0,"o":"m 686 730 l 364 730 l 364 0 l 94 0 l 94 972 l 686 972 "},"Ѓ":{"ha":713,"x_min":0,"x_max":0,"o":"m 564 1091 b 491 1158 520 1091 491 1118 b 564 1225 491 1198 520 1225 b 636 1158 607 1225 636 1198 b 564 1091 636 1118 607 1091 m 201 1158 b 134 1095 201 1121 174 1095 l 79 1095 l 79 1221 l 134 1221 b 201 1158 174 1221 201 1196 m 303 1095 l 215 1095 l 215 1221 l 302 1221 l 302 1187 l 257 1187 l 257 1174 l 297 1174 l 297 1142 l 257 1142 l 257 1129 l 303 1129 m 355 1095 l 313 1095 l 331 1221 l 373 1221 l 399 1160 l 425 1221 l 467 1221 l 485 1095 l 443 1095 l 436 1159 l 406 1095 l 392 1095 l 362 1159 m 564 1186 b 536 1158 547 1186 536 1175 b 564 1130 536 1141 547 1130 b 591 1158 580 1130 591 1141 b 564 1186 591 1175 580 1186 m 131 1133 b 158 1158 147 1133 158 1142 b 131 1183 158 1174 147 1183 l 122 1183 l 122 1133 m 686 730 l 364 730 l 364 0 l 94 0 l 94 972 l 686 972 "},"Ґ":{"ha":711,"x_min":0,"x_max":0,"o":"m 685 1118 l 685 730 l 364 730 l 364 0 l 94 0 l 94 972 l 443 972 l 443 1118 "},"Д":{"ha":1092,"x_min":0,"x_max":0,"o":"m 1040 245 l 1040 -176 l 795 -176 l 795 0 l 279 0 l 279 -176 l 34 -176 l 34 245 l 123 245 b 233 972 186 315 193 451 l 942 972 l 942 245 m 470 729 b 388 245 457 461 434 325 l 679 245 l 679 729 l 470 729 "},"Е":{"ha":788,"x_min":0,"x_max":0,"o":"m 728 232 l 728 0 l 94 0 l 94 972 l 716 972 l 716 741 l 361 741 l 361 598 l 680 598 l 680 378 l 361 378 l 361 232 "},"Ё":{"ha":788,"x_min":0,"x_max":0,"o":"m 614 1091 b 542 1158 571 1091 542 1118 b 614 1225 542 1198 571 1225 b 687 1158 658 1225 687 1198 b 614 1091 687 1118 658 1091 m 251 1158 b 184 1095 251 1121 224 1095 l 130 1095 l 130 1221 l 184 1221 b 251 1158 224 1221 251 1196 m 353 1095 l 265 1095 l 265 1221 l 352 1221 l 352 1187 l 307 1187 l 307 1174 l 348 1174 l 348 1142 l 307 1142 l 307 1129 l 353 1129 m 406 1095 l 363 1095 l 382 1221 l 423 1221 l 449 1160 l 475 1221 l 517 1221 l 536 1095 l 494 1095 l 486 1159 l 457 1095 l 442 1095 l 413 1159 m 614 1186 b 587 1158 598 1186 587 1175 b 614 1130 587 1141 598 1130 b 642 1158 631 1130 642 1141 b 614 1186 642 1175 631 1186 m 181 1133 b 208 1158 198 1133 208 1142 b 181 1183 208 1174 198 1183 l 172 1183 l 172 1133 m 728 232 l 728 0 l 94 0 l 94 972 l 716 972 l 716 741 l 361 741 l 361 598 l 680 598 l 680 378 l 361 378 l 361 232 "},"Ж":{"ha":1408,"x_min":0,"x_max":0,"o":"m 1109 0 l 836 438 l 836 0 l 573 0 l 573 438 l 299 0 l -13 0 l 323 501 l 18 972 l 326 972 l 573 555 l 573 972 l 836 972 l 836 555 l 1082 972 l 1390 972 l 1086 501 l 1422 0 "},"З":{"ha":840,"x_min":0,"x_max":0,"o":"m 656 505 b 796 275 749 454 797 375 b 414 -25 796 76 608 -25 b 37 307 211 -25 37 92 l 304 307 b 413 201 305 239 356 201 b 524 299 473 201 524 239 b 407 391 524 353 480 391 l 327 391 l 327 605 l 404 605 b 510 692 471 605 510 642 b 413 782 510 748 466 782 b 310 686 359 782 311 746 l 50 686 b 420 997 50 892 230 997 b 772 709 599 997 772 899 b 656 505 772 621 729 553 "},"И":{"ha":1046,"x_min":0,"x_max":0,"o":"m 952 972 l 952 0 l 689 0 l 689 518 l 302 0 l 94 0 l 94 972 l 357 972 l 357 451 l 742 972 "},"Й":{"ha":1046,"x_min":0,"x_max":0,"o":"m 304 1248 l 749 1248 l 749 1067 l 304 1067 m 952 972 l 952 0 l 689 0 l 689 518 l 302 0 l 94 0 l 94 972 l 357 972 l 357 451 l 742 972 "},"К":{"ha":940,"x_min":0,"x_max":0,"o":"m 641 0 l 362 430 l 362 0 l 94 0 l 94 972 l 362 972 l 362 562 l 619 972 l 929 972 l 618 501 l 958 0 "},"Л":{"ha":1068,"x_min":0,"x_max":0,"o":"m 974 972 l 974 0 l 706 0 l 706 728 l 518 728 l 481 390 b 110 -3 451 127 329 -3 l 32 -3 l 32 243 l 78 243 b 215 400 160 243 202 291 l 282 972 "},"М":{"ha":1364,"x_min":0,"x_max":0,"o":"m 1055 0 l 980 560 l 722 -2 l 643 -2 l 385 560 l 310 0 l 39 0 l 186 972 l 453 972 l 682 443 l 912 972 l 1180 972 l 1326 0 "},"Н":{"ha":1019,"x_min":0,"x_max":0,"o":"m 926 972 l 926 0 l 656 0 l 656 373 l 364 373 l 364 0 l 94 0 l 94 972 l 364 972 l 364 621 l 656 621 l 656 972 "}}}
